<svg xmlns="http://www.w3.org/2000/svg" viewBox="0 0 120 80"><path d="M36.509 45.219c-2.078 2.663-5.704 4.429-9.827 4.429C20.23 49.648 15 45.328 15 40c0-5.329 5.23-9.648 11.682-9.648 4.52 0 8.441 2.12 10.384 5.222L29.542 40l3.918-6.716a7.735 7.735 0 0 0-3.6-.882c-4.249 0-7.694 3.401-7.694 7.597s3.445 7.596 7.694 7.596a7.712 7.712 0 0 0 6.439-3.438l.21 1.062M43.442 48.923c-3.351 0-6.067-2.134-6.067-4.769 0-2.633 2.716-4.767 6.067-4.767 3.35 0 6.065 2.135 6.065 4.767.001 2.635-2.715 4.769-6.065 4.769m2.224-2.106c1.489 0 2.696-1.192 2.696-2.662 0-1.469-1.207-2.66-2.696-2.66s-2.696 1.192-2.696 2.66c0 1.47 1.207 2.662 2.696 2.662"/><path d="M39.232 36.472l7.228-2.746s2.303-.626 3.733.784c1.43 1.412 1.747 2.588 1.747 2.588l3.336 11.685h-5.639l-3.336-12.311h-7.069M53.45 36.314l5.719-2.744s2.065-.706 3.336 2.118l4.845-2.118s3.335-.628 3.335 2.744v12.469h-5.558V37.334s-.24-.942-1.351-.942c-1.113 0-1.271.862-1.271.862v11.528h-5.481V36.314H53.45M80.377 49.174c-4.342 0-7.862-3.475-7.862-7.762 0-4.288 3.52-7.763 7.862-7.763 4.344 0 7.863 3.474 7.863 7.763 0 4.287-3.519 7.762-7.863 7.762m2.823-3.471l-2.717-9.866a1.684 1.684 0 0 0-1.615-1.185c-.93 0-1.685.744-1.685 1.662 0 .153.021.301.06.442l2.882 10.308a1.69 1.69 0 0 0 1.523.952c.93 0 1.685-.745 1.685-1.663a1.635 1.635 0 0 0-.133-.65M87.764 36.314l5.72-2.744s2.065-.706 3.335 2.118l4.845-2.118s3.335-.628 3.335 2.744v12.469H99.44V37.334s-.238-.942-1.351-.942c-1.112 0-1.271.862-1.271.862v11.528h-5.481V36.314h-3.573"/></svg>