<svg xmlns="http://www.w3.org/2000/svg" viewBox="0 0 120 80"><path d="M47.466 52.639s-.16.273-.186.266-.276-.021-1.19-.875a2.917 2.917 0 0 1-.603-.766s-.022-.046.415-.191 1.22-.074 1.546.398c.252.365.177.895.018 1.168m-1.463 1.604c-1.265.855-2.67 1.001-3.137.325-.431-.623.086-1.725.623-2.145 0 0 .537-.419.555-.384.019.036.405.689 1.015 1.1.568.381 1.352.524 1.49.536 0 0 .137.012.037.11a4.806 4.806 0 0 1-.583.458m68.181-2.49c-.949.491-10.167 3.365-11.235 3.308-.778-.036-.931-.51-.969-.925-.02-.243.004-.514.038-.85.035-.336.144-1.051-.166-1.249-.159-.1-.678-.423-.802-.456a.511.511 0 0 0-.351.038c-.136.063-.52.419-.861.694-.354.287-.7.618-1.088.916a9.562 9.562 0 0 1-1.113.743c-.388.22-.53.247-.602.249a.196.196 0 0 1-.109-.028c-.089-.058-.099-.192-.034-.46.052-.218.157-.476.312-.765.153-.287.363-.588.621-.895.262-.311.593-.569.986-.769s.854-.319 1.37-.354c.516-.034 1.106.069 1.754.31l.004.002c.153.065.283.08.386.047a.41.41 0 0 0 .221-.146c.037-.056.044-.122.018-.204a.341.341 0 0 0-.171-.197 13.288 13.288 0 0 0-.66-.239 5.544 5.544 0 0 0-1.055-.231 7.734 7.734 0 0 0-1.315-.053 4.583 4.583 0 0 0-1.401.282c-.467.17-.919.426-1.346.763a3.79 3.79 0 0 0-.45.424.088.088 0 0 1-.01.006c-.731.323-5.269 2.322-5.756 2.508-.493.189-.915.296-1.256.317-.421.027-.778-.005-1.061-.092-.285-.088-.528-.213-.721-.373s-.332-.349-.448-.541c-.198-.329-.198-.329-.749-1.94.845-.294 2.242-.745 2.695-.957.504-.234.828-.481.783-.852-.017-.142-.142-.213-.299-.322-.125-.088-.272-.085-.373.013-.28.273-.674.482-1.077.684-.698.351-1.715.772-2.698 1.16-.331.13-1.366.525-1.497.575l.012-.027s2.434-5.347 2.573-5.684c.139-.335.201-.544.184-.626-.017-.129-.105-.184-.252-.218-.148-.033-.255.028-.255.028l-3.393 1.661a.175.175 0 0 0 .005.106c.02.064.071.108.149.134.079.025.182.006.31-.059.103-.066 1.317-.648 1.457-.714-.207.4-2.58 5.58-2.841 6.116-.164.065-.451.183-.753.306-.279.114-2.796 1.087-4.396 1.66a7.388 7.388 0 0 1-1.045.312c-.055.012-.106-.006-.135-.048-.041-.06-.031-.148.04-.325.25-.629 1.125-2.229 1.125-2.229.255-.469.637-1.304.116-1.283-.007 0-.386-.002-.857.355-.45.341-.955.753-1.494 1.237a28.01 28.01 0 0 1-1.734 1.436c-.617.473-1.252.777-1.887.905-.155.036-.267.016-.332-.061-.048-.056-.061-.135-.043-.236.11-.591 1.164-2.391 1.316-2.719.148-.324.247-.604.293-.833.05-.245-.045-.322-.226-.373-.273-.076-.472-.085-.824-.049-.378.039-.923.217-1.255.357-.371.143-5.359 2.303-5.964 2.541-.607.238-1.167.439-1.663.596a9.288 9.288 0 0 1-1.37.326c-.112.015-.276 0-.385-.088-.196-.157-.068-.373.258-1.06.09-.187.441-.906.721-1.405.315-.301.914-1.002 1.119-1.405 0 0 .08-.146.079-.365a.382.382 0 0 0-.138-.33c-.157-.122-.434-.129-.84.02a2.3 2.3 0 0 0-.497.234c-.425.27-.915 1.173-.915 1.173l-.215.373-.09.156c-1.762.975-3.166 1.285-3.928 1.319.163-.276.411-.606.565-.778.167-.186.329-.301.358-.605a.488.488 0 0 0-.118-.349 1.095 1.095 0 0 0-.368-.274 1.311 1.311 0 0 0-.307-.099 1.292 1.292 0 0 0-.173-.024.624.624 0 0 0-.282.042c.002-.002.001-.003-.003-.002-.03.01-.315.119-.523.198-.074.028-6.403 1.742-6.458 1.747.34-.648.351-1.27-.051-1.72-.569-.636-1.813-.76-3.164-.41a.355.355 0 0 0-.032-.037c-.245-.234-1.555-.267-1.473.333.018.085.042.166.066.247l-.964.499c-.628.327-6.018 2.637-6.506 2.824-.493.189-.916.296-1.256.317-.42.026-.778-.004-1.061-.092-.285-.087-.528-.213-.721-.373s-.344-.342-.448-.541a6.46 6.46 0 0 1-.265-.566l-.484-1.374c.845-.294 2.242-.746 2.695-.957.504-.235.824-.485.779-.857-.017-.142-.138-.209-.294-.318-.126-.087-.273-.085-.374.013-.28.272-.674.482-1.077.684-1.072.538-2.895 1.245-4.194 1.734 2.446-5.374 2.446-5.374 2.585-5.711.139-.336.2-.544.184-.626-.018-.128-.102-.201-.252-.217a.431.431 0 0 0-.283.042l-3.117 1.518a.175.175 0 0 0 .004.106c.021.064.071.108.15.134.078.026.191.022.31-.059a18.43 18.43 0 0 1 1.21-.585c-.218.422-3.42 7.452-3.556 7.816-.286.765-.101.84-.009.896a.965.965 0 0 0 .377.126 1.858 1.858 0 0 0 .804-.071l.005-.002c.196-.112 1.337-2.796 1.337-2.796l1.111-.355c.089.248.286.759.349.912.167.463.302.846.539 1.207.201.302.426.612.847.849.417.237 1.01.333 1.763.286.495-.031 1.047-.163 1.652-.358.492-.158.492-.158 6.426-2.882-.93.942-1.213 1.992-.636 2.637.822.919 3.049.77 4.976-.332.658-.377 1.196-.816 1.586-1.268l6.915-2.084c-.04.059-.08.121-.12.188a9.862 9.862 0 0 0-.501.951c-.15.329-.28.644-.384.939-.107.304-.18.526-.224.68-.022.07-.033.174.112.304.127.114.282.203.463.265.178.063.361.085.545.067a.666.666 0 0 0 .262-.061c.087-.058.103-.16.103-.16.277-1.21.277-1.21.428-1.32 1.493-.121 2.803-.429 3.625-.762-.096.183-.191.372-.283.572-.143.31-.26.609-.349.889-.169.564-.158.965.032 1.194.122.148.367.213.726.213a3.64 3.64 0 0 0 1.065-.17c1.408-.49 9.087-3.917 9.087-3.917.157-.068.255-.06.289-.058.061.004.09.039.102.076.024.077-.025.156-.143.361a32.35 32.35 0 0 0-.41.749c-.149.278-.31.591-.453.94-.347.844-.631 2.049-.015 2.256.503.169 1.357-.014 1.74-.15a8.275 8.275 0 0 0 1.602-.76 12.712 12.712 0 0 0 1.621-1.198l.279-.242-.129.344c-.155.413-.536 1.33-.51 1.631.01.116.064.21.152.273.11.08.257.133.544.112a3.81 3.81 0 0 0 .921-.185c.929-.296.894-.347 2.235-.88.337-.134 4.056-1.53 4.137-1.557-.219.505-.35.829-.483 1.173a4.023 4.023 0 0 0-.066.18c-.123.338-.119.434-.114.456l.001.004a.353.353 0 0 0 .171.256c.103.064.23.106.376.125.153.021.305.023.453.005l.029-.003c.096-.01.119-.014.195-.032.102-.023.102-.023.117-.032 0 0 .014-.01.092-.031.078-.023.333-.68.333-.68l.927-2.094 1.111-.355c.09.248.651 1.758.888 2.119.201.302.426.612.847.849.418.236 1.01.332 1.762.285.495-.031 1.051-.151 1.652-.358.197-.068 1.055-.48 1.251-.571 1.268-.584 1.268-.584 4.793-2.194-.178.272-.178.272-.269.434-.33.591-.544 1.076-.636 1.443-.09.359-.109.639-.053.832a.485.485 0 0 0 .308.353c.168.061.371.078.599.052.235-.028.482-.09.732-.186.255-.097.493-.203.707-.315.31-.161.64-.344.981-.544.36-.212.805-.54 1.075-.734.348-.249.348-.249 1.418-1.164l-.119 1.344c-.099 1.401 1.457 2.485 3.092 1.934.357-.119.832-.266 1.384-.432l9.933-3.322s.091-.039.091-.089c-.001-.248-.483-.291-.816-.092M6.155 48.553c-.368.286-.484.561-.351.702.133.14.313.056 1.082-.431.768-.486 4.25-2.394 8.624-3.366 4.374-.973 8.055.252 8.422 3.556.367 3.305-4.029 7.563-10.443 9.19s-10.95-3.436.512-5.855c5.674-1.197 10.007-.942 10.741-.916.734.024.939-.093 1.072-.337.133-.243-.228-.328-.834-.309-.607.018-5.352-.037-11.054 1.16s-9.193 2.927-8.909 4.9c.285 1.974 3.615 3.713 9.46 1.917 5.845-1.795 11.316-6.858 11.379-9.825.064-2.968-2.916-5.356-10.449-3.991-4.404.799-9.028 3.43-9.252 3.605M69.918 35.94a5.5 5.5 0 0 0-1.585-3.681h2.389a10.385 10.385 0 0 1-.804 3.681m-2.041 3.13l-3.417-6.81h2.593a4.78 4.78 0 0 1 1.402 1.526 4.685 4.685 0 0 1 .317 4.026l-.049.123-.058.133c-.021.047-.044.093-.066.139l-.019.037c-.22.284-.454.56-.703.826M60 42.464c-.898 0-1.779-.107-2.628-.317l2.633-5.156 2.631 5.155c-.852.21-1.735.318-2.636.318m-8.554-4.188l-.036-.072c-.022-.045-.045-.092-.066-.139a5.331 5.331 0 0 1-.107-.256 4.685 4.685 0 0 1 .317-4.026 4.791 4.791 0 0 1 1.402-1.526h2.593l-3.42 6.816c-.242-.255-.47-.521-.683-.797m-2.17-6.017h2.399a5.512 5.512 0 0 0-1.585 3.7 10.422 10.422 0 0 1-.814-3.7m.812-4.438a5.514 5.514 0 0 0 1.499 3.612h-2.308c.054-1.258.33-2.477.809-3.612m1.91-2.981a5.458 5.458 0 0 0-.321 1.85c0 2.003 1.079 3.761 2.693 4.743h-1.541a4.813 4.813 0 0 1-1.376-1.614 4.642 4.642 0 0 1-.53-2.166c0-.738.167-1.446.497-2.102l.027-.052-.001-.001c.175-.225.359-.445.552-.658m9.048-3.48a5.703 5.703 0 0 0-1.042.428 5.584 5.584 0 0 0-1.044-.428 10.874 10.874 0 0 1 2.086 0m1.438 10.899h1.041l3.725 7.426c-.229.208-.466.405-.711.59l-4.055-8.016zm-1.023 1.878l.52-1.019 3.866 7.641c-.255.165-.517.318-.785.459l-3.601-7.081zm-.47.92l3.317 6.523c-.28.12-.565.229-.854.326l-2.979-5.836.516-1.013zm-1.505-.921l.518-1.019.518 1.019-.518 1.014-.518-1.014zm-.468.921l.517 1.013-2.981 5.839a10.894 10.894 0 0 1-.855-.326l3.319-6.526zm-.99-1.939l.52 1.019-3.603 7.086c-.268-.141-.53-.295-.785-.459l3.868-7.646zm-1.114-.859h.612l-4.059 8.02a10.723 10.723 0 0 1-.711-.589l3.729-7.431h.429zm5.223-5.569a4.723 4.723 0 0 1-2.132 3.937 4.723 4.723 0 0 1-2.133-3.937 4.72 4.72 0 0 1 2.133-3.937 4.724 4.724 0 0 1 2.132 3.937m-.657 5.569l-.488.956-.486-.956h.974zm-1.977 0l-.486.956-.489-.956h.975zm7.989-5.569c0 2.615-2.158 4.741-4.81 4.741-.66 0-1.289-.132-1.861-.37 1.311-1.02 2.155-2.601 2.155-4.372s-.844-3.351-2.155-4.372a4.838 4.838 0 0 1 1.861-.369c2.653.001 4.81 2.127 4.81 4.742m-10.165-4.741c.659 0 1.288.131 1.861.369a5.537 5.537 0 0 0-2.155 4.372c0 1.771.844 3.351 2.155 4.372a4.842 4.842 0 0 1-1.861.37c-2.653 0-4.811-2.127-4.811-4.741s2.158-4.742 4.811-4.742m11.248 3.578l.012.024a4.64 4.64 0 0 1 .497 2.102 4.63 4.63 0 0 1-.53 2.166 4.801 4.801 0 0 1-1.376 1.614h-1.542c1.615-.982 2.693-2.74 2.693-4.743 0-.642-.111-1.259-.315-1.834.198.217.385.441.561.671m2.145 5.906h-2.299c.348-.371.646-.788.88-1.235a5.516 5.516 0 0 0 .619-2.358c.475 1.13.747 2.342.8 3.593m-.06-3.985a11.35 11.35 0 0 0-2.48-3.624 11.546 11.546 0 0 0-3.677-2.444A11.635 11.635 0 0 0 60 20.484c-1.562 0-3.077.302-4.504.896a11.546 11.546 0 0 0-6.156 6.068 11.184 11.184 0 0 0-.909 4.44c0 1.539.306 3.032.909 4.438.583 1.358 1.417 2.578 2.479 3.625s2.299 1.869 3.677 2.444c1.427.595 2.942.896 4.504.896s3.077-.302 4.503-.896a11.546 11.546 0 0 0 3.677-2.444 11.354 11.354 0 0 0 2.48-3.625c.603-1.405.909-2.899.909-4.438 0-1.54-.306-3.033-.909-4.44"/></svg>