<svg xmlns="http://www.w3.org/2000/svg" viewBox="0 0 120 80"><path d="M49.158 43.657v-1.879h6.546v-2.156h-6.546V38.06c0-.153.02-.276.193-.276h6.506v-2.247h-7.61c-.907 0-1.498.632-1.498 1.726v7.159c0 1.092.591 1.726 1.498 1.726h7.762v-2.247h-6.657c-.173 0-.194-.092-.194-.244zM67.399 37.783v-2.247H59.8c-.91 0-1.503.632-1.503 1.726v8.864h2.483v-8.067c0-.134.009-.276.182-.276h6.437zM89.512 33.882a10.428 10.428 0 0 0-.869-.031H83.82c-.304 0-.591.009-.865.031-3.269.255-4.554 2.011-4.554 5.424 0 3.37 1.376 5.157 4.554 5.432.285.021.582.03.898.03h1.134v1.359h2.481v-1.359h1.156c.305 0 .613-.009.888-.03 3.197-.275 4.555-2.062 4.555-5.432 0-3.423-1.238-5.169-4.555-5.424zm-4.525 8.68H83.82c-.313 0-.611-.018-.865-.06-1.574-.255-2.035-1.297-2.035-3.155 0-1.922.452-2.952 2.035-3.207.264-.042.57-.063.908-.063h1.125l-.001 6.485zm4.525-.061c-.255.042-.542.06-.869.06h-1.174v-6.485h1.133c.35 0 .644.021.911.063 1.604.255 2.054 1.286 2.054 3.207-.001 1.858-.473 2.9-2.055 3.155zM41.887 33.596c-1.195 0-1.961.664-2.535 2.011l-3.338 7.977-3.401-7.977c-.561-1.347-1.338-2.011-2.532-2.011-1.401 0-2.287.837-2.287 2.655v9.876h2.573v-9.529l3.433 8.026c.469 1.105 1.174 1.707 2.176 1.707 1.061 0 1.735-.602 2.195-1.707l3.442-8.107v9.609h2.562V36.25c-.002-1.817-.87-2.654-2.288-2.654zM102.513 35.384h-.898c-3.882 0-5.423 1.737-5.423 5.443 0 3.656 1.572 5.475 5.443 5.474h.847c3.841 0 5.456-1.818 5.456-5.474-.001-3.697-1.505-5.443-5.425-5.443zm0 8.71h-.898c-2.217 0-2.932-1.061-2.932-3.236 0-2.207.622-3.268 2.971-3.268h.818c2.348 0 2.961 1.062 2.961 3.268 0 2.175-.695 3.236-2.92 3.236zM71.996 35.271h-.021c-.972 0-1.644.469-2.075 1.44l-3.35 7.516-.846 1.9h2.725l.96-2.287h5.229l.992 2.287h2.654l-4.196-9.354c-.419-.96-1.112-1.491-2.072-1.502zm-1.799 6.445l1.593-3.791c.098-.222.305-.218.389 0l1.603 3.791h-3.585zM117.874 35.536v4.013h-5.415v-4.013H110v10.591h2.459v-4.29h5.415v4.29h2.463V35.536zM11.95 28.387C5.536 28.387.337 33.586.337 40c0 5.706 4.116 10.447 9.539 11.425v-10.21c0-.479.392-.871.871-.871h1.547a.083.083 0 0 0 .083-.083V28.398c-.142-.005-.284-.011-.427-.011zm-2.233 9.961a1.37 1.37 0 1 1 0-2.738 1.37 1.37 0 0 1 0 2.738z"/><path d="M13.757 28.528V40.81a.874.874 0 0 1-.871.871h-1.547a.083.083 0 0 0-.083.083v9.827c.23.014.461.022.694.022 6.414 0 11.613-5.199 11.613-11.613-.001-5.799-4.251-10.604-9.806-11.472zm-.073 17.434a1.224 1.224 0 1 1 0-2.448 1.224 1.224 0 0 1 0 2.448zm3.235 0a1.223 1.223 0 1 1 0-2.446 1.223 1.223 0 0 1 0 2.446zm3.236 0a1.223 1.223 0 1 1 0-2.446 1.223 1.223 0 0 1 0 2.446z"/></svg>