<svg xmlns="http://www.w3.org/2000/svg" viewBox="0 0 120 80"><path d="M77.671 22.33C72.804 17.443 66.918 15 60.015 15c-4.995 0-9.615 1.375-13.858 4.135-3.432 2.285-6.133 5.252-8.101 8.883C36.018 31.736 35 35.732 35 40.015c0 4.263 1.018 8.249 3.056 11.968a24.68 24.68 0 0 0 8.101 8.853C50.371 63.615 54.99 65 60.015 65c6.903 0 12.789-2.433 17.656-7.299C82.556 52.814 85 46.919 85 40.015c0-6.924-2.444-12.819-7.329-17.685zm-16.122 5.153c-.446 1.306-.773 2.147-.971 2.522-.227.524-.633.781-1.216.781h-1.573c-2.671 0-4.421.129-5.252.396-.851.267-1.494.702-1.919 1.286-.287.376-.435.87-.435 1.474 0 .653.188 1.216.573 1.681.722.722 1.979 1.622 3.77 2.72 3.521 2.226 5.281 4.649 5.281 7.27 0 2.285-.969 4.253-2.898 5.885-2.087 1.75-4.788 2.621-8.101 2.621-2.74 0-4.778-.228-6.123-.673-.386-.207-.505-.563-.366-1.078l.87-2.522c.178-.494.495-.663.94-.505 1.345.337 2.958.505 4.847.505 1.86 0 3.294-.366 4.303-1.108.88-.623 1.315-1.405 1.315-2.325 0-.712-.307-1.365-.91-1.949-.604-.583-1.909-1.474-3.907-2.691-3.353-2.067-5.035-4.441-5.035-7.122 0-3.412 1.75-5.796 5.242-7.171 1.593-.603 4.383-.9 8.368-.9h2.661c.624.003.802.299.536.903zm15.201-.099l-7.536 17.151c-.248.564-.683.841-1.306.841H64.95c-.475 0-.613-.276-.405-.841.563-1.028 2.63-5.628 6.22-13.788l-6.894.04c-.444 0-.593-.267-.435-.811l.969-2.621c.227-.514.613-.771 1.178-.771h10.692c.605-.001.763.266.475.8z"/></svg>