<svg xmlns="http://www.w3.org/2000/svg" viewBox="0 0 120 80"><path d="M69.897 32.272a15.505 15.505 0 0 0 4.437-10.892v-2.986A3.393 3.393 0 0 0 70.94 15a3.394 3.394 0 0 0-3.396 3.394v2.986a8.712 8.712 0 0 1-2.492 6.133c-1.543 1.565-3.618 2.509-5.939 2.51-2.321-.001-4.395-.945-5.94-2.51a8.713 8.713 0 0 1-2.49-6.133v-2.986a3.396 3.396 0 0 0-6.791 0v2.986a15.517 15.517 0 0 0 4.436 10.892 15.139 15.139 0 0 0 7.388 4.154v7.146a15.132 15.132 0 0 0-7.388 4.157 15.505 15.505 0 0 0-4.436 10.892v2.985a3.396 3.396 0 0 0 6.791 0v-2.985c0-2.415.955-4.566 2.49-6.134 1.545-1.565 3.618-2.509 5.94-2.511 2.32.002 4.396.946 5.939 2.511a8.708 8.708 0 0 1 2.492 6.134v2.985a3.394 3.394 0 0 0 6.79 0v-2.985a15.501 15.501 0 0 0-4.437-10.892 15.14 15.14 0 0 0-7.388-4.157v-7.146a15.134 15.134 0 0 0 7.388-4.154"/><path d="M59.114 64.284a5.88 5.88 0 1 0 0-11.756 5.88 5.88 0 0 0 0 11.756"/></svg>