<svg width="561" height="129" viewBox="0 0 561 129" fill="none" xmlns="http://www.w3.org/2000/svg"><path d="M366.635 55.473c-.28 0-.467.186-.561.373 0 .28.187.466.374.56.094 0 .561.092 1.31.092 2.057 0 6.172-.466 8.416-3.73 0-.093.094-.093.094-.186.374-1.678-.842-4.569-2.151-6.154-.842-1.025-1.683-1.491-2.432-1.491-.28 0-.467.186-.467.466s.187.466.467.466c.468 0 1.029.466 1.684 1.119 1.309 1.585 2.244 4.01 1.964 5.315-2.712 3.823-8.604 3.17-8.698 3.17z" fill="#000"/><path d="M559.853 61.347c-.093 0-7.949-1.585-29.459-1.585-15.337 0-31.797-2.798-41.617-4.383-4.208-.746-7.294-1.212-8.79-1.305-8.511-.373-12.158.466-14.403 1.212-1.122.373-2.618 1.399-4.115 2.424-1.496 1.026-3.086 2.145-4.395 2.704-.748.28-1.777.653-3.086 1.12-3.46 1.118-8.604 2.796-13.654 5.407-6.827 3.543-10.568 4.382-14.402 4.476-3.835.093-13.187-.373-13.28-.373-.187 0-.281.093-.374.186 0 0-2.712 3.45-3.835 4.476-1.215 1.212-2.431 4.569-2.992 6.433a24.149 24.149 0 0 0-.281 1.959c-.28 2.89-.748 7.832-4.021 8.671-2.338.56-4.115.56-5.331-.28-.935-.56-1.59-1.678-1.87-3.17-.655-3.45.187-10.163.935-12.588.374-1.212 1.309-2.61 2.338-4.009.748-1.026 1.496-2.144 2.057-3.263 1.59-3.264 1.871-5.315 1.871-5.968.28-.186.467-.28.467-.28.187-.093.281-.372.187-.652-.093-.187-.374-.28-.654-.187 0 0-1.123.56-3.367 2.89-1.777 1.866-4.583 3.171-6.172 3.917-.281.186-.561.28-.749.373-1.589.84-3.647 4.289-5.517 7.366-.655 1.119-1.216 2.144-1.684 2.797-.841 1.212-1.215 1.958-1.87 4.382l-.187.56c-.561 2.145-1.216 4.662-4.676 6.434-2.993 1.492-5.518-.373-6.453-1.212.561-.56 1.029-1.12 1.216-1.772.748-1.865 1.216-4.849 1.683-7.18.281-1.585.468-2.89.748-3.543.187-.56.468-1.305.842-2.33.842-2.145 1.964-5.036 2.712-7.833 1.029-3.823 1.122-3.916 4.021-6.527l.094-.093c.561-.093 1.029-.28 1.403-.373 1.496-.56 3.273-1.399 5.237-2.425 2.712-1.398 5.798-2.983 8.51-3.636 4.676-1.119 9.446-1.492 12.906-.84l.374.094c6.173 1.026 15.618 2.704 25.064 1.026 9.726-1.772 11.222-5.688 11.222-5.781.094-.28 0-.466-.28-.56-.281-.093-.468 0-.561.28 0 0-1.403 3.543-10.568 5.222-9.259 1.678-18.517.093-24.69-1.026l-.374-.093c-3.647-.653-8.417-.28-13.28.839-2.805.653-5.985 2.238-8.697 3.73-1.871.932-3.647 1.864-5.05 2.33-3.835 1.306-14.122 1.679-18.237-1.398-4.208-3.077-3.928-7.18-3.179-9.138.654-1.585 4.395-2.704 8.697-3.916.748-.28 1.59-.466 2.431-.746 4.583-1.398 9.446-2.237 12.626-2.89.748-.093 1.403-.28 1.964-.373 1.964-.373 4.863-1.492 7.481-3.077 0 0 .094 0 .094-.093 1.216-.746 2.338-1.492 3.273-2.331 2.151-1.959 4.208-3.17 6.734-4.663.841-.466 1.683-1.025 2.618-1.678 2.899-1.865 3.367-2.61 3.834-3.73.094-.28.188-.466.375-.745.093-.187 0-.467-.187-.653-.188-.093-.468 0-.655.186-.187.28-.281.56-.374.84-.374.839-.655 1.491-3.46 3.263-.936.56-1.777 1.119-2.619 1.678-2.525 1.492-4.583 2.798-6.827 4.849-.842.746-1.87 1.492-2.806 2.144-6.266-5.687-8.697-12.96-8.697-13.053-.094-.28-.374-.373-.561-.28-.281.093-.374.373-.281.56.094.28 2.432 7.459 8.791 13.24-2.431 1.398-4.956 2.33-6.733 2.704-.561.093-1.216.28-1.964.373-2.245.373-5.331 1.025-8.604 1.771 2.993-1.958 5.611-4.196 6.453-4.942.654.467 1.309.746 1.777.933h.093c.187 0 .374-.093.468-.373.093-.28-.094-.466-.281-.56-1.122-.373-3.273-1.864-5.05-3.822-.374-.373-.748-.84-1.122-1.213-1.309-1.492-2.525-2.797-4.489-3.263-1.777-.466-4.957-1.678-7.762-2.704-.748-.28-1.497-.56-2.151-.84l-.842-.279c-2.619-1.026-4.115-1.492-6.079-1.585-1.59 0-4.956-.466-7.762-.84a83.288 83.288 0 0 1-2.338-.279c-1.496-.186-2.806-.093-4.395-.093a55.62 55.62 0 0 1-6.921 0c-4.957-.187-9.633-1.958-11.41-4.196-.654-.746-.935-1.585-.748-2.518.468-2.89 3.554-3.45 7.014-4.102l2.806-.56c3.18-.745 5.518-.652 7.575-.56.748 0 1.403.094 2.151.094.842 0 1.964-.28 3.46-.56 2.993-.559 7.108-1.398 11.223-.838 4.115.466 9.258 2.05 12.999 3.077 1.777.559 3.367 1.025 4.396 1.212 1.87.373 3.553.466 5.424.466 1.403 0 2.993 0 4.956.186 1.123.094 2.151.187 3.274.373 3.46.373 6.733.746 10.567.56 2.806-.187 7.202-1.026 11.878-1.958 5.611-1.12 11.409-2.238 15.43-2.425 4.396-.186 9.633.933 14.309 1.865 3.273.653 6.36 1.306 8.791 1.399 3.46.186 6.921-.56 10.007-1.212 2.244-.466 4.115-.84 5.705-.84 1.776 0 3.927.187 6.359.373 2.525.187 5.424.467 8.791.56 1.029 0 2.899 0 5.705-.187 10.567-.466 35.35-1.398 72.384 1.679.281 0 .468-.187.468-.466 0-.28-.187-.467-.468-.467-37.127-3.076-61.91-2.05-72.478-1.678-2.806.093-4.676.187-5.705.187-3.273-.094-6.172-.373-8.697-.56-2.432-.186-4.583-.373-6.453-.373h-.094c-1.589 0-3.553.373-5.798.933-2.992.652-6.453 1.305-9.726 1.212-2.338-.094-5.424-.746-8.697-1.399-4.676-.932-10.007-2.051-14.59-1.865-4.114.187-10.006 1.306-15.617 2.425-4.677.932-9.072 1.771-11.784 1.958-3.741.186-7.014-.187-10.474-.56-1.123-.093-2.151-.28-3.274-.373-1.964-.186-3.553-.186-4.956-.186-1.964 0-3.46-.094-5.237-.466-1.029-.187-2.525-.653-4.396-1.213-3.741-1.118-8.978-2.61-13.186-3.17-4.209-.56-8.417.28-11.503.84-1.403.279-2.525.466-3.273.466-.655 0-1.31 0-2.058-.094-1.964-.093-4.489-.186-7.856.56l-2.805.56c-3.648.652-7.108 1.305-7.762 4.848-.187 1.119.093 2.237.935 3.263 2.244 2.797 7.855 4.29 12.157 4.476 3.274.186 5.331 0 7.014 0a31.715 31.715 0 0 1 4.209 0c.748.093 1.496.186 2.338.28 2.899.372 6.266.839 7.856.839 1.777.093 3.086.56 5.704 1.492l.842.28c.655.279 1.403.559 2.151.838 2.806 1.026 5.985 2.238 7.856 2.798 1.683.466 2.712 1.585 4.021 2.983.374.373.748.746 1.122 1.212.936.933 1.964 1.865 2.9 2.518-1.31 1.026-5.144 4.196-8.698 6.247-.374.093-.842.187-1.216.373-.841.28-1.589.466-2.431.746-4.77 1.399-8.511 2.518-9.352 4.476-.935 2.237-1.216 6.806 3.46 10.256.374.28.935.56 1.403.84-.187.652-1.029 4.568-2.058 6.713-1.122 2.424-2.151 4.569-2.151 9.79 0 1.585-.187 3.357-.467 5.128-.468 4.103-.935 8.02 1.029 9.604.841.653 2.057 1.026 3.46 1.026.654 0 1.403-.093 2.151-.28.841-.28 1.683-.56 2.338-1.026.654.653 2.618 2.052 4.956 2.052.842 0 1.684-.187 2.619-.653 3.834-1.958 4.582-4.755 5.144-6.993l.093-.56c.561-2.237.935-2.89 1.777-4.102.468-.653 1.029-1.678 1.777-2.797 1.59-2.611 3.741-6.247 5.144-6.993.187-.094.374-.187.654-.373 1.59-.746 4.489-2.145 6.453-4.103.655-.653 1.122-1.119 1.59-1.492-.187.933-.561 2.518-1.683 4.662-.562 1.12-1.31 2.145-1.964 3.17-1.029 1.492-1.964 2.89-2.432 4.29-.748 2.33-1.683 9.324-.935 12.96.374 1.772 1.122 2.984 2.338 3.73.842.56 1.87.746 3.086.746.935 0 1.87-.187 2.993-.467 3.834-1.025 4.395-6.34 4.676-9.51.093-.746.187-1.492.28-1.865.561-1.865 1.684-5.035 2.712-6.06 1.029-1.026 3.18-3.637 3.741-4.383 1.497.093 9.633.466 13.093.373 3.928-.093 7.762-.932 14.776-4.569 4.957-2.61 10.101-4.289 13.467-5.408 1.31-.466 2.432-.84 3.18-1.119 1.403-.56 3.086-1.678 4.583-2.797 1.496-1.026 2.899-2.051 3.927-2.331 2.151-.746 5.705-1.492 14.028-1.119 1.497.093 4.489.56 8.604 1.305 9.914 1.679 26.373 4.383 41.804 4.383 21.323 0 29.178 1.492 29.272 1.492.281.093.468-.094.561-.373.281 0 .094-.28 0 0zM367.388 90.624c-1.871.467-3.647.28-4.676-.559-1.497-1.212-1.122-5.035-.655-8.765.187-1.771.468-3.543.468-5.221 0-5.035.935-6.993 2.057-9.324.935-2.145 1.871-5.688 2.058-6.807 2.525.932 5.704 1.305 8.697 1.305 1.777 0 3.554-.093 5.05-.373-2.057 1.959-2.431 2.611-3.367 6.154-.748 2.704-1.87 5.595-2.712 7.74-.374 1.025-.748 1.771-.935 2.33-.28.746-.467 2.052-.748 3.637-.374 2.33-.935 5.221-1.59 6.993-.374 1.305-1.87 2.424-3.647 2.89z" fill="#000"/><path d="M382.071 43.165c-.187.093-.28.466-.187.653 0 0 1.123 1.771 1.31 3.73 0 .28.187.372.467.372h.094c.28 0 .467-.28.374-.559-.281-2.145-1.403-4.103-1.496-4.103-.094-.186-.375-.28-.562-.093zm-30.397 8.765c-.094 0-4.863-2.145-7.108-3.077-.467-.187-.748-.28-1.122-.467-1.309-.559-1.87-.745-4.115-.652-1.496.093-1.683 0-3.273-1.026-1.029-.652-2.619-1.585-5.237-2.89-6.921-3.543-8.885-6.62-12.719-13.24-4.021-6.994-6.64-10.816-18.33-15.572-8.884-3.636-22.258-3.823-39.559-.466-6.827 1.305-14.683 4.755-21.323 8.485-.561-.28-1.122-.466-1.59-.653-3.647-1.585-4.956-2.704-6.827-4.569l-.187-.186c-.467-.373-.841-.933-1.309-1.585-1.683-2.331-3.928-5.501-10.661-6.34-3.741-.467-7.482-.56-11.036-.747-4.489-.186-8.697-.28-12.719-1.118a284.579 284.579 0 0 1-8.323-1.958C178.38 3.91 167.532 1.299 158.835.46c-12.065-1.12-20.949-.56-33.2 5.78-2.899 1.492-5.144 2.704-7.108 3.823-2.992 1.679-5.424 2.984-8.697 4.476-1.122.466-3.741 1.492-7.201 2.704-6.547 2.424-15.525 5.688-20.107 8.019-13.187 6.993-45.638 20.7-46.012 20.886-11.223 5.128-17.676 8.578-22.82 11.375C9.109 60.042 5.46 62 .318 64.051c-.187.093-.374.373-.28.56.093.186.28.28.467.28h.187c5.144-2.145 8.791-4.103 13.467-6.528 5.144-2.797 11.597-6.247 22.726-11.375.28-.093 32.826-13.893 46.105-20.606 4.49-2.238 13.467-5.595 20.014-8.02 3.367-1.211 6.079-2.237 7.201-2.703 3.367-1.492 5.798-2.797 8.791-4.476 1.964-1.119 4.208-2.33 7.107-3.823 11.971-6.247 20.762-6.806 32.639-5.687 8.697.839 19.452 3.45 27.308 5.314 3.367.84 6.266 1.492 8.323 1.958 4.022.84 8.324.933 12.813 1.12 3.553.093 7.294.28 10.942.745 6.265.84 8.416 3.73 10.006 5.968.468.652.935 1.212 1.403 1.678l.187.187c.655.559 1.122 1.119 1.777 1.585-1.683-.746-3.273-1.585-4.582-2.611-2.526-2.051-5.331-2.238-8.885-2.61a48.613 48.613 0 0 1-4.676-.56c-6.079-.933-16.366-3.264-16.46-3.264-.28-.093-.467.094-.561.373-.093.28.094.466.374.56.094 0 10.381 2.33 16.46 3.263 1.777.28 3.367.466 4.77.56 3.553.372 6.078.559 8.416 2.424 2.432 1.958 5.799 3.263 8.791 4.382.936.373 1.777.653 2.525 1.026.094 0 .094 0 .187.093-3.273 1.958-6.172 3.916-8.603 5.781-5.144 4.103-8.604 6.9-11.597 9.51a18.488 18.488 0 0 1-1.403-.28c.374-.372.842-.745 1.216-1.118a.45.45 0 0 0 0-.653.454.454 0 0 0-.655 0c-6.172 5.688-11.222 8.206-12.718 8.952-.936-3.544-2.339-7.273-5.425-10.257a.452.452 0 0 0-.654 0 .45.45 0 0 0 0 .653c4.115 4.009 5.143 9.324 6.079 13.893.28 1.212.467 2.424.748 3.543v.093c.748 2.704 1.683 5.035 3.647 6.62 2.806 1.958 6.172 4.662 10.1 11.376 2.806 4.848 5.05 17.343.468 20.792-.655.467-1.403.653-2.245.56-2.431-.28-5.33-2.797-7.014-5.035-1.028-1.399-1.777-2.424-2.431-3.45-.748-1.026-1.31-1.958-2.058-2.797.281-1.026 1.871-5.875 8.417-6.62.655-.094 1.216.186 1.496.559 4.209 5.874 4.302 9.977 4.302 9.977 0 .28.187.466.468.466s.468-.186.468-.466c0-.187-.094-4.383-4.396-10.536-.467-.746-1.403-1.12-2.338-.933-6.266.746-8.417 4.942-8.978 6.713-1.029-1.025-2.244-2.144-4.208-3.543a60.978 60.978 0 0 1-5.424-4.569c-3.461-3.076-7.108-6.247-11.784-8.391-7.108-3.17-20.388-14.266-24.689-19.208-2.713-3.077-4.583-7.366-6.079-10.723-1.029-2.33-1.964-4.382-2.899-5.5-2.525-3.171-7.014-3.078-11.129-2.891-.281 0-.468.28-.468.466 0 .28.187.466.468.466 4.769-.28 8.323 0 10.287 2.517.842 1.026 1.777 3.077 2.712 5.315 1.029 2.331 2.338 5.129 3.834 7.646-8.884-1.585-25.531 8.672-38.25 17.716-18.517 13.24-41.055 27.04-66.867 41.026-15.992 8.672-24.409 12.681-34.228 17.343-4.676 2.238-9.633 4.569-15.805 7.646-.187.093-.28.373-.187.652.093.187.28.28.374.28.093 0 .187 0 .187-.093a708.277 708.277 0 0 1 15.805-7.646c9.82-4.662 18.33-8.671 34.322-17.343 25.905-13.986 48.35-27.786 66.961-41.12 10.661-7.645 29.833-19.953 38.436-17.342a18.268 18.268 0 0 0 1.59 2.145c4.396 5.128 17.676 16.224 24.97 19.487 4.583 2.051 8.043 5.221 11.503 8.205.187.093.281.28.468.373l-.374.933c-6.921 15.85-6.172 28.065-4.396 35.524 1.029 4.29 2.432 8.019 3.367 10.443.468 1.119.748 2.052.935 2.518.374 1.492.936 2.424.936 2.424.093.094.187.187.28.187 0 0 1.122.279 1.871.373.374.093.935.559 1.215.839a.719.719 0 0 0 .468.186c.28-.093 1.216-.279 1.777-.093.748.187 3.086.839 3.086.839h.093c.094 0 .281-.093.375-.186.093-.093 3.273-3.45 5.143-7.087 1.216-2.331 3.18-6.433 5.05-10.349 1.029-2.238 2.058-4.289 2.806-5.874a2522.305 2522.305 0 0 1 5.985-12.308c2.993-6.061 6.64-11.655 10.755-16.597 1.029 4.569 4.021 6.154 6.36 6.154h.187c1.683-.094 2.899-.933 2.992-2.052.281-3.73 0-7.18-.28-9.417 1.87 3.357 2.338 4.755 2.712 7.739.748 5.501 2.712 8.578 5.892 8.951.28 0 .561.093.841.093 1.029 0 1.777-.28 2.245-.746 1.028-1.025.841-2.703.654-3.543 0-.186 0-.28-.093-.466 1.309 1.958 2.712 3.73 4.302 4.29.748.279 1.496.465 2.151.465a4.602 4.602 0 0 0 2.805-.932c.842-.746 1.216-1.865.842-3.077-.281-1.026-.655-1.958-1.029-2.89a121.06 121.06 0 0 1-1.122-3.17 48.371 48.371 0 0 1-.561-3.078c-.374-2.144-.748-4.848-1.683-7.645-.187-.653-.374-1.399-.655-2.238-.655-2.145-1.496-5.035-2.525-7.833.935-.466 1.777-.839 2.712-1.305.187.187.468.373.655.56 3.273 2.424 4.489 4.289 5.611 5.874 1.59 2.33 4.863 6.154 9.165 6.154h.748c2.712-.28 3.834-1.399 4.302-2.238.468-1.026.374-2.331-.281-3.45-.28-.466-.841-1.305-1.402-2.238-1.123-1.771-2.619-4.01-3.18-5.221-.187-.467-.374-1.026-.561-1.492-.281-.84-.655-1.678-1.122-2.61.654-.187 1.215-.28 1.87-.467l.561-.093c.187 0 16.647-1.399 27.869-1.679 11.316-.186 18.798 3.45 23.006 6.62 3.18 2.332 4.863 4.01 5.705 4.756.374.28.561.466.655.652.561.373 1.964.094 2.805-.093 0-.093 0-.373.094-.56 0-.093 0-.279.093-.372.094-.84.281-1.865.468-2.331.187-.467.561-.653.935-.933.468-.373 1.029-.746 1.496-1.678l.562-1.119c.561-1.119.935-1.865 1.963-1.865.468 0 2.806 0 4.115.84.187.093.281.372.187.652-.093.187-.467.28-.654.187-.842-.467-2.432-.746-3.648-.746-.467 0-.654.28-1.122 1.398l-.561 1.12c-.561 1.118-1.309 1.584-1.777 1.957-.28.187-.561.373-.654.56-.094.28-.281 1.119-.374 1.771 0 .187 0 .373-.094.466 0 .187 0 .28-.094.467.188 0 .562 0 .936.093.561.093 1.309.093 2.431.093h.187c1.964 0 4.302.933 5.892 1.492.374.093.655.28.935.373.561.186 1.216.093 1.777-.28.748-.56 1.309-1.678 1.309-2.33 0-.653.094-2.238.281-2.984.187-.84-.187-3.637-.187-3.917.281-.466.187-.559 0-.652zm-120.361-4.85c30.955-23.03 65.558-23.87 81.082-11.375.187.186.187.466.094.652-.187.187-.468.187-.655.094-12.906-10.35-46.199-13.707-79.96 11.375-6.266 4.662-11.783 10.536-16.553 17.53-.187-.28-.374-.467-.655-.746 4.863-6.994 10.381-12.868 16.647-17.53zm-28.711 78.696c-.093 0-1.496-.093-2.899-.933-1.122-.652-2.525-.279-2.525-.279-.281.093-.468-.094-.561-.28-.094-.28.093-.466.28-.56.094 0 1.777-.466 3.274.373 1.215.653 2.431.84 2.525.84.28 0 .467.279.467.466-.093.186-.28.373-.561.373zm-3.554-16.784c-.467 6.62 0 10.91 0 11.003 0 .28-.187.466-.374.466h-.093c-.281 0-.468-.186-.468-.373 0 0-.467-4.476 0-11.096 0-.093.561-11.375 6.173-25.361.093-.28.374-.373.654-.28.281.093.374.373.281.653-5.611 13.8-6.173 24.802-6.173 24.988zm16.273-69.464c.187 0 .655.186 1.403.28-1.029.932-2.058 1.77-3.086 2.703-2.619 2.238-5.331 5.502-8.137 10.07-.187-.839-.374-1.585-.561-2.517-.187-1.026-.467-2.145-.654-3.17 1.215-.653 5.517-2.704 11.035-7.366zm27.402 40.28c-.094.653-1.029 1.212-2.151 1.212-2.151.093-4.957-1.492-5.799-6.06v-.094a83.68 83.68 0 0 1 6.921-7.18l.28.56c.187.746 1.123 5.78.749 11.562zm12.157 3.263c.094 1.026.187 2.145-.467 2.797-.468.467-1.216.653-2.338.467-2.713-.373-4.396-3.077-5.051-8.112-.467-3.637-1.028-5.129-3.927-9.977-.187-.373-.374-.746-.655-1.026a51.406 51.406 0 0 1 3.46-2.89c2.712 6.154 4.209 8.858 6.173 12.028a32.839 32.839 0 0 1 1.496 2.61c.187.374.467.747.655 1.213.093.186.467 1.585.654 2.89zm5.144-18.648c.28.84.467 1.585.654 2.238.842 2.704 1.31 5.408 1.59 7.46a70.58 70.58 0 0 0 .561 3.17c.281 1.212.749 2.237 1.123 3.263.374.932.748 1.865.935 2.797.187.84 0 1.585-.561 2.145-.935.839-2.525.932-4.022.373-2.151-.84-4.208-4.383-5.985-7.46-.561-.932-1.029-1.865-1.496-2.61-1.964-3.17-3.461-5.968-6.266-12.122a83.61 83.61 0 0 1 10.942-6.993c1.028 2.797 1.87 5.594 2.525 7.739zm15.244-11.189c.187.56.374 1.026.654 1.585.561 1.306 2.058 3.543 3.274 5.315.561.932 1.122 1.678 1.402 2.145.561.932.655 1.864.281 2.61-.468.933-1.683 1.492-3.554 1.679-4.115.466-7.388-3.45-8.978-5.781-1.403-1.958-2.618-3.73-5.798-6.061-.094-.093-.187-.186-.281-.186 3.835-1.679 7.763-2.984 11.877-4.01.468.933.749 1.865 1.123 2.704zm70.14.56c.094 0 2.712.28 3.554.466.28 0 .467.28.374.56 0 .186-.281.372-.468.372h-.093c-.842-.093-3.46-.466-3.554-.466-.281 0-.468-.28-.374-.56.093-.186.281-.373.561-.373zm-3.554 2.424c.187 0 4.115-.28 6.547.746.28.093.374.373.28.652a.513.513 0 0 1-.467.28h-.187c-2.245-.932-6.079-.652-6.173-.652-.28 0-.467-.187-.467-.467 0-.373.187-.56.467-.56z" fill="#000"/><path d="M91.405 36.08l-.655 7.459c-.374 4.196-1.029 8.112-4.957 10.63-1.122.745-2.057 1.025-2.712.652-.748-.373-.935-1.492-.935-1.865 0-.28-.28-.466-.468-.466-.28 0-.467.186-.467.466 0 .093.094 1.958 1.403 2.704.28.187.654.28 1.028.28.749 0 1.59-.28 2.619-.933 4.209-2.704 4.957-7.086 5.33-11.282l.655-7.46c0-.279-.187-.465-.467-.465-.187-.187-.374 0-.374.28z" fill="#000"/><path d="M97.485 30.577c-.28 0-.467.187-.467.466 0 .467-.655 1.212-2.245 1.865s-7.014 3.357-10.848 5.968c-3.741 2.517-3.647 4.848-3.647 6.154v.28c0 .838.56 2.61 1.87 3.356.468.28 1.122.466 1.683.466.842 0 1.777-.28 2.806-.839 1.31-.746 2.15-1.678 2.525-2.89.655-2.331-.748-4.663-.842-4.849-.093-.187-.467-.28-.654-.187-.187.094-.28.373-.187.653 0 0 1.215 2.145.748 4.103-.28.932-.935 1.771-2.058 2.33-1.496.747-2.712.933-3.553.374-1.123-.653-1.403-2.051-1.497-2.611v-.373c-.093-1.212-.093-3.17 3.18-5.408 3.834-2.517 9.165-5.221 10.755-5.874 1.683-.746 2.712-1.678 2.805-2.704.094 0-.093-.187-.374-.28zm2.249 16.598c-1.122.746-1.777.746-1.87.653 0 0-.094-.094-.094-.187 0-.28-.187-.466-.468-.466-.28 0-.467.186-.467.466 0 .653.28.932.561 1.026.187.093.374.186.655.186.56 0 1.309-.28 2.244-.84 1.216-.745 2.712-3.542 2.619-5.78-.094-1.305-.561-2.238-1.497-2.704-1.683-.84-3.18-.187-4.115.653l.375-4.196-.936-.093-1.776 19.3c-.281 2.798-.655 3.544-.655 3.544a.49.49 0 0 0 .187.652c.093 0 .187.094.28.094.188 0 .281-.094.374-.187.094-.093.562-.932.842-4.01l1.216-13.613c.28-.466 1.777-2.424 3.834-1.398.655.373 1.029.932 1.029 1.865-.093 1.958-1.309 4.382-2.338 5.035zm11.405-13.615l-.935-.092-.094.839a3.99 3.99 0 0 0-1.59-.373c-.841.093-1.59.56-2.151 1.492-1.777 2.517-2.151 5.594-1.777 7.552.187.746.749 1.212 1.497 1.305h.28c1.123 0 2.619-.745 3.648-2.33.187.186.28.186.374.28.187.093.28.093.467.093.468 0 1.029-.28 1.497-.84.654-.746 1.028-1.864 1.309-2.61.093.28.28.652.467.839.375.466.936.746 1.497.746h.187a4.89 4.89 0 0 0 1.87-.653l-.654 7.366c0 .28.187.466.467.466.281 0 .468-.186.468-.466l.841-9.23c.375.186.749.279 1.029.279h.374c1.59-.28 3.086-2.145 3.554-3.636.281-1.026 1.871-5.968-.655-7.367-1.309-.745-2.618 0-3.46.746l.374-3.916c0-.28-.187-.466-.467-.466-.281 0-.468.186-.468.466l-.561 5.874c-1.122 0-3.741.28-4.77 3.637-.467 1.585-.654 2.983-.467 4.196-.187 0-.374.093-.468.373 0 0-.561 1.864-1.309 2.797-.281.373-.655.466-.842.466-.187-.093-.28-.466-.28-.932l.748-6.9zm11.596-5.314c1.497.84.842 4.29.187 6.247-.374 1.212-1.683 2.797-2.899 2.984-.467.093-.841-.093-1.216-.466l.655-7.366c.468-.373 1.964-2.145 3.273-1.399zm-8.042 5.688c.841-2.704 2.899-2.984 3.74-2.984l-.561 6.247-.093 1.492c-.281.28-1.029.932-2.058 1.026-.28 0-.561-.094-.841-.467-.655-.745-1.029-2.517-.187-5.314zm-8.511 9.417c-.374-.093-.654-.28-.748-.653-.374-1.678 0-4.475 1.59-6.806.468-.653.935-1.026 1.496-1.026.655-.093 1.216.28 1.403.466l-.468 5.129v.466c-.748 1.771-2.244 2.517-3.273 2.424zm371.091-4.755c-.281-.093-.468.093-.561.373-.094.28.093.466.374.56 0 0 2.806.559 5.518.932.561.093 1.122.093 1.683.186.374 0 .935.093 1.683.093 2.151 0 5.05-.466 5.425-3.543.187-1.305-.187-2.424-.936-3.356-.374-.373-.841-.746-1.309-.933.935-.466 1.683-1.305 1.777-2.983.093-1.4-.187-2.425-.842-3.264-1.028-1.212-2.805-1.399-4.115-1.492-2.151-.093-4.956.093-6.172.187v-.56c0-.28-.187-.466-.468-.466-.187 0-.467.187-.467.466l-.561 6.527c-.281 0-.468.093-.561.373-.094.28.093.466.374.56h.093l-.561 6.433a.97.97 0 0 1-.374-.093zm9.913-5.128c.748 0 1.871.28 2.619 1.119.561.652.841 1.491.748 2.61-.281 2.145-2.151 2.984-6.079 2.611-.374 0-.842-.093-1.216-.093l.748-6.34c.749.093 1.403.186 1.871.186h.654c.094-.093.375-.187.655-.093-.093-.094 0 0 0 0zm2.245-6.154c.467.56.654 1.398.561 2.517-.187 2.331-1.684 2.518-3.554 2.611h-.561c-.374 0-1.029-.093-1.871-.186l.749-6.248h1.215c1.777.28 2.806.653 3.461 1.306zm-5.612-1.212l-.748 6.06c-1.309-.186-2.712-.466-3.741-.652l.468-5.129c.748-.093 2.338-.186 4.021-.28zm23.662 2.704c.28 0 .467-.187.561-.373l.187-1.119c0-.093 0-.28-.094-.373-.093-.093-.187-.186-.28-.186l-13.093-1.306c-.281 0-.468.187-.468.373 0 .28.187.466.374.466h.468l-.468 5.781c-.187 0-.374.187-.467.373 0 .28.093.466.374.466l-.561 7.087h-.375c-.28 0-.467.186-.467.466s.187.466.467.466l13.28.933c.094 0 .281-.094.375-.187.093-.093.187-.28.093-.373l-.093-1.025c0-.28-.281-.467-.562-.373-.28 0-.467.28-.374.56l.094.372-6.266-.466.561-6.714 3.367.467h.093c.187 0 .468-.187.468-.373 0-.28-.187-.466-.374-.56l-3.46-.466.467-5.967 6.173.652-.094.56c-.374.56-.187.839.094.839zm-7.95 4.102l-4.115-.559.468-5.78 4.208.465-.561 5.874zm12.155 8.579c-.28 0-.467.186-.467.466s.187.466.467.466c0 0 3.367.187 5.612.373.561 0 1.028.093 1.402.093.281 0 .562.093.936.093 1.496 0 3.647-.373 4.956-1.585.842-.746 1.31-1.678 1.216-2.797 0-4.01-2.712-4.755-5.518-4.942-.561 0-1.216-.093-1.87-.093l.374-5.128 5.331.186.093.373c0 .187.187.373.468.373h.093c.281 0 .468-.28.374-.56l-.093-.745c0-.187-.187-.373-.468-.373l-12.064-.466c-.281 0-.468.186-.468.466s.187.466.468.466h.187l-.28 5.222h-.094c-.281 0-.468.186-.468.466s.187.466.468.466h.094l-.375 7.086c-.28.094-.374.094-.374.094zm8.417-6.9c2.993.186 4.676.932 4.676 4.01 0 .838-.28 1.584-.935 2.144-1.309 1.212-3.834 1.492-5.144 1.305-.28 0-.561-.093-.935-.093l.468-7.366a6.273 6.273 0 0 1 1.87 0zm-2.338-6.247l-.374 5.128c-1.59 0-3.086-.093-4.021-.093l.28-5.222 4.115.187z" fill="#000"/></svg>