<svg width="1243" height="767" viewBox="0 0 1243 767" fill="none" xmlns="http://www.w3.org/2000/svg">
<g clip-path="url(#clip0)">
<path d="M518.859 568.727C517.585 568.568 516.471 569.523 516.312 570.797C516.312 571.434 516.471 572.07 516.789 572.548C517.107 573.025 517.744 573.344 518.381 573.344C518.54 573.344 518.54 573.344 518.699 573.344C519.177 573.344 519.814 573.185 520.132 572.866C520.61 572.548 520.928 571.911 520.928 571.274C520.928 570.638 520.769 570.001 520.45 569.523C519.973 569.205 519.495 568.887 518.859 568.727ZM519.018 571.752C518.859 571.911 518.699 571.911 518.54 571.911C518.063 571.911 517.903 571.434 517.903 571.115C517.903 570.797 518.222 570.478 518.699 570.478C519.177 570.478 519.336 570.956 519.336 571.274C519.336 571.434 519.177 571.593 519.018 571.752Z" fill="black"/>
<path d="M598.293 648.323C598.453 648.323 598.453 648.323 598.293 648.323C598.453 648.323 601.955 647.845 607.049 647.367C609.596 649.437 612.302 651.825 613.894 654.053C614.053 654.212 614.371 654.372 614.531 654.372C614.69 654.372 614.849 654.372 615.008 654.213C615.327 653.894 615.486 653.417 615.167 653.098C613.735 651.188 611.506 648.959 609.277 647.208C612.302 647.049 615.645 646.89 619.147 647.049C620.261 649.118 620.421 650.551 620.421 650.551C620.421 650.87 620.898 651.188 621.217 651.188H621.376C621.853 651.188 622.172 650.71 622.013 650.233C622.013 650.074 621.694 648.959 620.898 647.049C621.694 647.049 622.49 647.049 623.286 647.208C623.764 647.208 624.082 646.89 624.082 646.412C624.082 645.935 623.764 645.616 623.286 645.616C622.172 645.616 621.057 645.457 619.943 645.457C619.147 643.865 617.874 641.955 616.123 639.886C615.645 639.408 615.327 638.93 615.008 638.612C617.714 638.294 620.58 637.975 623.286 637.816C626.47 642.273 626.947 643.865 626.947 643.865C627.107 644.184 627.425 644.502 627.743 644.502H627.903C628.38 644.343 628.539 644.024 628.539 643.547C628.539 643.388 628.062 641.796 625.196 637.816C625.992 637.816 626.788 637.816 627.425 637.816C627.743 637.816 628.221 637.498 628.221 637.02C628.221 636.543 627.903 636.224 627.425 636.224C626.311 636.224 625.196 636.224 623.923 636.224C623.127 635.11 622.331 633.996 621.217 632.722C620.421 631.767 619.784 630.971 618.988 630.334C621.853 629.857 624.878 629.379 627.743 629.379C629.335 631.608 630.768 633.996 631.564 636.383C631.723 636.702 632.041 636.861 632.36 636.861C632.519 636.861 632.519 636.861 632.678 636.861C633.156 636.702 633.315 636.224 633.156 635.906C632.36 633.836 631.245 631.608 629.813 629.538C631.086 629.697 632.36 629.857 633.474 630.175C633.952 630.334 634.27 630.016 634.429 629.697C634.588 629.22 634.27 628.901 633.952 628.742C632.36 628.265 630.609 628.106 628.698 627.946C627.266 626.036 625.833 624.285 624.56 622.852C631.405 621.738 635.544 622.693 637.931 623.807C638.25 623.967 638.727 623.807 639.046 623.489C639.205 623.171 639.046 622.693 638.727 622.375C634.907 620.464 629.813 620.146 623.286 621.42C621.694 619.669 620.58 618.554 620.421 618.395C620.102 618.077 619.625 618.077 619.306 618.395C618.988 618.713 618.988 619.191 619.306 619.509C619.306 619.509 620.261 620.305 621.535 621.738C619.625 622.216 617.714 622.693 615.645 623.33C615.327 623.489 615.167 623.489 615.008 623.489C614.69 623.489 614.371 623.807 614.371 624.285C614.371 624.763 614.69 625.081 615.167 625.081C615.327 625.081 615.486 625.081 616.123 624.763C618.51 623.967 620.739 623.33 622.649 623.011C623.923 624.285 625.196 626.036 626.629 627.787C623.445 627.946 620.261 628.424 617.555 628.901C612.78 624.922 609.437 625.718 609.277 625.877C608.8 626.036 608.641 626.354 608.8 626.832C608.959 627.31 609.277 627.469 609.755 627.469C609.755 627.469 612.143 626.991 615.645 629.379C612.78 630.016 610.869 630.653 610.551 630.653C610.073 630.812 609.914 631.289 610.073 631.608C610.233 631.926 610.551 632.244 610.869 632.244H611.029C611.029 632.244 613.735 631.449 617.237 630.812C618.192 631.608 619.147 632.563 620.102 633.836C620.898 634.791 621.535 635.587 622.172 636.543C619.306 636.702 616.282 637.02 613.576 637.498C609.755 634.155 606.89 633.677 606.73 633.677C606.253 633.677 605.934 633.836 605.775 634.314C605.775 634.791 605.934 635.11 606.412 635.269C606.412 635.269 608.482 635.587 611.347 637.816C608.163 638.294 605.775 638.771 605.457 638.771C604.979 638.93 604.661 639.249 604.82 639.726C604.82 640.045 605.298 640.363 605.616 640.363H605.775C605.775 640.363 608.959 639.726 612.939 639.249C613.576 639.885 614.212 640.522 614.849 641.318C616.282 642.91 617.237 644.502 618.033 645.775C614.212 645.775 610.392 645.935 607.208 646.094C604.183 643.706 601.318 641.955 601.159 641.796C600.84 641.637 600.363 641.637 600.045 642.114C599.885 642.433 599.885 642.91 600.363 643.228C600.363 643.228 602.432 644.502 604.82 646.412C600.681 646.731 597.975 647.208 597.816 647.208C597.338 647.208 597.02 647.686 597.179 648.163C597.657 648.004 597.975 648.323 598.293 648.323Z" fill="black"/>
<path d="M676.932 477.513C677.887 477.513 678.843 477.513 679.798 477.513C680.275 477.513 680.594 477.194 680.594 476.717C680.594 476.239 680.275 475.921 679.798 475.921C668.973 476.398 667.54 474.17 667.381 474.011C667.222 473.692 666.903 473.374 666.426 473.533C665.948 473.692 665.789 474.011 665.789 474.488C665.948 474.966 667.063 477.513 676.932 477.513Z" fill="black"/>
<path d="M862.705 559.974C863.182 559.974 863.501 559.655 863.501 559.178C863.501 558.7 863.023 558.382 862.705 558.382C778.653 560.77 712.59 551.855 711.794 551.696C711.316 551.696 710.998 552.014 710.839 552.333C710.839 552.81 711.157 553.128 711.476 553.288C712.112 553.288 763.69 560.292 833.892 560.292C843.284 560.292 852.994 560.292 862.705 559.974Z" fill="black"/>
<path d="M921.128 570.32C887.54 573.186 811.288 575.414 810.492 575.414C810.015 575.414 809.696 575.733 809.696 576.21C809.696 576.688 810.015 577.006 810.492 577.006C811.288 577.006 887.54 574.778 921.128 571.912C921.606 571.912 921.924 571.435 921.924 571.116C921.924 570.639 921.447 570.32 921.128 570.32Z" fill="black"/>
<path d="M978.754 676.021C978.435 675.703 977.958 675.703 977.639 676.021C977.321 676.34 977.321 676.817 977.639 677.136L978.276 677.773C978.435 677.932 978.594 678.091 978.913 678.091C979.072 678.091 979.231 678.091 979.39 677.932C979.709 677.613 979.709 677.136 979.39 676.817L978.754 676.021Z" fill="black"/>
<path d="M985.919 669.336C985.6 669.018 985.123 669.018 984.804 669.336C984.486 669.654 984.486 670.132 984.804 670.45L985.441 671.087C985.6 671.246 985.759 671.405 986.078 671.405C986.237 671.405 986.396 671.405 986.555 671.246C986.874 670.928 986.874 670.45 986.555 670.132L985.919 669.336Z" fill="black"/>
<path d="M990.852 642.114C990.534 641.796 990.056 641.955 989.738 642.274C989.42 642.592 989.579 643.07 989.897 643.388L990.534 643.866C990.693 644.025 990.852 644.025 991.011 644.025C991.33 644.025 991.489 643.866 991.648 643.706C991.967 643.388 991.807 642.91 991.489 642.592L990.852 642.114Z" fill="black"/>
<path d="M983.528 682.547C983.21 682.229 982.732 682.229 982.414 682.547C982.095 682.866 982.095 683.343 982.414 683.662L983.05 684.298C983.21 684.458 983.369 684.458 983.687 684.458C983.846 684.458 984.165 684.458 984.324 684.298C984.642 683.98 984.642 683.502 984.324 683.184L983.528 682.547Z" fill="black"/>
<path d="M991.33 675.861C991.011 675.542 990.534 675.542 990.215 675.861C989.897 676.179 989.897 676.657 990.215 676.975L990.852 677.612C991.011 677.771 991.171 677.771 991.489 677.771C991.648 677.771 991.966 677.771 992.126 677.612C992.444 677.294 992.444 676.816 992.126 676.498L991.33 675.861Z" fill="black"/>
<path d="M997.697 680.001C997.379 679.682 996.901 679.842 996.583 680.16C996.264 680.478 996.424 680.956 996.742 681.274L997.379 681.752C997.538 681.911 997.697 681.911 997.856 681.911C998.175 681.911 998.334 681.752 998.493 681.593C998.811 681.274 998.652 680.797 998.334 680.478L997.697 680.001Z" fill="black"/>
<path d="M990.055 685.573C989.737 685.255 989.259 685.414 988.941 685.732C988.623 686.051 988.782 686.528 989.1 686.846L989.737 687.324C989.896 687.483 990.055 687.483 990.215 687.483C990.533 687.483 990.692 687.324 990.851 687.165C991.17 686.846 991.011 686.369 990.692 686.051L990.055 685.573Z" fill="black"/>
<path d="M1000.88 665.514C999.926 665.196 999.448 664.241 999.448 664.241C999.289 663.922 998.812 663.763 998.334 663.922C998.016 664.081 997.856 664.559 998.016 665.037C998.016 665.037 998.812 666.469 1000.4 667.106C1000.56 667.106 1000.56 667.106 1000.72 667.106C1001.04 667.106 1001.36 666.947 1001.52 666.629C1001.52 666.151 1001.2 665.673 1000.88 665.514Z" fill="black"/>
<path d="M1008.21 669.494L1006.29 669.176C1005.82 669.176 1005.5 669.335 1005.34 669.813C1005.34 670.29 1005.5 670.608 1005.98 670.768L1007.89 671.086H1008.05C1008.36 671.086 1008.84 670.768 1008.84 670.449C1009 669.972 1008.68 669.494 1008.21 669.494Z" fill="black"/>
<path d="M1069.65 544.213C1068.54 541.507 1054.37 508.077 1047.52 496.934C1050.39 491.999 1050.23 487.86 1050.23 487.701C1050.23 487.542 1050.23 487.382 1050.07 487.382C1049.91 487.064 1034.31 461.275 1030.97 454.112C1028.9 449.973 1025.87 447.426 1023.33 445.357C1021.42 443.765 1019.67 442.491 1019.03 440.74C1017.28 435.964 1014.57 431.189 1007.09 423.866C1000.09 417.021 991.49 414.633 989.102 413.996C989.102 413.678 988.943 413.041 988.783 412.245C990.375 411.609 992.126 410.494 993.241 408.425C994.037 407.151 994.514 406.037 994.832 404.923C995.469 403.172 996.106 401.898 997.539 400.784C1000.24 399.033 1002.16 396.167 1003.11 392.028C1003.43 390.914 1004.07 389.64 1004.7 388.208C1006.13 385.342 1007.73 381.999 1007.09 378.816C1007.09 378.656 1007.09 378.656 1006.93 378.497C1007.09 376.269 1007.09 374.199 1008.05 371.175C1009.48 367.036 1010.27 360.35 1009.64 355.574C1009 351.117 1010.91 345.864 1006.13 340.61C1005.82 340.292 1005.66 339.655 1005.82 339.178C1006.13 338.223 1006.13 337.427 1006.13 336.471C1006.13 334.243 1005.5 332.173 1004.22 330.422C1003.91 329.945 1003.75 329.149 1003.91 328.512C1004.07 327.557 1004.22 326.602 1004.22 325.647C1004.22 324.373 1004.07 323.259 1003.75 322.144C1003.59 321.826 1003.59 321.349 1003.75 320.871C1004.07 319.757 1004.38 318.483 1004.38 317.05C1004.38 312.116 1001.52 307.658 997.22 305.589C996.584 305.27 996.106 304.634 995.947 303.838C995.469 299.062 992.763 294.923 988.624 292.535C988.306 292.376 987.987 291.899 987.828 291.58C986.236 287.919 982.575 285.213 978.277 285.213C978.118 285.213 977.959 285.213 977.799 285.213C977.003 285.213 976.207 284.894 975.73 284.258C973.501 280.596 969.521 278.049 964.905 278.049C964.905 278.049 964.905 278.049 964.746 278.049C964.109 278.049 963.472 277.731 962.995 277.253C960.129 274.069 955.99 272 951.374 272C949.623 272 947.872 272.318 946.28 272.796C945.962 272.955 945.484 272.955 945.166 272.955C942.778 272.478 940.39 272.318 937.843 272.318C929.565 272.318 924.63 273.91 918.422 278.527C917.944 278.845 917.467 279.004 916.989 279.004C916.352 279.004 915.557 278.845 914.92 278.845C904.891 278.845 901.866 288.715 897.568 292.376C893.27 296.038 896.772 296.515 892.633 301.291C890.246 303.838 892.315 305.43 890.723 307.022C889.131 308.454 888.335 310.364 888.017 312.593C887.858 313.23 887.539 313.867 887.062 314.185C885.47 315.14 886.584 316.732 886.266 318.642C886.107 319.12 885.947 319.597 885.47 319.916C883.241 321.667 881.968 324.373 881.968 327.398C881.968 328.353 882.127 329.308 882.445 330.263C882.604 330.581 882.604 330.9 882.445 331.218C881.809 332.81 881.649 334.561 881.649 336.471C881.649 338.223 881.968 339.814 882.445 341.406C882.604 341.884 882.445 342.202 882.286 342.68C881.013 344.431 880.376 346.66 880.376 349.047C880.376 350.162 880.535 351.276 880.853 352.231C881.013 352.549 880.853 353.027 880.694 353.345C879.898 354.778 879.421 356.37 879.421 358.121C879.421 360.668 880.535 363.056 882.127 364.807C882.445 365.125 882.445 365.444 882.445 365.762C882.445 370.219 885.151 373.562 886.584 374.836C887.062 375.314 887.221 375.791 887.221 376.428C887.221 377.861 887.38 380.885 889.609 383.432C890.405 384.387 891.041 385.342 891.36 386.457C891.997 388.845 894.384 390.914 896.295 391.71C897.091 392.028 897.568 392.983 897.568 393.779C897.409 396.486 898.205 398.555 899.001 399.829C899.638 400.943 899.956 402.376 899.797 403.649C899.638 405.4 899.956 407.788 902.185 410.494C902.503 410.972 902.662 411.449 902.662 411.927C902.503 413.678 902.821 414.951 903.299 415.907C901.389 416.862 899.16 417.976 897.727 418.931C894.066 421.001 886.903 425.458 884.833 427.209C883.082 428.801 877.829 432.144 875.759 433.258C873.531 434.373 870.347 437.079 870.188 437.238C870.029 437.397 870.029 437.556 869.869 437.715C869.869 437.715 869.71 438.193 869.71 438.989C868.596 439.626 864.616 442.014 863.024 443.287C863.024 443.287 863.024 443.287 863.024 443.446C843.126 443.128 825.774 443.128 811.129 443.128C809.218 438.671 805.08 423.229 803.01 415.747L802.214 412.723C800.622 406.833 800.304 403.49 800.145 400.943C799.986 399.192 799.508 397.122 799.03 394.894C798.712 393.62 798.394 392.347 798.234 391.073C797.598 387.73 796.961 384.546 798.394 378.02C799.03 374.995 799.508 372.926 799.508 371.334L801.418 372.448L805.557 374.836C805.716 374.836 805.875 374.836 805.875 374.836C806.194 374.836 806.671 374.677 806.831 374.358L807.149 373.722L808.422 370.379L808.741 369.583C808.741 369.105 808.422 368.468 807.945 368.309L797.757 364.17C797.598 363.374 797.279 362.419 796.961 361.464C796.324 358.917 795.687 356.37 794.891 354.619C793.936 352.231 792.026 350.639 790.753 349.684C790.593 349.525 790.434 349.366 790.116 349.207C789.957 349.207 789.957 349.047 789.797 348.888C789.001 348.092 787.091 345.227 786.454 344.112C786.136 343.635 785.34 342.998 784.067 343.157C783.748 343.157 782.316 343.476 781.52 344.749C780.724 345.864 780.405 347.455 780.883 349.525C781.042 350.002 781.042 350.48 781.201 350.958C782.316 354.778 784.226 357.962 784.385 357.962C784.385 357.962 784.544 358.28 784.703 358.917L777.381 355.892C778.336 355.574 779.132 354.778 779.45 353.664C779.609 353.186 779.609 352.868 779.609 352.549C779.769 349.684 777.699 348.411 776.107 347.615C772.605 346.023 770.854 345.864 766.715 347.455C765.442 347.933 764.327 349.047 763.85 350.321C763.85 350.321 763.85 350.321 763.85 350.48C760.825 349.207 758.278 348.251 757.8 348.092C753.821 346.5 751.911 344.908 751.274 344.431C751.115 344.59 750.955 344.749 750.796 345.068C750.637 345.227 750.478 345.545 750.319 345.704C749.523 346.978 748.408 349.207 747.612 352.549C747.612 352.868 747.453 353.027 747.453 353.345C747.453 353.664 747.294 353.823 747.294 354.141C748.249 354.301 750.319 354.619 753.343 355.415C754.298 355.733 757.96 357.007 763.054 358.917C762.576 360.031 762.417 360.987 762.417 361.623C762.258 361.623 762.099 361.623 761.939 361.782C760.348 362.26 759.233 363.374 758.596 364.648C757.482 367.036 757.801 370.06 758.119 372.13C757.96 373.085 757.482 374.518 757.005 375.314C756.845 375.473 756.845 375.632 756.686 375.632C755.731 376.746 753.821 379.134 754.139 380.885L754.298 381.681C754.617 383.591 754.935 386.457 756.049 387.73C756.368 388.049 756.845 388.845 757.323 389.8C758.756 392.187 761.143 395.849 763.213 397.918C764.327 399.033 765.601 399.829 766.556 400.625C768.148 401.898 769.58 402.853 770.376 404.286C771.013 405.559 771.172 406.355 771.491 407.151C771.65 407.947 771.809 408.743 772.446 409.857L772.605 410.176C773.56 411.927 774.674 413.678 775.47 419.09C776.426 424.503 778.813 440.581 779.291 443.765C778.813 443.765 778.495 443.765 778.017 443.765L764.486 444.242C731.216 445.675 712.432 447.585 712.272 447.585L706.542 448.063C703.835 446.789 701.129 445.675 698.582 444.879C690.464 442.332 680.116 444.561 679.639 444.561C677.569 445.038 676.296 445.675 675.5 446.152C668.814 438.352 663.879 436.92 660.855 436.124C660.218 435.964 659.74 435.805 659.263 435.646C657.83 435.009 656.556 435.009 655.442 434.85C654.009 434.691 652.895 434.691 651.622 433.736C649.552 432.144 646.528 431.03 643.503 429.915C642.707 429.597 641.752 429.278 640.956 428.96C637.454 427.527 634.111 429.915 633.156 430.552C632.996 430.552 632.837 430.552 632.678 430.393C631.564 430.234 630.609 430.552 629.813 431.03C628.698 431.985 628.38 433.417 628.221 433.895C624.719 434.373 616.282 436.124 612.78 437.397C609.755 438.511 607.845 439.944 604.661 442.65C603.865 443.287 602.91 444.083 601.796 444.879L600.84 445.516C595.906 449.336 590.334 453.794 586.195 460.32C584.285 463.186 582.534 466.847 580.464 471.145C577.599 477.194 573.937 484.835 568.366 493.432C559.292 507.599 544.488 531.318 538.598 540.87C533.026 549.784 528.25 555.834 526.181 557.744C524.111 559.813 518.221 564.111 518.221 564.111C517.903 564.111 517.585 564.271 517.266 564.271C517.107 564.271 517.107 564.111 516.948 564.111C517.107 563.952 517.107 563.634 517.266 563.315C517.585 562.679 518.062 561.724 518.221 560.768C518.381 559.654 517.903 558.54 516.948 558.062C515.674 557.266 513.923 557.266 512.172 558.221C511.695 558.54 511.058 558.858 510.421 559.336C510.262 559.017 509.944 558.858 509.625 558.858C509.148 559.017 508.988 559.336 508.988 559.813V560.132C507.874 560.768 506.601 561.405 505.327 562.042C505.327 562.042 505.327 561.883 505.168 561.883C504.85 561.564 504.372 561.405 504.054 561.724C503.735 561.883 503.576 562.36 503.894 562.838C503.258 563.156 502.621 563.475 501.984 563.793C501.825 563.634 501.666 563.475 501.347 563.315C500.87 563.315 500.551 563.634 500.392 563.952C500.392 563.952 500.392 564.111 500.392 564.271C499.596 564.589 498.8 564.907 498.004 565.226H497.845V565.066C497.686 564.589 497.209 564.43 496.89 564.589C496.413 564.748 496.253 565.226 496.413 565.544V565.703C496.094 565.703 495.776 565.862 495.457 565.862C495.298 565.703 495.139 565.385 494.821 565.385C494.343 565.385 494.025 565.703 493.866 566.022C493.07 566.181 492.274 566.181 491.478 566.34L491.319 566.022C491.159 565.544 490.682 565.385 490.363 565.544C489.886 565.703 489.727 566.181 489.886 566.499C489.567 566.499 489.249 566.499 488.931 566.499C488.931 566.181 488.612 566.022 488.453 566.022C487.976 565.862 487.657 566.181 487.498 566.499C487.498 566.499 487.498 566.499 487.498 566.658C486.702 566.658 486.065 566.658 485.269 566.658L485.11 566.022C484.951 565.544 484.633 565.385 484.155 565.385C483.677 565.544 483.518 565.862 483.518 566.34V566.499C480.812 566.499 476.992 565.862 475.559 565.544C474.922 565.226 474.285 565.066 473.808 564.748C473.012 564.43 472.216 564.111 471.738 563.793L471.102 563.634C466.644 561.883 454.864 557.425 446.905 558.54C440.06 559.495 437.99 563.475 437.354 565.226C437.035 565.226 436.717 565.226 436.398 565.385C435.443 565.703 434.647 566.658 433.692 569.842C432.578 573.663 439.105 580.826 443.88 584.328C447.86 587.353 454.228 591.333 458.844 594.357C459.958 594.994 460.913 595.631 461.869 596.267C466.644 599.451 486.384 609.162 489.567 610.594C492.433 611.868 494.98 612.346 495.776 612.346C496.253 612.823 497.368 613.937 498.8 614.574C499.278 614.733 500.074 615.052 501.347 615.688C505.009 617.28 511.854 620.146 515.674 621.419C519.813 622.852 528.569 626.354 531.116 627.309C531.434 627.468 531.752 627.468 532.071 627.468C532.867 627.468 533.504 627.15 533.981 626.513C534.936 625.081 536.21 623.17 536.528 622.056C537.006 620.942 537.006 619.987 536.847 619.35C537.802 618.236 541.622 613.619 544.169 608.047C546.875 602.157 547.671 594.676 548.149 589.9L548.308 588.626C548.467 586.875 548.308 585.761 547.512 584.965C547.353 584.806 547.194 584.647 546.875 584.487C547.99 582.418 555.312 568.091 561.521 561.883C563.909 559.336 568.047 555.834 572.823 551.854C580.783 545.009 590.811 536.413 596.701 529.408L597.816 527.976C602.273 522.563 608.004 515.559 612.939 507.918L619.943 578.279L621.853 598.337C621.217 600.247 620.58 601.998 619.784 603.113C618.51 604.864 617.237 606.933 616.759 607.57C615.486 607.729 611.506 608.366 608.322 613.778L607.526 615.211C604.82 619.827 600.681 626.832 595.11 632.403C593.518 633.995 591.767 635.587 590.175 637.179C585.081 641.955 579.668 647.049 577.917 650.71C576.803 653.098 575.689 656.282 574.893 659.465C574.893 659.465 574.893 659.465 574.893 659.625C574.097 662.968 573.301 666.151 573.142 668.539C572.823 672.041 573.142 680.637 584.603 686.846C589.856 689.552 597.816 691.303 605.616 691.303C613.894 691.303 621.853 689.393 626.151 684.458C627.584 682.866 628.858 681.115 630.131 679.364L639.774 780.423C639.774 780.901 640.092 781.219 640.57 781.219C641.047 781.219 641.366 780.741 641.206 780.423L633.474 698.148L635.384 699.581C636.339 700.377 661.969 720.435 812.084 720.435C961.244 720.435 993.877 705.312 1000.56 700.059L992.429 784.108C992.429 784.585 992.747 784.904 993.225 784.904C993.703 784.904 994.021 784.585 994.021 784.108L1003.91 682.548C1004.86 682.389 1005.98 682.07 1007.09 681.433C1010.59 679.523 1013.46 676.021 1014.89 674.111C1015.05 673.792 1015.37 673.633 1015.53 673.315C1015.69 672.996 1016 672.678 1016.32 672.36C1018.07 670.449 1020.78 667.425 1022.53 663.763C1024.28 659.943 1025.24 653.575 1026.19 646.094L1026.67 642.432C1027.31 637.975 1027.63 636.224 1027.63 635.428C1027.78 634.632 1027.78 634.632 1027.94 633.358C1028.26 631.767 1028.9 630.175 1029.54 628.424C1030.01 627.309 1030.49 626.036 1030.97 624.762C1031.76 622.374 1033.67 617.44 1038.13 609.799C1039.41 607.729 1040.84 605.5 1042.43 603.113C1046.25 597.382 1050.39 590.696 1053.57 583.851C1058.03 574.299 1060.58 569.683 1060.58 569.524C1061.06 568.409 1062.01 566.977 1063.12 565.544C1065.03 562.679 1067.42 559.336 1068.38 555.197C1071.08 550.739 1071.08 547.874 1069.65 544.213ZM1031.92 507.918C1017.44 514.763 1012.18 515.081 1008.52 515.4C1007.73 515.4 1007.09 515.559 1006.29 515.559C1005.02 515.718 1003.91 516.196 1002.63 516.673C999.927 517.628 998.335 518.106 997.38 516.832L996.743 516.036C995.788 514.763 994.196 512.534 992.286 509.669C992.445 509.669 992.763 509.669 993.081 509.669C998.016 509.669 1010.91 508.873 1022.05 503.142C1034.31 496.934 1042.11 491.362 1044.66 481.492C1046.57 484.676 1048 487.064 1048.48 487.701C1048.64 489.293 1048 500.436 1031.92 507.918ZM887.221 664.878C887.539 664.878 887.858 665.037 888.176 665.196C888.335 665.355 888.494 665.674 888.494 665.992C888.494 666.311 888.335 666.47 888.176 666.788C888.017 666.947 887.699 667.106 887.221 667.106H873.053V676.976C873.053 677.454 873.212 677.772 873.371 678.09C873.69 678.409 874.167 678.568 874.645 678.568H888.972C889.29 678.568 889.609 678.727 889.927 678.886C890.086 679.046 890.246 679.364 890.246 679.682C890.246 680.001 890.086 680.16 889.927 680.478C889.768 680.637 889.45 680.797 888.972 680.797H874.327C873.212 680.797 872.257 680.478 871.461 679.682C870.824 679.046 870.506 678.09 870.506 677.135V655.963C870.506 654.849 870.824 654.053 871.461 653.416C872.098 652.62 873.053 652.302 874.327 652.302H888.494C888.813 652.302 889.131 652.461 889.45 652.62C889.609 652.779 889.768 653.098 889.768 653.416C889.768 653.735 889.609 653.894 889.45 654.212C889.29 654.371 888.972 654.531 888.494 654.531H874.804C874.167 654.531 873.849 654.69 873.531 655.008C873.212 655.327 873.212 655.645 873.212 656.282V665.037H887.221V664.878ZM862.387 664.878C862.706 664.878 863.024 665.037 863.343 665.196C863.502 665.355 863.661 665.674 863.661 665.992C863.661 666.311 863.502 666.47 863.343 666.788C863.183 666.947 862.865 667.106 862.387 667.106H848.22V676.976C848.22 677.454 848.379 677.772 848.538 678.09C848.856 678.409 849.334 678.568 849.812 678.568H864.139C864.457 678.568 864.775 678.727 865.094 678.886C865.253 679.046 865.412 679.364 865.412 679.682C865.412 680.001 865.253 680.16 865.094 680.478C864.934 680.637 864.616 680.797 864.139 680.797H849.493C848.379 680.797 847.424 680.478 846.628 679.682C845.991 679.046 845.673 678.09 845.673 677.135V655.963C845.673 654.849 845.991 654.053 846.628 653.416C847.265 652.62 848.22 652.302 849.493 652.302H863.661C863.979 652.302 864.298 652.461 864.616 652.62C864.775 652.779 864.935 653.098 864.935 653.416C864.935 653.735 864.775 653.894 864.616 654.212C864.457 654.371 864.139 654.531 863.661 654.531H849.971C849.334 654.531 849.016 654.69 848.697 655.008C848.379 655.327 848.379 655.645 848.379 656.282V665.037H862.387V664.878ZM837.872 664.878C838.191 664.878 838.509 665.037 838.828 665.196C838.987 665.355 839.146 665.674 839.146 665.992C839.146 666.311 838.987 666.47 838.828 666.788C838.668 666.947 838.35 667.106 837.872 667.106H824.501V680.16C824.501 680.478 824.341 680.797 824.182 681.115C824.023 681.274 823.705 681.433 823.386 681.433C823.068 681.433 822.75 681.274 822.59 681.115C822.431 680.956 822.272 680.638 822.272 680.16V655.963C822.272 654.849 822.59 654.053 823.227 653.416C823.864 652.62 824.819 652.302 826.092 652.302H839.624C839.942 652.302 840.26 652.461 840.579 652.62C840.738 652.779 840.897 653.098 840.897 653.416C840.897 653.735 840.738 653.894 840.579 654.212C840.419 654.371 840.101 654.531 839.624 654.531H826.57C825.933 654.531 825.615 654.69 825.297 655.008C824.978 655.327 824.978 655.645 824.978 656.282V665.196H837.872V664.878ZM814.153 664.878C814.472 664.878 814.79 665.037 815.108 665.196C815.268 665.355 815.427 665.674 815.427 665.992C815.427 666.311 815.268 666.47 815.108 666.788C814.949 666.947 814.631 667.106 814.153 667.106H800.781V680.16C800.781 680.478 800.622 680.797 800.463 681.115C800.304 681.274 799.985 681.433 799.667 681.433C799.349 681.433 799.03 681.274 798.871 681.115C798.712 680.956 798.553 680.638 798.553 680.16V655.963C798.553 654.849 798.871 654.053 799.508 653.416C800.145 652.62 801.1 652.302 802.373 652.302H815.904C816.223 652.302 816.541 652.461 816.859 652.62C817.019 652.779 817.178 653.098 817.178 653.416C817.178 653.735 817.019 653.894 816.859 654.212C816.7 654.371 816.382 654.531 815.904 654.531H802.533C801.896 654.531 801.577 654.69 801.259 655.008C800.941 655.327 800.941 655.645 800.941 656.282V665.196H814.153V664.878ZM792.344 666.47C792.344 670.609 791.23 674.111 789.161 676.817C786.773 679.842 783.589 681.433 779.291 681.433C774.993 681.433 771.65 679.842 769.421 676.817C767.352 674.111 766.397 670.609 766.397 666.47C766.397 662.331 767.352 658.829 769.421 656.122C771.809 653.098 774.993 651.506 779.291 651.506C783.589 651.506 786.773 653.098 789.161 656.122C791.389 658.829 792.344 662.172 792.344 666.47ZM743.314 676.021C745.065 678.09 747.453 679.205 750.478 679.205C752.706 679.205 754.617 678.727 756.049 677.613C757.641 676.339 758.756 674.429 759.392 671.882C759.392 671.405 759.711 671.245 760.029 670.927C760.348 670.768 760.666 670.768 760.984 670.768C761.303 670.768 761.621 671.086 761.78 671.245C761.939 671.564 762.099 671.882 761.939 672.36C761.303 674.907 760.188 676.976 758.596 678.568C756.686 680.319 753.98 681.274 750.637 681.274C746.976 681.274 743.951 680.001 741.722 677.295C739.335 674.588 738.22 670.927 738.22 666.311C738.22 661.853 739.335 658.192 741.722 655.486C743.951 652.779 746.976 651.347 750.637 651.347C753.98 651.347 756.527 652.143 758.596 653.894C760.347 655.326 761.303 657.396 761.78 659.784C761.78 660.102 761.78 660.421 761.621 660.739C761.462 661.057 761.143 661.216 760.825 661.216C760.507 661.216 760.188 661.216 760.029 661.057C759.711 660.898 759.552 660.58 759.392 660.102C758.915 657.874 757.96 656.122 756.209 655.008C754.776 653.894 752.866 653.416 750.637 653.416C747.612 653.416 745.225 654.531 743.473 656.6C741.563 658.829 740.608 662.172 740.608 666.151C740.449 670.609 741.404 673.792 743.314 676.021ZM1014.57 579.712V579.553C1014.57 579.393 1014.57 579.234 1014.57 579.234L1018.39 539.437C1021.1 544.054 1023.65 547.874 1024.76 549.307C1026.83 551.854 1028.58 553.127 1029.69 553.923C1029.38 554.719 1028.74 556.311 1028.58 557.744C1026.67 561.564 1023.65 570.32 1019.35 582.1C1016.48 590.218 1014.41 596.427 1012.66 601.521L1014.57 579.712ZM1012.98 579.234C1011.71 581.463 994.355 605.66 811.925 605.66C752.866 605.66 706.223 602.953 673.112 597.541C673.112 597.541 667.381 596.745 664.675 595.949C664.993 594.676 665.471 593.084 665.789 591.492C667.381 585.124 675.182 567.932 682.027 553.764C688.076 541.347 698.582 518.743 702.562 506.485C702.721 506.167 702.721 505.848 702.88 505.53L706.86 506.007C707.178 506.007 739.175 510.465 796.961 510.465C812.243 510.465 829.276 510.146 848.061 509.35C933.704 505.848 971.75 500.595 984.485 498.366C987.669 504.734 991.171 510.146 993.559 513.649C992.126 513.967 990.534 514.285 988.147 514.604C921.287 525.747 833.097 527.339 832.301 527.339C831.823 527.339 831.505 527.657 831.505 528.135C831.505 528.612 831.823 528.931 832.301 528.931C833.256 528.931 921.446 527.339 988.465 516.196C991.171 515.718 992.922 515.4 994.673 515.081C995.151 515.718 995.469 516.196 995.788 516.514L996.424 517.31C997.22 518.424 998.175 518.743 999.449 518.743C1000.72 518.743 1002.31 518.265 1003.59 517.628C1004.38 517.31 1005.18 517.151 1005.98 516.832C1005.98 516.991 1005.98 517.151 1006.13 517.31C1006.45 517.947 1012.02 527.816 1017.12 536.413L1012.98 579.234ZM704.791 499.481L708.293 500.117C710.203 500.436 713.068 500.754 717.048 501.232H717.207C731.057 502.664 757.005 504.416 793.777 504.416C809.855 504.416 828.003 504.097 847.901 503.301C859.204 502.824 869.551 502.346 879.262 501.869C882.923 501.709 886.584 501.391 890.086 501.232C890.086 501.232 890.086 501.232 890.246 501.232C902.503 500.436 913.646 499.799 923.516 499.003C923.834 499.162 924.153 499.162 924.471 499.003C951.533 496.934 969.681 494.546 981.779 492.795C982.416 494.387 983.053 495.979 983.689 497.411C970.636 499.64 932.431 504.734 847.901 508.236C758.119 511.897 707.497 504.893 707.019 504.893L703.358 504.416C703.835 502.346 704.313 500.754 704.791 499.481ZM899.638 435.328C899.797 435.328 899.797 435.328 899.638 435.328L906.483 433.099L906.642 433.258H906.801L906.96 441.695C906.96 441.854 906.801 441.854 906.801 442.014C906.005 443.765 903.458 449.018 901.866 454.112C899.956 460.161 897.568 466.529 897.568 466.688C892.156 471.304 886.266 477.194 882.604 482.448C877.67 489.452 875.123 495.979 874.327 498.366C873.053 497.889 871.62 497.093 870.188 496.138C867.482 494.227 861.432 488.656 856.975 483.084C852.836 477.831 856.816 469.394 859.204 466.847C861.91 463.822 871.62 453.953 877.829 449.018C884.037 444.401 899.478 435.487 899.638 435.328ZM933.545 436.601C933.226 436.76 932.908 437.079 932.59 437.556C932.431 438.034 932.112 438.671 931.635 439.467C930.998 440.74 930.202 442.65 929.088 444.72C927.655 447.426 924.471 449.018 922.242 450.132C913.965 447.744 909.667 443.605 908.393 442.491C908.393 442.491 908.393 442.491 908.393 442.332C908.393 442.173 910.462 433.895 913.009 427.846C913.487 427.846 913.805 428.005 914.283 428.005C914.92 428.005 915.557 428.323 915.875 428.96C917.308 430.87 919.377 432.621 922.879 433.099C925.745 433.417 928.451 432.303 929.565 431.666C930.043 431.348 930.52 431.348 930.998 431.507C932.59 431.826 936.092 432.303 938.957 431.189C940.549 430.552 941.663 429.597 942.619 428.642C943.892 427.209 945.643 426.095 947.553 425.458C948.827 425.14 950.26 424.344 951.374 423.229C952.966 421.478 953.921 420.682 954.239 419.409C954.399 418.772 954.876 418.294 955.513 418.135C956.627 417.658 958.697 416.862 960.766 415.588C961.403 415.27 961.88 414.792 962.199 414.315C965.223 413.837 967.611 413.678 969.203 414.474L969.521 414.633C969.999 414.951 970.477 415.27 971.273 415.588C970.477 416.225 969.681 417.021 968.885 417.658C965.542 420.364 956.15 426.254 945.643 430.552C937.365 433.895 934.341 435.964 933.545 436.601ZM905.209 449.973C906.642 451.247 909.826 453.794 913.646 455.226C911.736 456.5 909.667 457.773 907.597 459.047L906.483 459.843C904.891 460.957 902.503 462.549 899.956 464.778C900.911 462.39 902.185 458.41 903.458 454.749C903.936 453.157 904.572 451.565 905.209 449.973ZM915.397 454.112C910.781 452.838 906.96 449.495 905.846 448.381C906.642 446.63 907.279 445.038 907.756 443.924C909.348 445.516 913.328 448.859 920.173 451.087C919.059 451.883 917.308 452.838 915.397 454.112ZM967.611 346.5C964.905 346.182 962.836 346.182 961.721 346.182C961.562 345.227 961.403 344.272 961.084 343.317C962.358 343.317 964.268 343.476 966.815 344.112C967.134 344.749 967.452 345.704 967.611 346.5ZM903.14 366.081C903.14 365.285 903.14 364.17 903.299 363.056C903.299 362.101 903.458 361.146 903.458 360.191C905.368 361.146 907.438 361.782 909.826 361.782C917.626 361.782 923.834 355.415 923.834 347.774C923.834 345.864 923.516 343.953 922.72 342.361C923.038 341.725 923.994 339.814 927.655 339.814C931.316 339.814 934.182 341.884 934.978 342.68C934.341 344.272 934.022 346.023 934.022 347.774C934.022 355.574 940.39 361.782 948.031 361.782C955.672 361.782 962.04 355.415 962.04 347.774C962.04 347.774 962.04 347.774 962.04 347.615C963.154 347.615 965.542 347.615 968.407 347.933C969.044 350.162 969.362 352.709 969.203 355.733C968.726 370.219 962.04 379.452 958.06 383.591C957.423 384.228 956.786 384.546 955.831 384.546C955.035 384.546 954.239 384.228 953.603 383.591C950.578 380.089 945.006 375.632 942.619 374.04C939.594 372.13 936.729 371.652 934.182 371.652C932.749 371.652 931.475 371.811 930.52 371.971C929.724 372.13 929.088 372.13 928.451 372.13C926.859 372.13 925.904 371.971 925.108 371.811C923.198 371.493 922.083 371.334 916.83 373.403C913.487 374.677 910.303 378.179 908.711 380.089C908.393 380.408 908.234 380.726 908.075 380.885C907.915 381.044 907.597 381.203 907.279 381.044C906.642 380.885 905.846 380.408 905.528 379.452C904.095 376.905 903.14 370.219 903.14 366.081ZM919.695 386.934C921.924 386.298 924.789 385.502 927.973 383.273C930.202 385.342 932.749 385.82 935.137 386.457C938.48 387.253 941.345 388.049 943.255 392.347C943.574 393.143 943.415 393.939 943.096 394.575C942.3 395.69 940.39 396.326 938.002 396.326C936.251 396.326 935.614 395.371 934.5 394.257C933.386 392.824 931.953 391.073 928.292 391.073C924.312 391.073 922.879 392.983 921.606 394.416C920.651 395.69 919.855 396.486 918.104 396.486C916.989 396.486 914.442 396.167 914.442 392.506C914.761 388.367 916.193 387.889 919.695 386.934ZM960.448 341.725C958.219 337.108 953.443 333.924 947.872 333.924C942.459 333.924 937.843 336.949 935.455 341.406C934.182 340.451 931.316 338.541 927.496 338.541C924.312 338.541 922.561 339.814 921.765 340.929C919.377 336.79 914.761 333.924 909.667 333.924C907.915 333.924 906.324 334.243 904.891 334.88V334.72C905.368 330.581 905.846 326.761 911.736 315.299C912.054 314.503 912.691 314.026 913.487 313.867C914.283 313.707 915.079 313.707 915.716 314.026C918.899 315.618 924.471 317.687 933.704 317.687C942.619 317.687 949.464 315.777 953.603 314.185C954.558 313.867 955.513 314.026 956.309 314.503C957.105 314.981 957.582 315.936 957.582 316.891C957.742 320.393 958.378 325.806 960.129 330.581C961.244 333.606 962.517 336.153 963.95 338.7C964.587 339.974 965.223 341.088 965.86 342.361C963.313 341.725 961.244 341.725 960.448 341.725ZM911.736 427.209C910.462 430.074 909.348 433.577 908.552 436.283V432.94C908.552 432.621 908.393 432.303 908.234 431.985C908.711 430.87 909.667 428.801 910.781 426.572C911.099 426.891 911.418 427.05 911.736 427.209ZM906.801 421.637C907.279 422.911 907.915 424.344 908.871 425.299C909.03 425.458 909.189 425.617 909.348 425.776C908.075 428.164 906.96 430.552 906.483 431.666C906.324 431.666 906.324 431.666 906.164 431.666L896.613 434.691C897.887 432.303 899.956 428.323 901.707 426.095C902.981 424.344 904.732 422.274 906.005 420.682C906.483 420.841 906.642 421.16 906.801 421.637ZM860.477 463.345C800.145 462.39 755.253 464.618 733.922 466.051L728.191 466.529C727.077 465.255 726.122 463.982 725.167 462.708C722.62 459.365 719.277 456.181 715.615 453.634L719.118 453.316C734.559 452.042 791.23 447.904 874.804 449.814C869.869 453.794 863.979 459.684 860.477 463.345ZM1017.44 441.218C1018.23 443.287 1019.98 444.72 1022.21 446.471C1024.76 448.54 1027.63 450.769 1029.38 454.589C1031.61 459.206 1038.61 471.304 1043.54 479.582C1041.47 489.77 1033.83 495.501 1021.42 501.709C1007.73 508.554 991.967 507.918 991.49 507.918C991.49 507.918 991.49 507.918 991.33 507.918C987.669 502.028 983.371 494.068 980.824 485.631C980.665 485.154 980.346 484.995 979.869 485.154C979.391 485.313 979.232 485.79 979.391 486.109C979.869 487.86 980.346 489.452 980.983 491.044C969.044 492.954 950.737 495.023 923.994 497.252C923.198 496.615 921.447 495.183 917.308 492.636C911.258 488.974 902.025 483.084 902.025 482.925C901.707 482.766 901.389 482.766 901.07 483.084C900.911 483.243 896.931 486.905 894.703 490.248C892.952 493.113 890.405 498.048 889.609 499.481C886.266 499.64 882.764 499.799 879.262 500.117C878.943 500.117 877.51 499.799 875.6 499.162C876.396 496.934 878.943 490.407 883.719 483.562C889.768 474.966 902.025 464.618 907.279 461.116L908.393 460.32C913.487 456.977 919.855 452.838 921.924 451.883L922.402 451.724C924.789 450.61 928.61 448.859 930.361 445.516C931.475 443.446 932.271 441.536 932.908 440.263C933.226 439.467 933.545 438.83 933.863 438.352C933.863 438.352 933.863 438.193 934.022 438.193C934.022 438.193 934.022 438.193 934.182 438.193C934.341 438.352 934.978 438.83 936.092 441.218C938.798 447.744 939.435 454.43 939.435 454.589C939.435 454.749 939.594 455.067 939.753 455.226C939.912 455.385 940.231 455.385 940.39 455.385C941.027 455.226 954.558 452.998 965.542 442.332C972.228 435.805 975.73 430.711 978.277 426.891C980.028 424.503 981.301 422.593 982.893 421.001C986.077 417.817 987.828 416.225 988.624 415.588C990.534 416.066 999.29 418.294 1005.98 424.98C1013.94 432.781 1016.16 437.397 1017.44 441.218ZM987.351 414.315C986.714 414.951 984.963 416.543 981.62 419.727C979.869 421.319 978.595 423.389 976.844 425.936C974.138 429.915 970.795 434.691 964.268 441.058C955.195 449.814 943.892 452.838 940.868 453.475C940.549 451.406 939.753 445.993 937.525 440.581C936.888 438.989 936.251 437.875 935.614 437.238C937.047 436.283 940.231 434.532 946.439 431.985C956.468 427.846 966.179 422.115 970.158 418.772C971.113 417.976 972.228 417.021 973.183 416.225C974.297 416.703 975.571 417.021 976.844 417.021C977.959 417.021 979.232 416.862 980.346 416.225C982.097 415.27 983.212 414.792 984.008 414.315C984.963 413.837 985.281 413.519 986.077 413.36C986.236 413.36 986.396 413.2 986.714 413.2C986.873 413.2 987.191 413.041 987.351 413.041C987.351 413.519 987.351 413.996 987.351 414.315ZM977.003 365.125C977.003 365.125 979.232 364.17 980.665 358.28C980.983 357.007 981.142 356.052 981.461 355.097C981.938 354.619 983.053 353.823 984.167 354.46C985.6 355.256 986.236 357.644 986.236 358.599C986.236 359.076 986.555 359.395 987.032 359.395C987.51 359.395 987.828 358.917 987.828 358.599C987.828 358.439 987.51 354.46 984.804 353.186C983.848 352.709 982.734 352.709 981.938 353.027C982.575 350.958 983.371 349.843 984.485 349.843C986.395 349.843 989.738 353.982 988.465 362.101C987.191 370.219 984.167 371.811 982.097 373.244C980.028 374.677 977.003 376.587 976.844 373.244C976.685 369.901 977.003 365.125 977.003 365.125ZM876.396 435.168C878.625 434.054 883.878 430.711 885.947 428.96C887.698 427.368 894.544 423.07 898.523 420.841C899.956 420.046 902.185 418.931 904.095 417.817C904.413 418.135 904.732 418.454 905.05 418.772C905.209 418.931 905.368 419.09 905.368 419.09C903.936 420.682 902.025 423.07 900.752 424.98C898.364 428.323 894.862 435.168 894.703 435.487C894.544 435.805 894.544 436.124 894.862 436.283C891.36 438.352 886.425 441.377 882.127 444.242C881.172 444.242 880.376 444.242 879.421 444.242C879.421 444.242 877.351 441.536 876.237 439.467C875.282 437.715 875.6 435.805 875.6 435.646C875.6 435.646 875.6 435.646 875.6 435.487C875.919 435.487 876.078 435.328 876.396 435.168ZM871.302 438.671C871.78 438.352 872.735 437.556 873.849 436.601C873.849 437.556 874.008 438.83 874.645 440.103C875.441 441.536 876.555 442.969 877.192 444.083C875.759 444.083 874.327 444.083 872.894 443.924C872.735 443.605 871.939 442.173 871.461 440.74C871.143 439.944 871.302 439.148 871.302 438.671ZM869.869 441.058C869.869 441.218 869.869 441.218 870.029 441.377C870.347 442.332 870.824 443.287 871.143 443.924C869.233 443.924 867.322 443.765 865.412 443.765C866.845 442.969 868.755 441.695 869.869 441.058ZM773.401 369.424C770.536 366.399 766.397 363.056 765.282 362.26C764.964 362.101 764.646 361.942 764.327 361.942C764.327 361.146 764.646 359.395 766.237 357.803C768.307 355.733 771.013 357.484 771.809 358.121C772.446 358.599 773.879 359.872 775.152 361.464C774.356 361.623 773.719 362.101 773.242 362.738C772.127 363.852 771.65 365.125 772.127 366.081C772.923 367.832 774.356 368.946 774.515 368.946C774.674 369.105 774.834 369.105 774.993 369.105C775.311 369.105 775.47 368.946 775.63 368.787C775.948 368.468 775.789 367.991 775.47 367.672C775.47 367.672 774.197 366.717 773.56 365.444C773.401 365.125 773.719 364.489 774.356 363.852C774.993 363.215 775.789 362.738 776.585 363.056C777.221 363.852 777.858 364.648 778.177 365.125C779.291 366.876 779.132 368.309 777.699 369.583C776.107 370.697 773.879 369.742 773.401 369.424ZM763.531 353.186L765.282 353.823L766.556 354.301C767.033 354.46 767.193 354.937 767.033 355.256C766.874 355.415 766.715 355.574 766.397 355.574C766.397 355.574 766.397 355.574 766.237 355.574H766.078L764.168 354.778L761.462 353.664C760.984 353.505 760.825 353.027 760.984 352.709C761.143 352.231 761.621 352.072 761.939 352.231L763.531 353.186ZM759.87 352.549C759.711 352.868 759.392 353.027 759.074 353.027C758.915 353.027 758.915 353.027 758.756 353.027L753.98 351.117C753.502 350.958 753.343 350.48 753.502 350.162C753.662 349.684 754.139 349.525 754.617 349.684L759.392 351.594C759.87 351.594 760.029 352.072 759.87 352.549ZM765.442 351.594C765.919 350.639 766.556 349.843 767.511 349.525C769.899 348.57 771.332 348.411 772.923 348.729C772.446 349.047 772.127 349.525 771.809 350.162C771.172 351.435 771.332 352.709 771.968 353.345C773.083 354.301 775.311 354.619 775.63 354.778H775.789C776.107 354.778 776.426 354.46 776.585 354.141C776.585 353.664 776.426 353.345 775.948 353.186C775.152 353.027 773.719 352.709 773.083 352.231C772.923 352.072 772.923 351.435 773.401 350.798C773.56 350.48 774.197 349.525 775.311 349.684C775.47 349.684 775.47 349.843 775.63 349.843C777.858 350.798 778.495 351.913 778.017 353.982C777.699 355.256 776.426 355.415 775.311 355.415C774.834 355.415 774.515 355.415 774.356 355.256H774.197C773.719 355.097 773.083 354.937 772.605 354.778C770.695 353.982 768.784 353.186 766.237 352.072C766.078 351.754 765.76 351.594 765.442 351.594ZM760.347 365.603C760.666 364.648 761.621 364.011 762.735 363.693C763.531 363.534 764.168 363.534 764.327 363.693C765.442 364.489 769.421 367.513 772.287 370.538C772.446 370.697 772.446 370.697 772.605 370.856C773.879 372.289 774.993 373.403 775.789 374.358C775.152 374.518 774.674 374.836 774.197 375.314C773.242 376.269 773.083 377.701 773.719 378.816C774.356 380.089 775.47 381.203 775.63 381.203C775.789 381.363 775.948 381.522 776.266 381.522C776.426 381.522 776.585 381.522 776.744 381.363C777.062 381.044 777.062 380.567 776.744 380.248C776.744 380.248 775.63 379.134 775.152 378.179C774.675 377.542 774.993 376.905 775.311 376.587C775.789 376.109 776.426 375.791 777.062 375.95C777.54 376.428 777.858 376.905 778.177 377.224C779.45 378.656 780.087 379.612 778.973 381.044C777.858 382.477 775.63 381.84 774.993 381.681C774.674 381.203 774.197 380.726 773.879 380.248C772.764 378.975 771.491 377.542 770.536 376.905C770.217 376.746 769.58 376.109 768.944 375.473C767.989 374.518 766.715 373.403 765.919 372.926C764.964 372.289 764.009 372.13 763.054 372.13C762.417 371.493 761.78 370.697 761.78 370.697L760.666 371.811C760.666 371.811 760.984 372.13 761.462 372.607C761.143 372.766 760.666 372.926 760.347 373.244C760.188 373.244 760.188 373.403 760.029 373.403C760.029 373.085 760.188 372.926 760.188 372.766C760.188 372.607 760.188 372.607 760.188 372.448C759.711 370.538 759.392 367.672 760.347 365.603ZM777.54 419.25C776.585 413.36 775.47 411.609 774.356 409.698L774.197 409.38C773.719 408.584 773.56 407.947 773.401 407.151C773.242 406.355 772.923 405.4 772.127 403.967C771.172 402.216 769.58 401.102 767.829 399.829C766.715 399.033 765.601 398.237 764.646 397.282C762.735 395.371 760.507 391.869 758.915 389.481C758.278 388.526 757.8 387.73 757.482 387.253C756.686 386.298 756.368 383.432 756.049 381.999L755.89 381.203C755.731 380.089 757.005 378.179 757.96 377.224C757.96 377.224 759.074 375.791 760.666 374.836C762.258 373.881 763.372 373.722 764.486 374.518C765.282 374.995 766.397 376.109 767.352 377.065C768.148 377.861 768.785 378.338 769.262 378.656C769.899 379.134 771.172 380.248 772.287 381.681C771.968 381.84 771.491 382.159 771.172 382.795C769.899 384.706 771.809 386.298 772.764 387.093C772.923 387.253 773.083 387.253 773.242 387.253C773.401 387.253 773.719 387.093 773.879 386.934C774.197 386.616 774.197 386.138 773.719 385.82C772.605 384.865 772.127 384.228 772.446 383.591C772.605 383.273 772.923 383.114 773.083 383.114C773.242 383.114 773.242 383.114 773.401 383.273C773.56 383.432 773.56 383.432 773.719 383.591C774.356 384.387 774.993 385.024 775.311 385.502C775.63 385.979 775.789 386.298 775.789 386.616C775.789 386.616 775.789 386.934 775.47 387.093C774.515 387.889 773.242 387.889 772.127 387.253C770.695 386.616 767.989 384.228 767.67 383.91C767.352 383.591 767.033 383.273 767.033 383.273L766.874 383.114C766.556 382.955 765.282 382.159 764.805 381.999H764.646C764.168 381.84 763.054 381.363 761.939 380.408C761.621 380.089 761.143 380.089 760.825 380.408C760.507 380.726 760.507 381.203 760.825 381.522C762.258 382.795 763.531 383.273 764.168 383.432H764.327C764.646 383.591 765.442 384.069 766.078 384.387C766.238 384.546 766.397 384.865 766.715 385.024C767.033 385.342 770.058 387.889 771.65 388.685C772.446 389.004 773.083 389.322 773.879 389.322C774.834 389.322 775.789 389.004 776.585 388.367C777.221 387.889 777.54 387.253 777.54 386.775C777.54 385.979 777.381 385.342 776.585 384.546C776.426 384.387 776.266 384.228 776.107 384.069C777.381 384.069 778.813 383.91 779.769 382.636C781.838 380.089 780.087 378.02 778.813 376.587C778.495 376.109 778.017 375.632 777.54 375.154C776.903 374.358 775.948 373.403 774.834 372.13C774.993 372.13 775.152 372.13 775.311 372.13C776.266 372.13 777.222 371.811 778.177 371.175C779.45 370.06 780.087 368.628 779.928 367.195C779.928 366.876 779.769 366.717 779.769 366.399C781.36 367.036 782.952 367.513 784.385 368.15C784.226 368.309 784.067 368.628 784.226 368.946C784.226 369.105 784.226 369.264 784.385 369.264C784.703 369.583 785.181 369.583 785.499 369.264C785.818 368.946 786.136 368.468 786.454 367.991C787.41 366.399 787.569 364.489 786.932 362.578C786.454 361.146 786.295 360.509 786.295 360.191C785.977 359.076 785.658 358.28 785.658 358.121C785.658 358.121 785.022 357.166 784.385 355.733C783.748 354.301 782.952 352.55 782.475 350.639C782.475 350.48 782.475 350.321 782.316 350.162C781.997 348.57 782.156 347.455 782.634 346.66C783.111 345.864 783.907 345.864 784.226 345.704C784.703 345.704 785.022 346.023 785.022 346.023C785.181 346.182 785.659 347.137 786.295 348.251C787.091 349.366 787.887 350.639 788.524 351.276C788.842 351.594 789.161 351.754 789.479 352.072C790.753 353.027 792.185 354.301 793.14 356.37C793.3 356.688 793.459 357.166 793.618 357.644C794.095 359.076 794.573 361.146 795.21 363.056C795.687 365.125 796.165 367.036 796.802 368.309C797.757 371.175 797.916 372.448 796.483 378.816C794.891 385.502 795.687 388.845 796.324 392.506C796.643 393.939 796.961 395.212 797.12 396.486C797.598 398.555 798.075 400.625 798.234 402.216C798.394 404.923 798.871 408.425 800.463 414.315L801.259 417.339C803.328 425.14 807.149 439.148 809.218 444.401C798.394 444.561 789.001 444.72 781.36 444.879C781.042 441.536 778.495 424.821 777.54 419.25ZM712.909 449.655C713.068 449.655 731.853 447.585 765.123 446.312L778.654 445.834C799.508 445.197 834.052 444.561 879.898 445.834C878.784 446.63 877.67 447.426 876.874 448.063L876.714 448.222C792.026 446.152 734.559 450.451 718.958 451.724L713.546 452.202C712.273 451.406 711.158 450.769 709.885 449.973L712.909 449.655ZM680.594 446.789C680.753 446.789 691.1 444.561 698.741 446.948C706.701 449.336 718.003 455.704 723.734 463.663C724.848 465.096 725.963 466.529 727.077 467.961C728.987 470.349 731.057 472.578 732.967 474.647C736.31 478.468 739.335 481.652 740.449 484.039C742.678 488.338 743.792 494.068 743.951 494.068C743.951 494.387 744.429 494.705 744.747 494.705H744.906C745.384 494.546 745.543 494.227 745.543 493.75C745.543 493.591 744.588 488.974 742.678 484.835C746.021 487.542 751.751 492.954 757.005 502.187C739.653 501.55 726.599 500.595 718.003 499.799C718.003 498.048 717.844 493.272 718.003 491.362C718.003 490.248 717.844 488.178 717.685 485.472C717.367 482.129 717.048 477.99 717.207 474.329C717.207 468.916 714.183 465.892 712.432 464.141C711.954 463.663 711.636 463.345 711.477 463.186C710.999 462.549 710.362 461.912 709.566 461.116C707.974 459.524 705.587 457.137 701.925 452.52C696.831 446.152 686.643 449.177 685.847 449.336C683.459 449.655 681.072 449.973 679.002 450.291C679.002 450.132 679.002 449.973 678.843 449.814C678.365 449.177 677.729 448.54 677.251 447.904C677.888 447.744 678.843 447.267 680.594 446.789ZM631.405 432.94C631.882 432.621 632.36 432.462 632.997 432.621C636.18 433.099 638.568 434.532 639.523 435.487C639.682 435.646 639.842 435.805 640.16 435.805C640.319 435.805 640.478 435.805 640.638 435.646C640.956 435.328 640.956 434.85 640.638 434.532C639.682 433.577 638.091 432.303 635.862 431.666C637.135 431.03 639.046 430.234 640.956 431.03C641.752 431.348 642.707 431.666 643.503 431.985C646.368 433.099 649.393 434.213 651.303 435.487C652.895 436.76 654.487 436.76 655.92 436.92C657.034 437.079 658.148 437.079 659.263 437.556C659.74 437.715 660.377 438.034 661.014 438.193C664.198 439.148 669.61 440.74 677.251 450.61C669.928 452.202 664.834 454.908 661.014 460.639C657.83 465.255 656.875 468.28 656.079 470.508C655.601 471.782 655.442 472.737 654.805 473.374C653.532 474.966 650.348 480.537 648.119 488.656C646.528 488.338 644.936 488.019 643.503 487.701C652.736 457.773 646.528 447.744 646.368 447.426C646.209 447.108 645.572 446.948 645.254 447.267C644.936 447.426 644.776 448.063 645.095 448.381C645.095 448.54 651.144 458.251 642.07 487.542C639.842 487.064 637.931 486.746 636.18 486.268C636.499 484.995 637.295 482.288 638.091 480.219C639.046 477.672 643.185 463.663 642.866 457.455C642.866 456.659 642.866 455.863 642.707 455.067C642.389 449.018 642.07 441.536 639.682 438.989C637.454 436.76 633.633 434.532 630.449 434.373C630.609 434.054 630.768 433.417 631.405 432.94ZM646.846 494.864C635.703 492.795 627.584 490.885 623.764 488.815C624.241 487.382 624.56 485.95 624.719 484.358C626.947 485.472 630.131 486.427 634.748 487.542C634.748 487.542 634.748 487.542 634.907 487.542H635.066C638.568 488.338 642.707 489.133 647.801 490.248C647.483 491.84 647.164 493.272 646.846 494.864ZM514.083 560.291C515.197 559.654 516.311 559.813 516.948 560.132C517.425 560.45 517.585 560.768 517.425 561.405C517.266 562.042 516.948 562.838 516.63 563.475C516.152 564.271 515.834 564.907 516.152 565.544C515.197 565.862 514.083 566.181 512.65 566.499L511.695 561.564C512.65 561.246 513.446 560.768 514.083 560.291ZM510.262 562.519L511.217 566.977C510.74 567.136 510.262 567.295 509.625 567.295C508.829 566.181 508.033 565.066 507.237 564.111C508.352 563.634 509.307 562.997 510.262 562.519ZM505.805 564.907C506.441 565.703 507.078 566.658 507.874 567.773C506.441 568.091 504.69 568.409 502.621 568.728C502.78 567.773 502.78 566.818 502.939 566.181C503.894 565.862 504.85 565.385 505.805 564.907ZM499.596 567.613C500.074 567.454 500.711 567.136 501.347 566.977C501.347 567.613 501.188 568.25 501.188 569.046C500.87 569.046 500.392 569.205 500.074 569.205L499.596 567.613ZM497.845 568.091L498.323 569.524C498.164 569.524 498.004 569.524 497.845 569.683C497.368 569.842 496.731 569.842 496.253 569.842C496.253 569.365 496.413 568.887 496.413 568.409C496.89 568.409 497.368 568.25 497.845 568.091ZM494.661 568.728C494.661 569.046 494.502 569.524 494.502 570.001C494.184 570.001 493.706 570.001 493.388 570.161L493.07 569.046C493.706 568.887 494.184 568.887 494.661 568.728ZM489.567 569.205C490.204 569.205 490.841 569.205 491.478 569.046L491.796 570.001C490.841 570.001 490.045 570.001 489.249 570.001C489.408 569.683 489.567 569.524 489.567 569.205ZM487.816 569.205C487.816 569.365 487.657 569.683 487.498 569.842C487.18 569.842 486.861 569.842 486.702 569.683L486.543 569.205C487.02 569.365 487.498 569.365 487.816 569.205ZM484.633 569.365C484.792 569.365 484.792 569.365 484.633 569.365H484.951V569.524C484.633 569.524 484.155 569.365 483.837 569.365C484.155 569.365 484.473 569.365 484.633 569.365ZM448.338 561.405C452.636 560.768 458.207 562.042 463.142 563.475C463.301 564.111 465.848 571.912 461.232 583.214C460.913 584.169 460.118 584.169 460.118 584.169C458.207 583.055 456.615 582.1 455.342 581.304C446.586 575.891 441.333 568.728 440.219 567.295C440.378 566.022 441.811 562.201 448.338 561.405ZM536.051 622.852C535.732 623.489 534.936 625.081 533.663 626.991C533.504 627.309 533.185 627.468 532.867 627.309C529.524 626.036 521.405 622.693 517.425 621.26C513.605 619.987 506.919 617.121 503.258 615.529C501.984 615.052 501.188 614.574 500.711 614.415C499.278 613.778 498.004 612.505 498.004 612.505C497.845 612.346 497.686 612.186 497.527 612.186C497.527 612.186 494.502 611.868 491.478 610.435C488.453 609.003 468.714 599.133 464.097 596.108C463.142 595.472 462.187 594.835 461.073 594.198C456.456 591.173 450.248 587.194 446.268 584.169C441.174 580.189 435.921 573.981 436.717 571.434C437.672 568.409 438.149 568.091 438.468 568.091C438.468 568.091 438.627 568.091 438.786 568.091C438.945 568.091 438.945 568.091 439.105 568.091C440.219 569.524 445.472 576.846 454.705 582.577C463.938 588.308 485.429 600.406 507.237 609.639C525.385 617.44 534.618 620.305 536.847 621.101C536.369 621.419 536.369 622.056 536.051 622.852ZM547.831 589.741L547.671 591.014C547.194 595.79 546.557 603.113 543.851 608.684C541.463 613.937 537.961 618.236 536.847 619.509C534.777 618.872 525.544 616.007 507.397 608.207C489.886 600.725 472.534 591.333 461.55 585.124C461.869 584.806 462.346 584.328 462.505 583.851C466.485 573.981 465.371 566.818 464.734 564.111C467.599 565.066 469.987 566.022 471.579 566.499L472.216 566.658C472.853 566.818 473.489 567.136 474.285 567.613C474.604 567.773 474.922 567.932 475.24 568.091C475.4 568.25 475.559 568.409 475.718 568.409C475.718 568.409 475.877 568.409 476.196 568.569C478.902 569.683 482.404 571.116 487.02 571.593C486.543 572.548 486.065 573.663 485.588 574.299C485.269 574.618 485.429 575.095 485.747 575.414C485.906 575.573 486.065 575.573 486.224 575.573C486.543 575.573 486.702 575.414 486.861 575.255C487.498 574.299 488.135 573.026 488.772 571.752C490.523 571.912 492.433 571.912 494.502 571.752C494.343 573.185 494.025 574.777 494.025 575.414C494.025 575.891 494.184 576.21 494.661 576.369H494.821C495.139 576.369 495.617 576.051 495.617 575.732C495.776 574.936 495.935 573.344 496.253 571.752C496.89 571.752 497.527 571.593 498.323 571.434C498.8 571.434 499.119 571.275 499.596 571.275C499.596 571.275 499.596 571.275 499.756 571.275C499.915 571.275 499.915 571.275 500.074 571.275C500.074 571.275 500.074 571.275 500.233 571.275C500.711 571.275 501.029 571.116 501.347 571.116C501.188 572.867 501.029 574.777 501.029 575.732C501.029 576.21 501.347 576.528 501.825 576.528C502.303 576.528 502.621 576.21 502.621 575.732C502.621 574.618 502.78 572.708 502.939 570.797C505.486 570.32 507.556 569.842 509.307 569.524C510.899 571.752 512.491 573.663 512.491 573.822C512.65 573.981 512.809 574.14 513.127 574.14C513.287 574.14 513.446 574.14 513.605 573.981C513.923 573.663 514.083 573.185 513.764 572.867C513.764 572.867 512.491 571.116 510.899 569.205C514.083 568.409 516.152 567.773 517.585 567.454C518.062 567.295 518.381 567.295 518.699 567.136C520.291 566.658 522.042 566.818 522.838 567.454C523.156 567.773 523.156 567.932 523.156 568.25V568.569C522.997 570.638 522.52 574.618 524.748 576.528C525.385 577.165 525.703 577.802 526.022 578.598C526.658 580.03 527.614 581.94 530.638 583.373C535.095 585.602 540.667 587.194 543.532 587.353C544.169 587.353 544.965 587.353 545.443 587.353C546.398 587.353 547.353 587.353 547.671 587.671C547.831 587.671 547.831 588.467 547.831 589.741ZM597.497 528.294L596.383 529.727C590.652 536.731 580.783 545.168 572.823 552.013C568.047 556.152 563.909 559.654 561.521 562.201C554.835 569.046 546.875 584.806 546.557 585.443C546.079 585.443 545.602 585.443 545.284 585.443C544.647 585.443 544.169 585.443 543.532 585.443C540.826 585.124 535.414 583.532 531.116 581.622C528.728 580.349 527.932 579.075 527.295 577.642C526.818 576.846 526.499 575.891 525.544 575.095C523.952 573.663 524.271 570.161 524.43 568.409V568.091C524.589 567.295 524.271 566.499 523.475 566.022C522.997 565.544 522.201 565.385 521.405 565.226C523.315 563.793 526.499 561.246 527.932 559.813C530.001 557.903 534.936 551.695 540.508 542.621C546.398 533.07 561.202 509.35 570.276 495.183C575.848 486.586 579.509 478.945 582.374 472.737C584.444 468.439 586.195 464.778 587.946 462.071C591.448 456.659 595.746 452.838 599.885 449.495C600.363 449.655 601.477 449.814 602.91 449.814C605.775 449.814 610.551 448.859 616.282 444.561C616.6 444.242 616.759 443.765 616.441 443.446C616.122 443.128 615.645 442.969 615.327 443.287C608.8 448.222 603.865 448.381 601.636 448.063C601.796 447.904 602.114 447.744 602.273 447.585L603.228 446.948C604.343 446.152 605.298 445.357 606.094 444.72C609.277 442.173 610.869 440.74 613.735 439.785C617.396 438.511 626.311 436.601 629.335 436.283C631.882 435.964 635.703 437.715 638.409 440.422C640.478 442.491 640.797 450.291 640.956 455.385C640.956 456.181 640.956 457.137 641.115 457.773C641.434 463.345 637.613 476.558 636.499 479.901C635.703 482.129 634.907 484.835 634.588 486.109C630.131 484.995 627.107 484.039 625.037 482.925C625.037 482.607 625.196 482.288 625.196 482.129C625.196 481.652 624.878 481.333 624.4 481.333C623.923 481.333 623.604 481.652 623.604 482.129C622.172 498.366 606.73 517.151 597.497 528.294ZM615.327 506.963C618.67 501.55 621.535 495.979 623.286 490.407C627.425 492.476 635.544 494.387 646.528 496.456C646.368 496.934 646.368 497.57 646.209 498.207C644.458 511.42 640.956 539.278 639.205 551.376C637.295 564.748 634.748 579.393 633.156 582.1C632.519 583.214 631.405 584.487 630.29 585.92C623.923 582.577 622.649 579.871 622.49 579.553L615.327 506.963ZM622.172 605.341C622.968 604.068 623.764 602.157 624.4 600.088C624.56 599.451 624.719 598.974 625.037 598.337C625.515 596.745 626.151 594.994 626.788 593.561C627.743 591.173 629.654 588.786 631.405 586.716C632.678 585.283 633.792 584.01 634.429 582.736C636.817 578.757 640.16 555.993 640.797 551.535C642.548 539.437 646.209 511.579 647.801 498.366C647.96 497.57 647.96 496.774 648.119 495.979C648.438 493.75 648.915 491.84 649.393 489.929C651.622 481.652 654.805 476.08 655.92 474.488C656.716 473.533 657.034 472.419 657.512 471.145C658.148 469.076 659.103 466.21 662.128 461.753C667.222 454.43 674.863 452.202 687.121 450.928C699.06 449.655 704.95 461.753 708.93 469.872L709.407 470.827C712.75 477.513 709.566 495.023 708.93 498.685C708.77 498.685 708.611 498.685 708.452 498.685L705.109 498.048C706.701 492.954 706.86 491.84 707.019 491.68C707.178 491.203 706.86 490.885 706.383 490.725C705.905 490.566 705.587 490.885 705.427 491.362C705.427 491.362 704.791 493.75 700.97 506.167C697.15 518.265 686.484 540.87 680.594 553.286C678.206 558.221 666.426 583.055 664.357 591.333C663.561 594.357 661.173 603.909 659.581 606.137C657.989 608.366 658.308 611.231 658.785 615.052C659.103 618.076 657.512 622.534 652.895 626.036C649.552 628.583 645.254 626.991 643.981 626.513C643.981 624.125 643.503 622.056 642.389 619.987C640.001 615.689 635.384 612.505 629.654 611.55C626.629 610.913 623.604 611.868 620.898 613.301C619.306 612.027 619.147 610.594 619.147 610.117C619.625 609.321 621.057 607.252 622.172 605.341ZM592.244 639.885C593.995 638.293 595.746 636.701 597.338 635.11C603.069 629.379 607.367 622.374 610.073 617.599L610.869 616.166C613.416 611.868 616.282 610.913 617.714 610.754C617.874 611.55 618.351 612.982 619.625 614.097C615.327 616.803 612.302 620.464 611.984 620.783C611.665 621.101 611.824 621.578 612.143 621.897C612.461 622.215 612.939 622.056 613.257 621.738C613.416 621.578 621.694 611.55 629.494 612.982C634.748 613.937 639.046 616.803 641.115 620.623C642.866 623.807 643.025 627.468 641.434 631.607C637.295 642.114 623.127 653.416 623.127 653.575C622.808 653.894 622.649 654.371 622.968 654.69C623.127 654.849 623.286 655.008 623.604 655.008C623.764 655.008 623.923 655.008 624.082 654.849C624.719 654.371 638.568 643.228 642.866 632.244C643.344 630.811 643.821 629.538 643.981 628.105C644.936 628.583 646.687 629.06 648.597 629.06C650.348 629.06 652.258 628.583 654.009 627.309C656.079 625.717 657.671 623.807 658.785 621.738C657.989 628.583 653.054 639.567 650.666 643.228C650.189 644.024 649.711 644.661 649.234 645.457C646.846 648.959 644.458 652.461 642.229 658.033C640.319 662.808 636.976 669.176 632.837 675.543C632.36 675.862 631.882 676.339 631.245 676.658C631.086 676.658 630.768 676.658 630.609 676.658C629.654 676.339 628.698 675.225 628.221 674.27C628.221 674.111 628.062 673.952 628.062 673.633C625.355 665.196 617.237 658.351 604.024 653.098C594.632 649.277 587.469 647.845 581.26 651.824C581.101 651.984 580.942 651.984 580.783 652.143C582.852 648.641 587.628 644.183 592.244 639.885ZM579.827 653.894C580.623 654.053 581.419 653.575 582.215 653.098C587.15 649.914 592.722 650.232 603.547 654.531C616.282 659.625 624.082 666.151 626.629 674.111C626.788 674.429 626.788 674.748 626.947 674.907C627.425 675.862 628.38 677.135 629.494 677.772C617.714 685.095 603.228 685.572 589.22 678.886C575.052 672.2 576.962 662.808 577.28 661.535C578.076 658.829 578.872 656.122 579.827 653.894ZM625.833 684.776C618.351 693.532 596.542 692.258 586.195 686.846C575.529 681.274 575.211 673.315 575.689 670.131C575.848 669.335 576.007 668.221 576.166 667.266C577.28 671.245 580.305 676.18 588.742 680.16C595.587 683.344 602.432 684.936 609.277 684.936C616.759 684.936 624.082 682.866 630.609 678.886C628.858 680.956 627.425 683.025 625.833 684.776ZM1068.06 556.789C1067.26 560.45 1064.88 563.793 1063.12 566.499C1062.01 568.091 1061.06 569.524 1060.58 570.797C1060.58 570.797 1058.03 575.414 1053.57 585.124C1050.39 591.81 1046.25 598.337 1042.43 604.068C1040.84 606.456 1039.41 608.843 1038.13 610.913C1033.52 618.554 1031.61 623.807 1030.81 626.195C1030.49 627.468 1029.85 628.583 1029.54 629.697C1028.74 631.607 1028.1 633.358 1027.78 635.11C1027.63 636.383 1027.63 636.383 1027.47 637.179C1027.31 637.975 1027.15 639.567 1026.51 644.183L1026.03 647.845C1025.08 655.167 1024.12 661.376 1022.37 665.037C1020.78 668.38 1018.07 671.405 1016.32 673.156C1016 673.474 1015.69 673.952 1015.37 674.111C1015.21 674.27 1015.05 674.588 1014.73 674.907C1013.3 676.658 1010.59 680.001 1007.41 681.752C1005.02 683.025 1003.11 682.707 1002.16 682.389C1002.47 682.229 1002.63 681.911 1002.79 681.752C1003.59 680.956 1004.38 680.319 1005.02 679.682C1006.13 678.727 1007.09 677.772 1007.89 676.817C1009.16 675.225 1010.11 673.792 1010.11 673.792C1010.43 673.474 1010.27 672.996 1009.96 672.678C1009.64 672.36 1009.16 672.519 1008.84 672.837C1008.84 672.837 1007.89 674.27 1006.61 675.862C1005.98 676.817 1005.02 677.613 1003.91 678.568C1003.27 679.205 1002.47 679.842 1001.52 680.797C1000.24 682.07 998.175 683.503 996.106 685.095C994.514 686.368 992.763 687.483 991.171 688.915C989.102 690.666 987.191 690.348 986.396 689.393C985.759 688.597 985.6 687.323 986.714 686.209C987.191 685.891 987.669 685.572 988.147 685.095C991.012 683.025 994.355 680.637 995.947 678.727C997.22 677.295 1002.63 669.972 1002.79 669.813C1003.11 669.494 1002.95 669.017 1002.63 668.698C1002.31 668.38 1001.84 668.539 1001.52 668.858C1001.52 668.858 996.106 676.339 994.673 677.772C993.081 679.523 989.898 681.911 987.032 683.98C986.555 684.299 986.077 684.617 985.759 684.936C985.759 684.936 985.759 684.936 985.6 684.936C984.485 685.732 983.689 686.368 982.893 687.005C980.187 689.234 978.277 688.119 977.799 687.642C977.322 687.323 977.163 686.846 977.003 686.368C977.003 685.732 977.322 684.936 977.64 684.617C978.277 683.821 984.008 678.409 986.236 676.499C986.236 676.499 986.236 676.339 986.396 676.339C986.873 676.021 987.191 675.703 987.669 675.384L988.465 674.748C990.057 673.474 995.947 666.788 996.584 665.992C996.902 665.674 996.743 665.196 996.424 664.878C996.106 664.559 995.628 664.719 995.31 665.037C994.833 665.674 988.943 672.36 987.51 673.474L986.714 674.111C985.281 675.225 983.53 676.658 982.893 677.295L982.734 677.454C981.938 678.409 979.869 680.319 978.118 681.115C976.526 681.911 975.252 681.115 974.616 680.16C973.979 679.046 974.616 677.295 975.571 676.339C976.685 675.066 979.55 671.723 980.506 670.609C980.824 670.131 981.461 669.653 982.097 669.017C983.053 668.062 984.326 666.788 985.281 665.515C985.759 664.878 986.236 664.241 986.714 663.763C987.828 662.331 989.261 660.898 990.216 658.669C990.853 657.396 991.33 655.486 991.967 653.416C992.763 650.869 993.4 648.163 994.355 646.89C995.947 644.661 1000.24 641 1000.24 641C1000.56 640.681 1000.56 640.204 1000.4 639.885C1000.09 639.567 999.608 639.567 999.29 639.726C999.131 639.885 994.833 643.387 993.081 645.934C991.967 647.367 991.171 650.232 990.534 652.939C990.057 654.849 989.42 656.759 988.943 657.874C987.987 659.784 986.873 661.057 985.759 662.49C985.6 662.012 985.44 661.216 985.6 660.102C985.759 659.147 986.077 657.874 986.396 656.282C987.032 654.053 987.669 651.188 988.147 647.845C988.783 642.751 988.943 642.591 990.057 641.159L990.375 640.84C994.196 636.065 997.22 632.722 999.131 631.13C1001.68 629.06 1002.31 627.787 1003.11 625.877C1003.27 625.399 1003.43 624.921 1003.75 624.285C1004.38 623.011 1004.7 622.534 1005.18 621.897C1005.82 621.101 1006.61 620.146 1008.2 617.121C1009.8 613.937 1011.23 609.639 1013.46 603.113C1015.21 597.859 1017.28 591.333 1020.46 582.736C1024.76 570.956 1027.94 562.201 1029.69 558.381V558.221C1029.85 557.107 1030.33 555.674 1030.65 554.878H1031.13C1034.31 555.197 1036.38 556.47 1036.54 556.47C1036.86 556.629 1037.34 556.629 1037.65 556.152C1037.81 555.834 1037.81 555.356 1037.34 555.038C1037.34 555.038 1036.06 554.401 1034.31 553.764C1036.22 553.287 1039.09 552.809 1042.91 552.65C1043.39 552.65 1043.7 552.331 1043.7 551.854C1043.7 551.376 1043.23 551.058 1042.91 551.058C1036.22 551.376 1032.24 552.65 1031.13 552.968C1030.49 552.65 1028.42 551.376 1025.87 548.192C1022.53 544.213 1008.05 518.583 1007.25 517.151C1007.73 517.151 1008.2 516.991 1008.68 516.991C1012.34 516.673 1017.76 516.355 1032.56 509.35C1039.72 506.007 1043.86 502.028 1046.41 498.366C1053.41 510.146 1066.94 542.143 1068.06 544.85C1069.49 548.192 1069.49 550.74 1068.06 556.789Z" fill="black"/>
<path d="M873.053 493.114C873.932 493.114 874.645 492.401 874.645 491.522C874.645 490.643 873.932 489.93 873.053 489.93C872.174 489.93 871.461 490.643 871.461 491.522C871.461 492.401 872.174 493.114 873.053 493.114Z" fill="black"/>
<path d="M880.536 479.421C881.415 479.421 882.128 478.708 882.128 477.829C882.128 476.95 881.415 476.237 880.536 476.237C879.657 476.237 878.944 476.95 878.944 477.829C878.944 478.708 879.657 479.421 880.536 479.421Z" fill="black"/>
<path d="M890.404 467.802C891.284 467.802 891.996 467.09 891.996 466.211C891.996 465.331 891.284 464.619 890.404 464.619C889.525 464.619 888.812 465.331 888.812 466.211C888.812 467.09 889.525 467.802 890.404 467.802Z" fill="black"/>
<path d="M950.418 440.103C947.871 441.535 944.847 442.172 944.847 442.172C944.369 442.331 944.21 442.65 944.21 443.127C944.21 443.445 944.688 443.764 945.006 443.764H945.165C945.324 443.764 948.508 443.127 951.214 441.535C951.533 441.376 951.692 440.898 951.533 440.421C951.214 439.943 950.737 439.943 950.418 440.103Z" fill="black"/>
<path d="M779.45 653.576C775.948 653.576 773.241 654.85 771.331 657.397C769.739 659.625 768.943 662.65 768.943 666.311C768.943 669.973 769.739 672.997 771.331 675.226C773.241 677.773 775.788 679.046 779.45 679.046C782.952 679.046 785.658 677.773 787.568 675.226C789.16 672.997 790.115 669.973 790.115 666.311C790.115 662.65 789.32 659.625 787.568 657.397C785.658 654.85 782.952 653.576 779.45 653.576Z" fill="black"/>
<path d="M746.178 353.027C746.178 352.709 746.337 352.39 746.337 352.231C747.133 349.366 748.088 347.296 748.884 345.863C749.044 345.545 749.203 345.386 749.362 345.067C749.521 344.749 749.68 344.431 749.84 344.272L739.174 343.635C739.015 343.794 738.855 344.112 738.696 344.431C738.537 344.59 738.537 344.908 738.378 345.227C738.378 345.227 738.378 345.227 738.378 345.386C738.378 345.704 738.219 346.023 738.219 346.341C738.219 346.659 738.219 346.978 738.219 347.296L746.019 353.982C746.019 353.504 746.178 353.186 746.178 353.027Z" fill="black"/>
<path d="M736.787 345.704C736.787 345.386 736.946 345.067 736.946 344.749C736.946 344.59 736.946 344.59 737.105 344.431C737.264 344.112 737.264 343.794 737.423 343.635H736.628C736.309 343.635 735.991 343.794 735.991 344.112C735.832 344.431 735.991 344.749 736.15 344.908L736.787 345.704Z" fill="black"/>
<path d="M808.264 375.314L808.9 375.473C809.219 375.633 809.537 375.633 809.856 375.633C810.174 375.633 810.651 375.473 810.97 375.314C811.607 374.996 812.084 374.518 812.243 373.882C812.721 372.608 812.084 371.175 810.811 370.698C810.651 370.539 810.333 370.539 810.174 370.539L809.856 371.335L809.537 372.13L808.741 374.041L808.423 374.837L808.264 375.314Z" fill="black"/>
</g>
<defs>
<clipPath id="clip0">
<rect width="1243" height="767" fill="white"/>
</clipPath>
</defs>
</svg>
