<svg id="Layer_1" xmlns="http://www.w3.org/2000/svg" viewBox="0 0 409 478"><style>.st0{fill:#fff}</style><path class="st0" d="M400.336 357.463c-.7-.8-3.936-4.263-3.936-4.263l-17.2-23-19.4-40.2-15.8-4.7-28.4 5.6c-.9-1.4-3.2-4.4-7.2-9.6-5.6-7.2-15.7-9.7-15.7-9.7s-1.4-2.5-6.8-6.4-10.5-5.2-10.5-5.2l-6.9-6.2s12.9-9.2 15.3-19c1-4.2 1.5-7.6 1.8-10.1l6.4 1.2s2.4-4.6 3.6-15.9 1.2-23 2-26.9 2.5-17.4 1.1-26.2-6.8-18.8-6.8-18.8l-8.584-12.41h-1.125l-1.59-5.29-4.1-34-27.7-1.1s-1.5 3.6-1.8 7.1-.2 5-.4 6.2-2.8 6-2.9 7.2c-.1 1.2-.92 3.33.28 3.73 1.1.4 2.34.49 2.34.49l.59 5.58-1.32 3.18-5.38-4.196-7.23-13.124-9.25-16.16-2.46-4.172L219 77.1l-3.353-6.727L212 65.277c-2.6-3.4-3.077-6.307-5.077-8.307s-3.507-3.666-4.407-2.666.28 2.48 1.18 4.08 2.92 5.134 2.92 5.134l-7.927-1.487s-4.96.51-5.46.71-1 1.39-.6 2.09 4.86.63 4.86.63-4.53 1.21-5.23 1.61-.6 2.4.5 2.3.29 1.32.69 2.02 1.4.8 1.4.8.07 1.64 2.57 1.34 3.47-.48 4.17.22 2.83 1.83 3.93 4.23c1 2.4 4.76 5.71 5.56 6.11s2.35 1.67 3.35 4.37 9.27 25.43 10.17 28.53 2.16 7.96 4.36 9.96 3.3 2.49 5 4.79 11.11 10.56 11.11 10.56l3.26 3.22 3.83 7.31s-.65 7-2.05 10.5c-3.37 7.13-3.1 19.38-3.1 19.38s-5.09-.17-6.19-.47-2.97-.93-2.97-.93l-2.67-.72s-.53-3.15-.93-5.65c-.4-2.4-2.49-3.39-3.69-3.59s-3.35-.42-3.35-.42l-2.8-4.07-9.41 9.95v-19.3l-26.9-74.4s-10.86-10.09-14.84-14.72c-.56-.64-1.17-1.5-1.44-1.87-2.2-3-5.17-3.97-5.17-3.97l-1.78 4.92s-.57-1.57-1.77-3.17c-1.2-1.7-3.71-3.44-3.71-3.44l-.97 2.07-3.15-6.11s-.18-1.01-.18-1.91-.59-1.25-.59-1.25l-2.21-4.96s-.66-2.26-.66-2.96-.44-1.29-.44-1.29l-2.5-5.14s-1.11-2.85-1.11-3.75-.47-1.36-.47-1.36l-2.72-5.59s-.85-2.56-.85-3.26-.52-1.4-.52-1.4l-2.14-5.64s-.88-.49-.88-1.29-.57-1.25-.57-1.25l-2.29-2.53s-.24-2.63-.24-3.43-.61-1.16-.61-1.16L133.6 8s-.615 1.885-.715 2.685c-.1.9.255 1.274.255 1.274L135.3 16s-.083 1.69-.24 2.474c-.164.832.227 1.283.227 1.283L137.8 25.2s-.056 1.252-.218 2.137c-.153.835.224 1.27.224 1.27L139.6 32.7s.697 4.383.697 5.083c-.243.835.147 1.287.147 1.287l1.956 4.53s.593 4.316.393 5.116c-.257.683.094 1.305.094 1.305l2.313 6.68s.373 2.15.173 2.85c-.172.83.11 1.31.11 1.31L148 66.6l.088 3.524s-.293.603.178 1.308c.572.856 1.234 1.068 1.234 1.068l7.3-2.4-7.7 4.8s-7.482 5.488-12.782 8.788-11.13 5.406-11.13 5.406l-2.066-.032L118.6 91.2l-.2 1.2s-1.354 1.167-4.754 2.767c-3.4 1.7-7.758 1.87-9.158 1.97-1.003.073-5.485.706-9.03 5.534-1.406 1.92-2.978 5.37-2.978 8.58 0 11.3 3.18 10.62 6.68 12.32s9.14 2.51 9.14 2.51 2.637-.9 8.337-1.7c2.9-.4 4.963-1.07 8.063-1.17.2 4.4 1 16.2 2.6 23.7 1.5 7.1 6 16.7 8 20.8-7.3 8.1-15.1 16.7-19.2 23.3-5.3 8.7-10.9 24.4-10.9 27.3 0 3-2.1 6.1-5.6 11.3C96.2 234.8 97 244 97 244s-1.8-.3-9.7-1c-7.8-.7-9.7 2.1-11 3.5-1 1.1-3.55 7.563-4.85 10.163-4-1.9-8.373-3.573-9.473-4.073-2.7-1.4-5.41-.074-10.61 1.326s-6.68 1.99-6.68 1.99S41 261.6 37 267c-4.1 5.5-12.395 11.956-17.795 15.856S13 287.7 13 287.7s-1.726 10.37-2.226 15.57.126 7.83.326 8.13c.2.3.6 1.2.7 2.3s2.4 7.9 4.4 9.7c2 1.8 1.99 2.423 3.29 1.423S25.9 313.6 26.8 311s0-3.1-.9-3.8c-.9-.7-2.67-1.703-2.67-1.703L22.1 301.3s1 .4 2.6-.5c1.5-.9 1.2-2.2 1.7-3.9s1.7-3.6 6.4-9.8c4.6-6.1 14.646-14.506 17.146-17.506s5.78-2.368 5.78-2.368l7.767 4.595s-8.378 8.34-10.278 11.94c-1.9 3.7-1.32 3.5-.52 5.4s.405 6.25.505 8.95c.1 2.7 2.24 8.87 2.24 8.87l.46 1.03s4.898 7.89 5.698 9.29 2.18-.04 2.18-.04S70.4 304.2 71.1 302.7s.103-1.503-.597-2.603-1.942-1.326-1.942-1.326-.64-1.1-.94-1.7-1.78-.96-2.18-1.66.39-1.62 1.09-2.32 1.37-4.29 2.77-10.29 2.72-6.19 2.72-6.19l10.52 5.31 12.13 5.26s11.19 3.42 14.59 6.02 5.56 1.54 7.06 1.04 7.68-4.59 7.68-4.59 7.72 6.54 14.12 12.22c8.39 7.58 19.94 15.3 19.94 15.3L169 322.3s-1.7 4.1-1.8 5.5-.402 2.99-.402 2.99 7.168 3.3 9.568 4.5c2.5 1.2 5.2 2.048 5.4.948s1.942-4.595 1.942-4.595l9.19 3.316s21.02 12.02 23.92 13.92c3 2 3.182 5.11 3.882 11.31s1.2 11.06 5.4 20.46c4.1 9.3 15.3 18.33 20.7 23.53 5.4 5.1 5.7 9 2.1 13.8-3.6 4.8-21.6 15.4-21.6 15.4l-40.4 10.4-14.1 17 27.4 5.5 50.7-32.1s22.3-12.2 26.8-15.2.3-6.2.3-6.2c-3-3.3-8.3-11.6-8.3-11.6s-8.26-13.72-9.26-16.32c-1-2.6.36-4.39.36-4.39.4-.5 1-1 1.6-1.5.6.9 2.1 2.8 6.1 6.3 8.1 7.3 16.856 11.28 16.856 11.28s13.784 1.37 13.444 5.72c-.406 5.18-.318 5.07-5.818 12.47S272.4 436.2 272.4 436.2l-25.8 7-6.5 16.7 25.8 6.5 23.9-28.2s1.6-3.3 12.5-14.6c11-11.3 20.6-19 20.6-19 6.5-6.3 0-10 0-10s-8.77-7.975-14.57-10.475-8.73-5.625-10.13-9.325c-1.4-3.7-.4-6.9 5.4-14.3s10.8-17.2 10.8-17.2l2.8-2.6 14 5.5 63.4 17.8 6.516-4.306c-.1.3-.08-1.43-.78-2.23zM91 263.1c-3-.2-6.76-.8-6.76-.8S82 261.2 81.4 261c1-1.2 2.6-3.1 3.1-3.6.7-.8 3.2-1.2 5.8.8 1.6 1.2 2.7 3.5 3.3 5-.9-.1-1.8-.1-2.6-.1zm51-102.9c-1.4 1.7-3 3.4-4.6 5.2-1.4-2.7-6.4-12.4-8.1-22.7-1.4-8.5-1.673-15.336-1.673-19.136 1.8 0 3.126.232 4.026.332 2.7.4 10.757 2.684 11.557 2.984.7.3 7.815 5.826 7.815 5.826s.675 3.995 1.275 8.595c.7 4.7-1.8 9-10.3 18.9zm103.5 49.6c-.7.9-1.6 1.9-2.2 2.4-1.4 1-4.1 1.3-8.4 2-4.4.7-13.9 2.3-13.9 2.3l-5-4.6-1.4-5.5v-16.3l8.1-1.6s4.4 1.2 6.1 1.6 1.9.8 2.4 1.1 2.2.9 4.1 1.1 4.1 1 4.1 1l6.8 2.1s-1.2 11.7-1.3 12.6c-.2.3.2 1.2.6 1.8z"/><path d="M168.006 129.74s.02 0 .03-.002c.247-.01 6.114-.384 10.958-9.623a.644.644 0 1 0-1.142-.6c-4.47 8.527-9.826 8.93-9.88 8.935a.645.645 0 0 0 .034 1.289zM63.384 263.012c-5.067-2.956-8.215-3.697-12.41.077-2.364 2.12-8.148 6.52-12.795 10.05-3.16 2.39-5.89 4.46-6.82 5.28-.92.8-1.87 1.51-2.71 2.13-1.3.97-2.32 1.74-2.8 2.48a.635.635 0 0 0 .53.99c.21 0 .42-.11.54-.3.35-.55 1.33-1.29 2.48-2.15.85-.64 1.82-1.37 2.77-2.2.9-.79 3.61-2.85 6.75-5.23 4.66-3.55 10.47-7.96 12.88-10.12 3.64-3.28 6.19-2.67 10.89.08.3.18.7.07.88-.23.18-.31.08-.71-.23-.88zm24.166-10.984a.642.642 0 0 0 .822-.4.644.644 0 0 0-.4-.82c-6.495-2.234-9.4 2.42-9.428 2.466a.644.644 0 0 0 .557.979c.22 0 .43-.11.55-.308.1-.158 2.43-3.805 7.91-1.917zm44.98-71.69c-13.752 13.65-14.983 24.156-15.03 24.596a.646.646 0 0 0 1.284.132c.01-.102 1.228-10.483 14.655-23.813.25-.25.25-.66 0-.913s-.66-.253-.92-.002zm-26.1-74.858c.167-1.255-.06-2.137-.675-2.625-.804-.642-1.865-.266-1.986-.223-.34.127-.5.5-.38.833.12.33.5.497.83.374.07-.03.51-.14.72.02.22.17.29.71.19 1.44-.27 2.03-3.71 2.88-5.01 3.03a.641.641 0 0 0 .07 1.28c.02 0 .05 0 .07-.01.23-.03 5.68-.7 6.14-4.14zm89.675 130.824a.646.646 0 0 0-.33-.843.65.65 0 0 0-.853.33c-.037.09-.882 2.07 1.04 5.19.12.2.333.31.55.31.115 0 .232-.03.338-.09a.647.647 0 0 0 .21-.89c-1.526-2.47-.986-3.91-.955-3.99zm48.663-21.302a.642.642 0 0 0-.887.21l-.25.422c-.93 1.545-2.08 3.467-6.79 5.536-5.32 2.34-8.39 3.713-8.39 3.713a.643.643 0 0 0-.32.852.656.656 0 0 0 .86.325s3.07-1.37 8.39-3.708c5.09-2.235 6.36-4.35 7.38-6.052l.25-.41c.19-.303.1-.7-.21-.888zm-24.628 18.664c-1.4-7.78.753-13.717.775-13.776a.647.647 0 0 0-1.21-.452c-.095.253-2.303 6.31-.837 14.457 1.458 8.102 5.49 14.336 5.66 14.597a.644.644 0 0 0 .894.187c.3-.2.382-.6.188-.9-.04-.06-4.06-6.29-5.47-14.12zm69.22-35.956a.644.644 0 0 0-.644-.633h-.013a.645.645 0 0 0-.633.658c.01.523.257 12.876 1.473 17.416.078.29.34.48.624.48.055 0 .11 0 .166-.02.345-.09.55-.44.458-.79-1.17-4.39-1.42-16.98-1.43-17.11zm-37.556 16.006c-.038.034-.108.086-.204.16-4.817 3.663-5.326 8.07-4.906 11.12.96 6.968 2.894 7.74 3.462 7.812a.578.578 0 0 0 .083.005c.32 0 .62-.233.66-.56.04-.353-.18-.67-.53-.715-.02-.005-1.56-.59-2.41-6.72-.55-3.94.94-7.277 4.41-9.916.16-.126.28-.217.33-.267a.645.645 0 0 0 0-.894c-.24-.25-.65-.25-.91-.02zm27.75-75.042c7.41.523 9.56 9.258 9.583 9.345.07.29.335.49.628.49a.651.651 0 0 0 .627-.8c-.023-.1-2.382-9.75-10.746-10.34-.32-.02-.664.24-.69.6-.025.35.243.66.6.68zm-9.404-29.532a.645.645 0 0 0 .83.37c.123-.047 2.997-1.177 2.997-3.98 0-.795-.31-1.26-.568-1.51-.54-.512-1.21-.503-1.3-.503-.36.01-.64.31-.63.66.01.35.31.62.67.62 0 0 .21.01.35.14.11.11.17.3.17.58 0 1.91-2.08 2.74-2.17 2.77-.33.13-.5.5-.37.83zM148.96 99.39c1.205 0 2.55-.283 4.036-.847 3.96-1.505 4.934-3.52 5.163-4.588.18-.85.01-1.683-.42-2.12-.73-.724-1.51-1.143-3.23-1.048-2.75.124-6.83.153-8.52 0-1.08-.094-2.15.443-2.76 1.416-.69 1.084-.67 2.465.05 3.696 1.36 2.33 3.24 3.49 5.67 3.49zm-1.108-6.49c.52 0 .954.3 1.183.727.103.19.176.4.176.63 0 .494-.27.906-.66 1.144-.2.13-.43.22-.69.22-.4 0-.75-.18-1-.46-.21-.24-.35-.55-.35-.89 0-.6.4-1.09.95-1.27.14-.04.27-.08.42-.08zm-14.755-82.29a9.118 9.118 0 0 0 .984-.433c.35-.177.74-.407 1.16-.696.15-.1.29-.19.44-.31.09-.06.17-.14.26-.21.13-.1.25-.19.37-.3.02-.01.03-.01.04-.02-.42-1.4-1.56-4.38-4.4-7.59a.642.642 0 0 0-1.12.45c.11 3.81 1.55 7.86 2.08 9.21l.22-.07z"/><path d="M401.083 359.45a3.084 3.084 0 0 0-.207-.14c-.095-.056-.178-.114-.272-.17-.245-.142-.47-.29-.71-.435-.238-.145-.474-.29-.707-.436-13.82-8.66-18.132-20.4-18.314-20.92-.018-.05-.017-.11-.022-.16 0-.05-.01-.09 0-.13l.03-.12c.01-.04.02-.08.04-.12.02-.04.05-.07.08-.1s.05-.06.08-.09c.04-.03.08-.05.12-.07.03-.02.05-.04.08-.05.01-.01.02 0 .03-.01.04-.02.09-.02.13-.02.05-.01.09-.01.14-.01.04 0 .07.01.1.02.05.01.09.02.14.05.04.02.06.04.09.06.04.02.07.05.1.09.03.03.05.06.07.1.02.03.04.05.05.08.04.12 4.12 11.25 16.78 19.63.21.14.43.27.64.41.29.18.57.36.86.54-1.03-6.15-3.57-10.28-14.13-21.03-6.43-6.56-6.97-12.66-7.54-19.13-.43-4.88-.87-9.92-3.74-15.57-6.18-12.17-17.19-18.95-31-19.07-6.83-.05-14.3 1.27-20.35 2.34-4.66.82-8.68 1.53-10.8 1.33-6.46-10.58-17.72-14.47-19.69-15.08-.46-.91-2.25-3.59-8.29-7.42-5.6-3.55-8.18-4.05-9.11-4.09-.67-.71-2.95-3.04-6.2-5.66 5.76-3.16 11.08-11.67 11.14-11.77l.01-.01c.05-.06.1-.11.15-.17 3.63-5.53 4.81-10.87 5.1-14.83.91.3 2.37.77 3.37 1.02.45.11.84.16 1.18.16 1.28 0 1.81-.68 2-1.02.02-.03.02-.06.03-.1.01-.01.03-.02.03-.04 2.62-5.29 4.03-14.56 4.85-31.98.28-5.85.85-10.32 1.41-14.65.89-6.91 1.65-12.88.85-22.15-1.29-14.94-15.43-32.53-16.03-33.27a.633.633 0 0 0-.75-.18c-.01 0-.09.04-.19.09-.3-.45-.63-.96-.74-1.22-.12-.28-.23-.93-.32-1.4a6.05 6.05 0 0 0-.11-.58c.32-.49.51-.93.61-1.26 1.77-.19 7.54-1.33 7.78-7.85 2.47-2.37 1.92-7.81.52-10.16 4.29-7.68-.33-13.65-1.45-14.91.16-1.29.51-6.15-2.23-9.33-1.54-1.79-3.78-2.72-6.66-2.75-4.22-5.81-11.71-4.66-12.96-4.42-1.19-.35-8.2-2.27-12.28.43-5.09-.78-7.33 3.49-7.78 4.51-1.02.66-5.55 3.94-3.89 9.29-.61 1.56-.6 2.95.02 4.12.8 1.51 2.4 2.21 3.29 2.51-.15.71-.38 2.01-.38 3.34 0 .83.04 1.49.06 2.06.06 1.2.09 1.81-.28 2.48-.6 1.08-2.91 5.83-3.06 7.14-.01.1-.03.22-.06.34-.11.62-.28 1.55.4 2.24.48.49 1.26.73 2.42.73-.14.31-.27.67-.34 1.06-.17 1.08.1 2.59.57 3.17.16.2.2.45.11.72-.06.17-.25.97-.46 2.11-1.33-1.07-3.59-2.85-4.16-3.11-.29-.13-.77-.57-1.4-1.9-.38-.82-4.32-8.52-9.49-16.58-4.51-7.03-6.45-11.01-7.18-12.5l-.19-.38c-.11-.22-.22-.45-.33-.7-.42-.92-.95-2.07-1.81-2.95-1.19-1.23-1.78-2.78-2.46-4.57-.47-1.24-1-2.65-1.8-4.07-1.23-2.19-2.5-3.82-3.52-5.12-1-1.3-1.8-2.32-2.14-3.32-.39-1.18-.76-2.01-1.68-3.27-.83-1.15-1.86-2.4-2.6-3.31-.5-.61-.9-1.1-1.07-1.34-.85-1.23-2.3-1.41-3.2-.87-.7.41-1.28 1.41-.57 2.82.63 1.25 1.31 2.22 1.91 3.07.47.67.87 1.25 1.11 1.77l.23.45c.14.27.26.52.39.78l-5.29-1.13a8.287 8.287 0 0 0-3.74.05l-3.32.81c-.49.12-.92.44-1.17.89-.25.44-.3.97-.15 1.46.28.87 1.14 1.4 1.99 1.26l.61-.05-1.72.38c-.99.21-1.64 1.16-1.48 2.17.14.84.81 1.46 1.62 1.58a1.809 1.809 0 0 0 .06 1.88c.34.52.92.81 1.52.8l.04.19c.2.98 1.14 1.65 2.14 1.52l3.02-.37c.38-.06.77.01 1.12.19l1.4.7c.83.42 1.5 1.09 1.94 1.94 1.09 2.1 3.45 5.94 6.99 8.09l.21.14c.79.54 1.88 1.28 2.74 3.27.97 2.24 6.32 17.43 6.96 19.54.18.58.44 1.34.76 2.25.8 2.3 2.02 5.78 2.98 9.9 1.29 5.51 4.66 8.16 5.93 9.15l.26.2c1.05.846 2.06 1.97 3.51 3.89 1.62 2.13 10.21 9.664 12.88 11.75l-.43.553c-.31.39-.59.75-.85 1.07-.43.51-.4 1.28.08 1.75 1.07 1.05 1.91 1.82 2.57 2.36.86.7 1.67 1.41 2.63 2.6-.12.72-.19 1.42-.27 2.12-.19 1.8-.39 3.65-1.36 6.58-1.99 6.01-3.4 14.25-3.46 19.93l-2.44-.05c-.87-.02-1.53-.037-1.9-.05-.9-.024-1.68-.43-2.36-.794-.56-.3-1.05-.55-1.54-.554-1.26 0-1.95-.21-1.95-.21-.05-.02-.1-.02-.15-.02-.4-.67-.5-1.52-.63-2.61-.07-.55-.13-1.13-.25-1.748-.49-2.71-1.47-4.24-3.17-4.96-1.33-.57-3.2-.91-4.46-.85-.59-1.4-1.29-2.38-1.64-2.82.37-1.65.63-3.69.53-6.02-.24-5.5-3.25-9.36-4.17-10.41.36-1.3 1.45-5.83.5-10.56-.89-4.45-2.65-6.59-3.36-7.31.3-1.49 1.26-7.11-.09-11.68-1.3-4.41-4.17-7.17-5.16-8.02.41-1.73 1.68-8.35-1.35-13.43-2.74-4.6-5.99-6.07-7.29-6.5.12-1.95.09-8.43-4.9-12.55-4.55-3.77-8.05-4.11-9.39-4.16-.48-1.58-2.32-6.12-7.86-8-5.25-1.78-8.47-1.16-9.59-.82-.35-.59-.71-1.16-1.12-1.7-2.85-3.81-5.84-4.52-5.97-4.55-.05-.02-.21-.01-.21-.01-.12.01-.23.06-.32.14-.02.01-.03.03-.05.05-.08.08-.15.18-.17.3V62l-.01.01c0 .03-.38 1.88-.87 3.9-1.12-2.075-3.15-4.8-5.02-5.8a.64.64 0 0 0-.54-.03.672.672 0 0 0-.37.4c-.137.42-.23.88-.31 1.33-.14-.45-.29-.93-.467-1.45-.97-2.92-2.17-4.7-2.92-5.61-.23.234-.46.46-.68.68l-.24.23c-2.97 2.77-5.73 4.075-7.435 4.67a14.105 14.105 0 0 1-1.27.38c.06.93.26 2.36.79 4.415.7 2.71 1.39 4.15 1.81 4.86l.25.01c.17.01.37.02.6.02.195 0 .41 0 .64-.01 2.145-.07 5.71-.58 8.904-2.87.18-.13.36-.25.54-.39.05-.04.1-.09.15-.14.12-.05.21-.14.28-.25l.02-.02.14-.12-.05-.263c-.01-.13-.12-2.36.27-4.24 1.87 1.47 3.94 4.73 4.42 6.19-.32 1.16-.64 2.2-.93 2.76-.28.56-.63 1.4-1 2.33l-.02-.17-.113.02c-.43-2.06-1.41-4.152-2.03-5.35-.21.18-.43.34-.65.51-.14.1-.27.19-.4.29-3.48 2.45-7.26 2.96-9.55 3.01-.14.01-.27.01-.4.01h-.05c-.33 0-.61-.01-.85-.02-.01.92.08 2.26.41 3.64-2.06.9-4.38 2.43-7.675 4.6-1.08.72-2.272 1.503-3.6 2.36-6.68 4.33-11.67 6.12-12.41 6.37h-1.49c-.1 0-.2.03-.3.08L118 91.18a.64.64 0 0 0-.34.57v.78c-1.25.58-5.34 2.47-7.64 3.29-1.44.52-3.05.58-4.614.64-1.37.06-2.66.11-3.817.45-2.34.68-8.99 5.314-9.73 14.21-.76 9.125 3.63 11.503 4.99 12.014.29.11.74.314 1.31.57 2.38 1.08 6.55 2.973 9.7 2.973.46 0 .9-.04 1.3-.13.43-.094.96-.22 1.58-.37 2.95-.714 7.83-1.88 13.6-2.05-.03 9.116 1.14 28.23 10.19 43.377-5.68 6.36-12.06 13.67-16.67 19.99-8.97 12.287-12.16 25.418-13.27 32.15-.46 2.81-2.06 5.05-3.75 7.42-1.8 2.516-3.65 5.116-4.03 8.45-.26 2.277-.37 5.16-.31 8.16-1.83-.325-6.44-1.1-9.88-1.26-4.36-.204-7.95.02-11.31 4.75-2.52 3.546-3.84 7.22-4.33 8.756-1.55-.724-3.04-1.43-4.36-2.052-2.35-1.11-4.05-1.91-4.6-2.14-1.88-.77-4.36-.56-8.31.68-1.14.36-2.41.64-3.64.9-2.93.64-5.7 1.23-6.65 3.08-3.72 7.22-8.61 13.33-14.53 18.16-6.6 5.38-11.09 8.43-13.5 10.08-.96.65-1.59 1.08-1.95 1.38-1.28 1.063-1.57 3.04-1.84 4.944l-.08.53c-.31 2.03-1.8 14.17-1.8 16.23 0 1.98.28 4.3 1.45 5.12-.1.41-.13.81-.04 1.2.84 3.8 2.09 6.77 3.71 8.826l.26.33c1.46 1.86 2.19 2.794 3.19 2.855h.1c.67 0 1.21-.445 1.6-.84 1.53-1.53 6.84-11.663 7.72-14.195.82-2.38-.35-3.324-1.39-4.16a8.45 8.45 0 0 1-.93-.825c-.53-.562-1.08-.862-1.71-.974-.12-.65-.36-1.83-.73-2.97.11.01.22.02.34.02.6 0 1.27-.1 1.83-.45.55-.35.91-.89 1.03-1.58.41-2.23 1.37-5.07 5.66-10.69 4.43-5.82 13.45-14.84 17.04-18.04 3.73-3.33 5.44-4.2 7-3.57.72.29 2.37 1.32 4.46 2.62.7.43 1.49.93 2.32 1.44-1.71 1.66-6.57 6.48-8.09 8.88-.32.51-.66 1.01-.99 1.51-1.64 2.43-3.19 4.72-1.76 6.56.92 1.19.82 4.13.72 6.97-.04.93-.07 1.88-.07 2.79 0 3.98 2.6 9.1 2.72 9.35-.01.08-.05.16-.06.23-.05.62.16 1.18.61 1.63.78.78 3.16 4.48 4.59 6.85.88 1.47 1.74 1.81 2.35 1.81.04 0 .08 0 .13-.01.56-.05 1.37-.41 1.96-1.9.74-1.85 5.93-11.42 7.15-13.39.62-1.01.25-1.61-.22-2.37l-.21-.35c-.1-.16-.18-.32-.25-.47-.38-.79-.85-1.47-1.97-1.39-.35-.73-1.17-2.23-2.35-2.77-.76-.35-1.14-.83-1.16-1.06-.01-.03-.01-.07.08-.13 1.24-.93 2.49-2.64 3.24-8.71.67-5.47 2.5-8.08 2.91-8.6.89.48 1.8.96 2.73 1.43 1.37.69 2.68 1.36 3.94 2.01 7.41 3.78 13.26 6.77 18.31 7.81 5.02 1.04 9.36 3.64 11.69 5.04.3.18.56.34.79.47l.44.26c1.73 1.02 3.69 2.19 6.68.44.81-.48 3.52-2.09 7.09-4.44 1.2.9 5.25 3.96 7.31 5.84.34.32.82.78 1.43 1.37 3.65 3.54 12.16 11.8 25 19.88-.21 1.81.09 3.76 3.7 4.82 3.24.95 5.72 1.13 6.92 1.15l-.02.38c-3.63-.84-10.17-1.63-10.47-1.67a.61.61 0 0 0-.51.16c-.14.12-.22.29-.22.48v1.16c0 .3.21.57.51.63.06.01 4.53.95 9.21 2.13l-.51 2.82c-.15.84.25 1.66.99 2.06 1 .53 2.88 1.51 6.13 3.11 3.28 1.62 5.62 2.49 7 2.93a1.94 1.94 0 0 0 2.39-1.16l1.2-3.17c4.04 2.09 7.95 4.42 10.17 6.34 4.07 3.52 8.05 7.12 8.09 7.16.12.11.28.16.43.16.13 0 .26-.04.37-.11l1.43-.98c.14-.1.24-.25.27-.42.03-.17 0-.34-.1-.48-.12-.19-1.59-2.26-4.5-5.05 3.36 1.92 7.2 4.11 9.82 5.52l.636.35c4.985 2.68 6.695 3.61 8.28 6.22.91 2.6 1.3 4.98 1.21 7.3-.15 3.56 1.13 15.28 8.75 26.62 4.88 7.27 10.75 12.67 15.03 16.62 2.234 2.06 4 3.68 4.94 4.94 3.03 4.04 2.6 7.77-1.355 11.73-2.94 2.94-12.01 8.9-20 13.6-13.79-.41-28.17-.63-42.97-.63-101.7.1-184.2 10.35-184.2 23s82.5 22.9 184.268 22.9 184.265-10.26 184.265-22.9c0-7.66-30.277-14.45-76.76-18.6 2.816-2.95 5.612-5.98 8.13-8.9 10.31-11.96 17.83-17.66 20.66-19.81 1.343-1.02 5.72-4.64 5.737-8.48.005-1.68-.8-3.16-2.398-4.39-1.3-1-2.62-2.08-3.97-3.18-4.08-3.34-8.303-6.79-12.725-8.79-6.06-2.75-9.845-7.48-9.2-11.51.434-2.75 1.96-4.76 4.483-8.08 1.626-2.15 3.65-4.81 6.065-8.56 3.96-6.15 5.77-9.21 6.57-10.64 4.38 8.53 9.63 11.44 14.05 13.85 2.69 1.47 5 2.74 6.73 5 5.4 7.06 5.89 13.78 5.9 13.85.02.2.13.39.3.5.18.11.4.13.59.05.19-.08 4.39-1.86 4.98-10.96 6.14 3.66 5.76 12.38 5.76 12.47-.01.23.1.45.3.58.2.12.45.13.65.03.24-.13 5.59-3.07 4.7-12.08 9.12 5.71 13.9 25.33 13.95 25.53.06.22.22.39.44.46s.46.02.63-.13c.15-.13 3.29-2.98 3.51-7.51 5.04 5.86 18.19 26.71 9.55 50.69-.09.26-.01.54.2.71a.63.63 0 0 0 .73.06c8.62-4.98 9.21-18.82 9.25-20.96.74-.8 2.21-3.15 5.74-9.85 4.91-9.3 4.07-16.63 3.86-17.96.81-1.89 6.76-17.14-5.81-29.08zm-56.17-41.968c-.405-10.614-3.698-12.55-3.73-12.568a.646.646 0 0 1 .576-1.156c.16.083 4 2.132 4.44 13.674.44 11.636 7.17 21.482 20.01 29.267.3.18.4.58.21.88-.12.2-.34.31-.55.31-.12 0-.23-.03-.34-.09-13.24-8.03-20.18-18.23-20.64-30.32zm-17.066-16.375c-.35-.044-.604-.362-.565-.712s.34-.585.7-.572c.204.02 5.01.6 4.67 10.13-.02.582-.047 1.166-.073 1.752-.38 8.42-.76 17.126 13.41 29.906a.658.658 0 0 1-.44 1.14c-.16 0-.31-.05-.43-.16-14.62-13.18-14.22-22.2-13.84-30.92.02-.58.05-1.16.07-1.74.29-8.23-3.48-8.79-3.52-8.8zm33.33 3.79l-.108-.388c-3.27-11.89-8.74-13.88-14.16-14.27a.647.647 0 0 1-.6-.69.66.66 0 0 1 .69-.6c5.61.4 11.82 2.52 15.31 15.21l.1.39c3.16 11.49 5.07 18.43 10.58 23.73.25.24.26.65.02.91-.13.13-.3.19-.47.19-.16 0-.33-.06-.45-.18-5.77-5.55-7.71-12.62-10.93-24.32zm-69.18-32.93c-.003.828-.137 6.38-2.964 13.51-2.813 7.095-8.953 17.245-22.217 25.307-24.05 14.62-56.343 1.126-60.067-.517-.01-1.127.04-2.212.18-3.23.16-1.178.4-2.545.68-3.975.25-1.28.54-2.606.85-3.898 2.68 1.736 12.07 7.23 23.36 7.23 7.73 0 16.35-2.588 24.27-10.75 16.37-16.86 19.4-31.382 19.89-34.517.91.138 3.3.797 8.13 3.854 6.26 3.97 7.67 6.56 7.87 6.99zm-111.953 8.05a38.665 38.665 0 0 0 2.77 9.657l-2.958 16.82a1.78 1.78 0 0 1-1.754 1.473h-.004c-.013 0-.023.006-.035.007-.01 0-.02-.004-.032-.003l-4.07.42c-.83-.2-1.37-.99-1.24-1.84.46-2.97 1.41-8.94 2.69-15.53 1.15-5.96 2.79-13.57 3.84-18.34.19 2.47.46 4.9.82 7.34zm64.668-69.608c-2.663 2.76-6.463 3.2-11.606 3.74l-1.816.19c-4.764.53-8.496 1.36-10.142 1.77-1.123-1.15-3.212-2.95-4.308-3.88.483-.36.877-.83 1.096-1.37 1.177-.74 4.63-3.6 2.53-10.54 3.63-3.15 2.83-9.09 2.473-10.95 2.49.83 5.58 1.69 7.06 1.87.44.35 1.65 1.25 2.73 1.51 1.67.39 3.33.46 3.73.47.64.19 4.96 1.45 8.97 2.68-.09 1.22-.36 4.82-.68 7.43-.25 1.95-.55 3.91-.76 5.21-.12.72.18 1.4.71 1.82zm-53.342 91.96c-.097 2.52-1.134 3.69-2.562 5.27-.367.4-.75.82-1.138 1.29a4.734 4.734 0 0 1-3.736 1.75.624.624 0 0 0-.422-.29c-.08-.02-1.894-.32-4.786-.31l.01-.91a3.08 3.08 0 0 0 2.39-2.47l2.638-15c2.992 6.01 6.66 9.74 7.606 10.65zm-9.56 25.96l-3.284-1.45.185-15.51c1.92-.01 3.37.13 4.08.22.28 5.21-.66 13.96-.98 16.73zm34.084-70.78c-1.76.19-7.818.63-13.868-1.36-7.54-2.47-9.2-5.1-9.46-5.6.018-.85.033-1.7.046-2.5 1.678 1.36 5.65 4.29 10.62 5.97 3.715 1.25 7.502 1.53 10.117 1.53 1.13 0 2.04-.06 2.63-.1-.02.48-.05 1.18-.09 2.05zm-10.242 49.31c-.067.49-.105 1-.136 1.52-.698.33-3.433 1.36-9.07.08-3.784-.86-4.536-2.22-4.67-2.57.538-.99.885-2.17.902-3.78v-.13c.827.66 2.177 1.36 4.403 1.86 2.14.48 3.91.65 5.33.65 1.7 0 2.92-.25 3.72-.5-.19 1.02-.35 1.99-.47 2.85zm3.52-15.14c-.105.3-.217.65-.333 1.02-.75.31-3.5 1.1-10.09-.39-4.75-1.08-6.01-2.7-6.26-3.1l-.04-1.87c1.06.83 2.95 1.83 6.35 2.6 3.26.74 5.71.98 7.52.98 1.45 0 2.47-.16 3.19-.35-.14.42-.26.8-.37 1.09zm1.866-6c-.664.33-3.584 1.44-10.947-.21-6.48-1.45-7.59-3.54-7.73-3.87-.01-.46-.01-.84-.01-1.14-.02-2.58.06-16.46.13-23.84.65.58 1.65 1.3 3.17 2.08-.08 2.34-.5 14.3-.68 22.7-.01.35.28.65.63.66h.01c.36 0 .65-.28.65-.63.18-7.85.55-18.83.67-22.12 1.11.49 2.45 1.01 4.05 1.53-.21 2.54-1.22 14.26-1.82 22.09-.02.35.24.66.6.69h.05c.34 0 .62-.26.65-.6.58-7.58 1.54-18.82 1.8-21.82 1.65.47 3.23.78 4.71.95-.14 2.34-.82 11.41-3.13 21.4-.08.35.14.69.49.77.05.01.1.02.15.02.29 0 .56-.2.63-.5 2.31-10.01 3-19.11 3.16-21.56.88.07 1.74.11 2.52.11.25 0 .49-.01.73-.02-.16 2.41-.89 11.28-3.7 21.46-.1.34.1.7.45.79.05.02.11.02.17.02.28 0 .54-.19.62-.48 2.89-10.46 3.61-19.58 3.75-21.86a27.9 27.9 0 0 0 2.88-.33c-.12 1.78-.27 3.73-.46 5.71-.42 4.4-2.48 12.26-4.14 17.95zM216.5 250a.637.637 0 0 0-.9-.08.644.644 0 0 0-.08.91c1.436 1.71 1.015 2.907.77 3.343-1.335.123-7.156.518-12.64-1.33-6.074-2.047-10.742-6.182-11.004-6.416.015-.802.027-1.406.04-1.63.01-.227-.03-.54-.09-1.016-.16-1.25-.43-3.35.073-5.43.43-1.8 1.38-3.05 2.14-4.05.43-.57.8-1.06 1.03-1.57l.16-.37c.69-1.58 2.52-5.79 6.6-7.32 3.75-1.41 9.09-1.48 10.83-1.47-.34 3.67-.34 8.67 1.04 14.08 1.53 5.98 4.66 11.31 7.17 14.9-1.44.87-2.96 1.28-3.95 1.47.24-1.01.1-2.42-1.22-3.99zm-2-32.493c-.04.166-.56 1.947-.91 4.76-1.6-.024-6.8.016-10.84 1.354 2.94-5.12 9.03-9.97 10.39-11.02.6.25 1.15.35 1.6.35.33 0 .6-.04.83-.1.707.6 2.724 2.31 4.068 3.59l-4.597.62c-.25.04-.46.21-.53.46zm-14.88-8.004c2.25 2.09 5.25 2.12 6.14 2.08.68.458 2.78 1.543 5.9.108.098.09.19.13.287.21-2.162 1.7-8.58 7.03-11.06 12.55-3.676 2.02-5.378 5.85-6.054 7.4l-.155.35c-.172.38-.504.82-.89 1.33-.834 1.1-1.872 2.47-2.373 4.53-.56 2.32-.26 4.65-.096 5.91.04.37.09.64.08.78-.02.34-.04 1.49-.06 2.92l-.06 2.95c-.01.05-.01.1-.01.14-.01.57-.03 1.12-.04 1.64-.08 3.01-.23 24.86-.19 28.17.01 1.18.06 3.67.11 6.58l.04 2.21c-.01.04 0 .08 0 .13.08 4.1.16 8.46.17 11.09-2.48-2.67-8.5-10.1-10.07-20.7-1.88-12.71-1.32-25.02 2-43.89 2.72-15.46 13.37-25.53 15.47-27.38.25.34.52.66.83.95zM172.65 325.12l-3.352-.972c.113-1.897.447-8.403.05-11.645a40.961 40.961 0 0 1 3.797-.7l-.493 13.316zm1.865-15.488l2.936-.304-.25 21.084c0 .48-.2.926-.56 1.253-.35.324-.81.48-1.29.447a1.712 1.712 0 0 1-1.59-1.785l.77-20.695zm100.244-48.96c-.33 2.187-3.07 17.082-19.57 34.073-19.45 20.02-43.24 5.207-46.4 3.088.39-1.598.79-3.084 1.15-4.278a.589.589 0 0 0 .12-.403c.11-.365.22-.708.32-1 1.25-3.58 5.44-17.675 6.07-24.243.52-5.49.75-10.83.81-12.54 1.01-.13 3.13-.55 5.15-1.79 1.59 2.17 2.79 3.5 2.92 3.63.12.13.3.21.48.21.05 0 .1-.01.15-.02.13-.03 13.58-3.24 22.47-4.32 2.08-.25 4.26-.18 6.57-.09 3.21.11 6.6.22 10.15-.52 5.02 3.5 8.7 7.25 9.59 8.17zm-6.38-7.408c-.51-.39-1.03-.78-1.57-1.175 2.52-.72 5.12-1.95 7.8-3.95-1.91 2.09-4.1 4.08-6.24 5.11zm11.37-11.83c-9.05 10.852-17.35 10.553-24.69 10.287-2.36-.08-4.59-.16-6.77.1-8.12.99-19.99 3.73-22.25 4.26-1.36-1.57-7.93-9.48-10.31-18.75-2.32-9.06-.58-17.18-.11-19.04l4.85-.65c.04-.01 4.54-1.28 10.94-1.99l1.81-.19c5.47-.57 9.82-1.04 12.83-4.56.73.1 1.75.17 2.98.26 1.71.12 3.84.27 5.8.54 7.39 1.01 9.54 2.08 12.26 3.44 2.28 1.14 4.87 2.43 10.87 4.05 2.59.71 4.69 1.49 6.38 2.27.29 1.69 1.48 10.68-4.62 20.01zM247.4 98.236a37.627 37.627 0 0 0-.027-.667c-.03-.55-.063-1.19-.063-1.99 0-1.28.236-2.56.37-3.19.954-.07 2.84-.25 3.614-.71.654-.39 1.202-.83 1.732-1.26 1.524-1.23 2.843-2.28 6.29-1.86 1.425.17 2.63.91 3.582 2.19 1.635 2.2 2.033 5.33 1.787 6.76a81.27 81.27 0 0 1-.3 1.63l-.032.18-9.757-.24c-.27-1.08-.732-1.75-1.148-2.15-.615-.59-1.374-.86-2.236-.85-1.196.05-2.194.96-2.747 2.34-.31-.17-.667-.24-1.064-.22zm22.67 7.974h-.014c-.205 0-.39.017-.563.04.385-.934.84-1.857 1.117-2.42.093-.188.174-.352.238-.487.707-.25 2.17-.606 3.2-.18.486.203.826.56 1.04 1.09.493 1.226-.075 2.59-.46 3.292-.933 1.715-2.496 2.934-3.468 3.12-.75.145-1.306.092-1.656-.158-.355-.255-.584-.77-.696-1.574-.04-.29.02-.69.142-1.143.14-.103.48-.29 1.105-.29a.646.646 0 0 0 .656-.644.634.634 0 0 0-.64-.646zm-22.23 8.05c.013-.048.17-.295 2.133-.35l.484-.015c1.136-.043 1.7-.062 2.75.488 1.364.718 2.245 2.41 2.182 3.48-.02.35-.14.57-.35.65-1.52.58-2.06.158-2.49-.764-.64-1.35-2.49-1.62-3.72-1.8-.33-.05-.74-.11-.86-.16-.16-.13-.28-.91-.14-1.53zm3.425-16.857c.025 0 .05-.003.076-.003.46 0 .88.17 1.22.494.45.427.98 1.33.98 3.2 0 2.115-.88 3.87-1.96 3.912-1.15.103-2.19-1.657-2.27-3.717-.08-2.07.82-3.84 1.97-3.89zm3.53 3.006l9.324.22c-.05.25-.09.5-.14.76-4.34-.07-7.73.19-9.2.33.01-.21.03-.42.03-.63 0-.25-.02-.47-.03-.69zm24.097 27.78c-1.94 1.98-4.333 3.81-7.115 5.44-4.197 2.45-7.075 3.44-8.8 3.83.214-.54.427-1.21.527-1.99.067-.52-.01-.96-.098-1.48a12.26 12.26 0 0 1-.14-1.12c.86-.34 1.586-.76 2.014-1.22 2.92-.21 4.365-2.15 4.885-3.56 1.276.24 4.128.3 6.79-2.96 1.572-.49 2.652-1.16 3.422-1.85.087.46.188.93.325 1.24.16.37.533.95.825 1.38-.68.47-1.582 1.18-2.635 2.26zm-34.884-19.26c-.197-.2-.145-.59-.05-1.11.026-.15.052-.29.068-.42.108-.93 2.175-5.35 2.91-6.67.226-.41.335-.8.4-1.2.212-.04.398-.04.514.03.158.09.22.27.242.35-.066.45-.107.92-.087 1.41.113 2.81 1.65 4.96 3.517 4.96h.096c1.417-.06 2.533-1.35 2.985-3.26 1.194-.13 4.64-.42 9.18-.36-.233 1.58-.396 3.17-.32 4.52.14 2.46-1.315 3.82-2.997 5.39l-.183.17c-.58.53-1.013.78-1.37.77-.492-.03-1.08-.61-1.932-1.61-1.29-1.52-2.82-1.85-3.74-2.04-.21-.05-.47-.1-.54-.13-.61-.43-1.55-.24-2.85.01-.14.03-.3.05-.45.08.9-.58.93-1.42.93-1.47 0-.36-.29-.66-.64-.66a.63.63 0 0 0-.64.63c0 .02-.07.59-1.43.73-2.69.42-3.41.04-3.59-.15zm-50.415-44.31a.543.543 0 0 1-.613-.38.543.543 0 0 1 .045-.44c.076-.14.2-.23.35-.27l3.32-.81a7.188 7.188 0 0 1 3.164-.05l6.2 1.32h.03c.96 2.16 1.48 3.86 1.56 5.08-1.26-.64-2.61-1.47-3.41-2.01.12-.09.21-.2.25-.35a.64.64 0 0 0-.46-.79l-4.74-1.29c-.9-.31-1.86-.4-2.76-.26l-2.98.22zm-1.174 3.57a.6.6 0 0 1 .48-.7l3.64-.8a8.14 8.14 0 0 1 2.87-.12l2.08.27c-.28.24-.53.57-.74 1.03-.14.31-.18.66-.17 1.04l-1.31-.51c-.73-.29-1.53-.38-2.3-.27l-3.88.56a.625.625 0 0 1-.7-.53zm1.41 2.53a.49.49 0 0 1 .28-.33l1.76-.78 1.3-.19c.55-.08 1.12-.02 1.64.19l2.15.84c.12.26.25.52.42.78l-1.43-.54a4.54 4.54 0 0 0-2.89-.12l-2.61.77a.527.527 0 0 1-.58-.21.514.514 0 0 1-.07-.43zm41.53 61.76c-1.52-2.01-2.6-3.2-3.73-4.11l-.28-.22c-1.28-1.01-4.29-3.36-5.47-8.44-.98-4.18-2.21-7.7-3.02-10.03-.31-.89-.57-1.63-.74-2.2-.67-2.2-5.99-17.33-7.01-19.68-1.01-2.34-2.33-3.23-3.2-3.82l-.23-.16c-3.31-2.02-5.52-5.63-6.55-7.61a5.72 5.72 0 0 0-2.51-2.5l-1.4-.71c-.58-.29-1.22-.4-1.86-.32l-3.04.39a.644.644 0 0 1-.72-.51l-.05-.22 1.85-.55a3.2 3.2 0 0 1 2.05.08l4.15 1.58c.06.03.11.08.16.11l.66.37c1.82 1 3.71 2.04 4.82 4.25 1.88 3.75 4.38 5.77 7.06 5.77.6 0 1.22-.11 1.84-.32a.64.64 0 0 0 .4-.82c-.11-.34-.48-.51-.82-.41-3.67 1.24-6.17-2.49-7.33-4.82-1.29-2.57-3.45-3.76-5.36-4.81l-.65-.35c-1.88-1.06-2.89-3.25-2.52-4.06.13-.28.32-.62.54-.68.12-.04.41-.03 1.04.4.42.29.99.65 1.6 1.01.06 1.01-.53 1.27-.66 1.32-.34.1-.53.46-.43.79.08.28.34.47.62.47.06 0 .12-.01.18-.03.52-.15 1.33-.71 1.54-1.85.91.49 1.84.94 2.58 1.17 1.54.5 3.67 1.37 3.69 1.38a.644.644 0 0 0 .49-1.19c-.09-.04-2.2-.9-3.8-1.41-.12-.04-.26-.1-.4-.15.13-2.45-1.49-5.99-2.76-8.49l-.2-.41c-.29-.63-.72-1.25-1.22-1.97-.58-.82-1.23-1.75-1.81-2.92-.16-.32-.36-.88.07-1.14.39-.23 1.07-.11 1.48.49.18.26.59.77 1.12 1.42.73.9 1.74 2.13 2.56 3.25.83 1.14 1.13 1.83 1.5 2.92.4 1.22 1.26 2.31 2.34 3.71 1.04 1.34 2.22 2.85 3.4 4.96.75 1.34 1.24 2.64 1.72 3.9.7 1.85 1.36 3.59 2.73 5.01.71.73 1.16 1.72 1.56 2.59.12.26.23.51.35.73l.18.37c.73 1.51 2.69 5.54 7.25 12.63 5.05 7.87 9.05 15.66 9.41 16.42.65 1.4 1.29 2.21 2.03 2.54.37.17 2.51 1.82 4.46 3.4-.32 2.34-.54 5.4-.03 7.89 1.13 5.47 4.41 6.83 5.78 7.15.5.12 1.04.18 1.59.18 1.66 0 3.43-.49 4.55-1.13.54.2 1.12.29 1.71.35-.95 1.24-2.73 3.39-4.66 4.82-2.91 2.17-4.72 4.08-6.04 5.66-2.73-2.11-11.21-9.6-12.66-11.52zm15.45 29.96c1.01-3.06 1.22-5.07 1.41-6.84.2-1.88.37-3.5 1.42-5.97 1.78-4.18 4.63-6.67 5.29-7.21 1.45-.11 10.01-.95 15.88-5.53 2.46-1.92 4.09-3.39 5.41-4.58 1.83-1.65 2.9-2.61 4.52-3.27 4.1 5.67 12.59 18.6 13.55 29.65.79 9.13.03 15.03-.85 21.87-.56 4.35-1.14 8.85-1.42 14.75-.72 15.25-1.94 24.38-3.99 29.75-.09-.12-.16-.24-.27-.34-.1-.07-.22-.18-.38-.33-.86-.77-2.66-2.36-6.14-4.01-.01-.01-.02-.01-.03-.01-1.82-.86-4.09-1.73-6.94-2.51-5.88-1.6-8.41-2.86-10.63-3.97-2.83-1.41-5.06-2.52-12.66-3.56-2-.27-4.15-.42-5.88-.55-1.47-.1-2.74-.19-3.38-.32a.621.621 0 0 1-.5-.73c.21-1.31.52-3.29.77-5.26.3-2.45.56-5.75.66-7.2.76.24 1.5.47 2.18.69 5.54 1.79 13.73 4.08 19.54 5.18 2.29.43 4.38.65 6.19.65 3.45 0 5.91-.78 6.93-2.27l.45-.66c1.22-1.74 2.18-3.12 2.67-6.27.28-1.81.6-3.13.91-4.41.6-2.47 1.22-5.02 1.58-11.04.23.01.45.01.66.01 1.98 0 2.73-.33 2.86-.39.17-.09.29-.23.33-.41.06-.25 1.66-6.11 1.41-14.5-.24-8.37-.96-11.17-.99-11.28a.636.636 0 0 0-.79-.46.64.64 0 0 0-.46.79c0 .02.71 2.82.94 10.99.09 3-.07 5.68-.31 7.89-3.22-1.7-8.22-2.67-13.51-3.68l-.58-.11c-4.83-.93-9.59-.94-11.29-.91-.12-2.64-.25-5.75-.37-8.93-.31-8.14 3.18-12.08 3.22-12.12.24-.27.22-.67-.05-.91a.646.646 0 0 0-.91.03c-.13.14-2.58 2.87-3.35 8.5-1.09-2.01-2.1-4.48-2.11-4.51a.653.653 0 0 0-.84-.36.65.65 0 0 0-.36.84c.07.17 1.67 4.1 3.12 6.2-.03.75-.05 1.54-.02 2.37.13 3.44.28 6.79.4 9.57.18 4.05.33 6.88.33 6.93.01.31.24.56.55.61.01 0 .45.07 1.24.2-.48 2.82.27 7.19.68 9.22-1.51-.44-4.52-1.15-8.94-1.41-3.49-.2-7.43-.33-10.62-.41.05-5.56 1.44-13.64 3.39-19.55zm-19.58 9.73c.9.38 1.88 1.15 2.41 4 .1.58.17 1.14.23 1.66.21 1.81.41 3.52 2.36 4.59.1.05.2.08.31.08.23 0 .45-.12.56-.34a.59.59 0 0 0 .06-.39c.21.01.44.02.7.02.17 0 .58.21.94.4.73.38 1.72.91 2.92.95.38.01 1.04.02 1.91.04 3.24.07 9.27.19 14.3.48 6.13.36 9.53 1.64 9.56 1.64.04.02 1.87 1.19 2.22 4.82.03.33.31.58.64.58h.06c.35-.04.61-.35.58-.71-.19-1.92-.75-3.23-1.33-4.15.99.38 2.24 1.07 3.48 2.35.13.13.29.19.46.19.16 0 .32-.06.44-.18.25-.25.26-.66.01-.91-2.32-2.4-4.71-3.01-5.74-3.16-.33-1.51-1.3-6.5-.8-9.37 2.49.43 6.68 1.2 11.88 2.32 2.73.58 4.81.88 6.42 1.01-.36 5.9-.94 8.29-1.55 10.81-.31 1.3-.64 2.65-.93 4.51-.45 2.86-1.29 4.06-2.45 5.73l-.46.66c-1.23 1.78-5.87 2.2-11.83 1.07-5.75-1.09-13.88-3.37-19.39-5.14-4.79-1.55-12.46-3.78-12.53-3.8a.467.467 0 0 0-.17-.03c-.01 0-1.8-.03-3.54-.44-.83-.2-1.98-1.06-2.36-1.38a.61.61 0 0 0-.36-.15c-1.21-.1-4.57-1-7.49-2.01-2.44-.85-4.17-2.79-4.82-3.52l-.15-.17c-.84-.86-.83-1.89-.64-2.68.54.6 1.47 1.3 3.08 1.93a.649.649 0 0 0 .83-.37.642.642 0 0 0-.37-.84c-2.76-1.08-2.99-2.21-3-2.28 0-.02-.01-.03-.01-.05-.01-.02 0-.04-.01-.05 0-.02-.2-1.14.07-2.18.65.76 1.83 1.76 3.93 2.49.07.02.14.03.21.03.27 0 .52-.17.61-.44a.636.636 0 0 0-.4-.82c-2.7-.94-3.62-2.35-3.82-2.72-.07-1.36.56-1.87 1.01-2.06.42.61 1.42 1.6 3.78 2.78a.634.634 0 0 0 .86-.29c.16-.32.03-.7-.29-.86-2.53-1.27-3.2-2.2-3.36-2.47.05-.36.23-1.05.71-1.38.34-.23.8-.27 1.45-.1.86.15 1.88.85 2.87 1.52.56.37 1.13.76 1.68 1.06.07.03.15.06.22.1.03.01.05.02.08.03 1.6.75 3.87 1 3.97 1.01.34.03.67-.22.71-.57s-.22-.68-.57-.71c-.02-.01-1.91-.21-3.3-.78-.07-.79-.22-1.53-.42-2.2 1.05.03 2.49.32 3.51.75zm-4.49.67c-.22-.14-.44-.29-.67-.44-.31-.21-.63-.42-.94-.62l-.38-1.6c.14-.37.28-.78.43-1.25.55.86 1.24 2.21 1.55 3.9zM110.38 125c-.607.148-1.128.27-1.556.367-2.797.592-7.8-1.668-10.204-2.76a27.71 27.71 0 0 0-1.385-.603c-1.15-.43-4.85-2.478-4.164-10.698.68-8.123 6.78-12.49 8.8-13.08 1.01-.293 2.22-.34 3.51-.39 1.66-.07 3.38-.14 5-.72 2.37-.847 6.41-2.71 7.71-3.315 1.18 1.34 5.55 7.4 2.6 21.2-.08.35.15.69.5.77.05.01.09.02.14.02.3 0 .57-.21.63-.51 3.22-15.07-1.93-21.34-3.07-22.52v-.54l4.8-2.53h1.1c1.13 1.68 7.17 11.58 2.32 25.24a.654.654 0 0 0 .61.87c.27 0 .52-.16.61-.43 4.73-13.33-.53-23.3-2.2-25.98 1.74-.65 6.2-2.5 12.01-6.26 1.33-.86 2.52-1.65 3.61-2.37 4.87-3.22 7.56-4.99 10.26-5.3l9.87-1.13c-.84 2.18-1.62 4.4-1.63 4.43-.05.17-.03.35.05.51.06.1 1.39 2.53 4.94 4.05.22.09.47.06.66-.09.19-.15.28-.38.23-.62-.19-1.02-.1-1.92.08-2.65 1.91 3.82 4.2 4.2 4.3 4.21.03.01.06.01.09.01.19 0 .37-.08.49-.22.15-.16.2-.39.14-.6-.63-2.17-.85-6.17-.93-8.55a.647.647 0 0 0 .8-.99 8.71 8.71 0 0 1-.91-1.25l-.03-.05a9.91 9.91 0 0 1-1.36-3.92c-.21-1.67-.87-3.75-1.34-5.11 1.02.54 2.49 1.57 3.95 3.52 1.9 2.54 3.12 5.85 4 8.27.36.97.67 1.81.94 2.38.25.52.54 1 .81 1.46.71 1.19 1.33 2.22 1.22 3.76-.09 1.45-.45 2.49-.99 2.93-.28.23-.62.31-1.06.24-1.84-.27-4.16-.38-4.26-.38-.26-.04-.56.18-.64.46-.05.16-1.12 3.78 1.78 6.48.88 6.81 5.62 12.32 6.71 13.51-.24 2.04-1.11 13.21 7.32 19.04-2.29 5.03.73 10.96 1.55 12.41-.52 1.08-1.76 4.47.86 8.06-1.82 4.54.61 9.35 1.42 10.73-1.21 1.73-5.82 9.23-1.21 17.8-1.91 6.71 2.16 11.4 3.97 13.09-11.71 1-26.52-.04-40.72-7.49-6.6-3.46-11.45-8.44-15.03-14.08l1.71-1.9c4.1-4.56 7.65-8.51 9.34-10.74 3.23-4.26 3.83-8.12 3.9-10.02.35.08.75.12 1.26.12.36 0 .64-.29.64-.65 0-.35-.29-.64-.64-.64-.73 0-1.12 0-1.37-.32l-.01-.02c-.24-.33-.33-.97-.46-2.26-.21-2.09-.36-4.57-.43-5.84.49.09 1.02.14 1.62.14 1.58 0 3.57-.29 6.08-.88a.64.64 0 1 0-.29-1.25c-3.17.74-7.03 1.42-8.84.11-.29-.21-.6-.49-.96-.82-1.94-1.78-5.17-4.75-14.82-6.82-2.05-.43-4.2-.7-6.39-.82.06-1.73.15-2.95.21-3.54.69-.09 1.39-.22 2.13-.39 2.64-.62 5.84-.74 6.16-.73.35.09.69-.12.78-.46.09-.34-.12-.7-.47-.78-.44-.11-4.03.08-6.77.73-2.47.58-4.48.69-6.74.38-2.06-.29-7.52.03-9.86.93-2.08.8-7.08 1.85-8.89 1.96a.65.65 0 0 0-.61.69c.02.34.31.6.65.6h.04c1.94-.11 7.07-1.19 9.28-2.05 2.07-.79 7.34-1.11 9.22-.85.33.05.66.06.98.09-.04.66-.1 1.82-.12 3.38-5.93.17-10.91 1.36-13.92 2.08zm17.89-.73c2.11.125 4.184.378 6.154.8 9.305 1.995 12.38 4.82 14.22 6.507.405.37.75.684 1.075.92.26.19.55.34.86.474.05 1.06.22 3.95.46 6.34.12 1.23.28 2.07.56 2.64.05.66.23 5.17-3.63 10.25-1.66 2.19-5.19 6.11-9.28 10.66l-1.45 1.61c-8.35-14.01-9.18-31.59-9-40.19zm-2.57-4.66c.497.01 1 0 1.503-.03-.06.74-.15 2.055-.203 3.83-.012.044-.03.09-.032.14-.003.054.014.105.026.16-.322 12.225 1.244 44.454 25.404 57.13 11.55 6.06 23.48 7.952 33.89 7.952 2.94 0 5.75-.153 8.4-.403.04 0 .084.01.125.01.08 0 .16-.02.234-.05 10.733-1.06 18.7-3.73 20.98-4.56.17.48.45.95.87 1.39l.082.09c-4.89 2.03-31.22 11.73-61.76-.92-31.6-13.09-29.88-59.02-29.53-64.75zM76.33 248.006c3.003-4.22 5.994-4.41 10.203-4.21 3.5.163 8.42 1.01 9.98 1.292.208 5.27.995 10.663 2.616 13.58-.31.573-.58 1.06-.78 1.39-.53.907-1.05 2.217-1.29 2.882-.54.01-1.55.02-2.82 0-.36-.72-1.28-2.42-2.71-4.09-1.18-1.38-2.94-2.3-4.59-2.4-1.24-.08-2.32.29-3.14 1.06a29.443 29.443 0 0 0-2.82 3.04c-2.46-1.04-5.71-2.53-8.86-4 .41-1.34 1.7-5.06 4.19-8.56zm16.427 14.89c-3.08-.12-7.018-.49-9.75-1.52-.238-.09-.495-.19-.767-.3a28.9 28.9 0 0 1 2.45-2.61c.703-.656 1.58-.75 2.183-.715 1.317.08 2.73.82 3.683 1.94 1.01 1.19 1.754 2.4 2.203 3.21zm-68.32 44.08c.35.38.73.687 1.067.957 1.002.806 1.506 1.21.978 2.735-.88 2.538-6.127 12.424-7.41 13.707-.31.31-.54.48-.706.46-.424-.02-1.23-1.05-2.256-2.36l-.26-.33c-1.496-1.9-2.66-4.7-3.463-8.31-.296-1.33 2.01-3.74 5.04-5.26 3.2-1.6 4.747-2.2 5.674-2.22h.07c.59.006.92.25 1.27.63zm45.632-6.4c.09.19.18.387.3.58l.22.36c.42.683.42.683.22 1.01-1.16 1.87-6.44 11.553-7.26 13.6-.31.774-.65 1.07-.87 1.085-.21.03-.73-.27-1.27-1.18-1.14-1.89-3.8-6.11-4.78-7.09-.18-.18-.26-.37-.24-.6.02-.28.24-1.05 1.74-2.1 1.97-1.38 8.32-5.34 10.32-6.1.43-.16.71-.24.92-.24.34 0 .46.24.68.69zM67.79 285.8c-.783 6.364-2.102 7.356-2.735 7.83-.434.326-.643.787-.59 1.3.085.79.813 1.59 1.902 2.094.65.3 1.25 1.234 1.602 1.913-2.15.83-8.51 4.794-10.57 6.235-.63.44-1.12.896-1.49 1.353-.74-1.61-2.18-5.135-2.18-7.896 0-.9.03-1.83.06-2.75.11-3.22.21-6.25-1-7.81-.86-1.1.44-3.02 1.81-5.05.34-.51.69-1.02 1.02-1.54 1.5-2.38 6.72-7.51 8.13-8.87 2.07 1.26 4.46 2.68 7.07 4.11-.68.92-2.38 3.71-3.04 9.06zm64.053 9.454c-1.946-1.778-5.51-4.497-7.04-5.647 8.644-5.782 21.39-15.338 25.88-24.05a.644.644 0 1 0-1.145-.593c-6.472 12.554-30.86 27.108-33.62 28.725-2.33 1.36-3.673.57-5.373-.44l-.45-.27c-.22-.13-.476-.28-.77-.46-2.228-1.34-6.86-4.12-12.096-5.19-4.88-1.01-10.66-3.96-17.99-7.7-1.27-.65-2.58-1.32-3.95-2.01-5.78-2.92-10.92-6.13-14.32-8.25-2.32-1.45-3.84-2.4-4.67-2.73-2.38-.96-4.68.53-8.34 3.8-3.73 3.32-12.67 12.25-17.22 18.22-4.45 5.83-5.47 8.84-5.9 11.23-.06.33-.2.55-.45.71-.56.35-1.49.27-2.03.17-.25-.51-.52-.95-.84-1.24-.26-.24-.67-.23-.91.03s-.23.67.04.91c.72.66 1.35 2.97 1.67 4.64-1.31.24-3.02 1.03-5.51 2.28-2.13 1.06-4.15 2.65-5.14 4.26-.38-.51-.7-1.78-.7-3.88 0-1.96 1.49-14.08 1.78-16.04l.08-.54c.24-1.67.49-3.39 1.39-4.14.3-.26.95-.7 1.85-1.31 2.42-1.65 6.94-4.73 13.58-10.15 6.06-4.94 11.06-11.19 14.91-18.67.62-1.2 3.21-1.76 5.72-2.3 1.26-.28 2.56-.56 3.76-.93 3.59-1.14 5.88-1.35 7.43-.72.51.21 2.29 1.05 4.53 2.11 5.12 2.42 12.85 6.08 16.5 7.45 5.1 1.92 13.75 1.68 14.87 1.64.9.33 7.67 3.12 11.35 12.83.1.26.35.41.61.41.08 0 .15-.02.23-.04.33-.13.5-.5.37-.84-3.52-9.29-9.66-12.55-11.63-13.39.25-.66.69-1.75 1.13-2.49.04-.08 4.77-8.47 4.77-10.99 0-.36-.29-.65-.65-.65s-.64.29-.64.64c0 1.2-1.68 4.8-3.08 7.52-2.17-4.96-2.48-15.58-1.81-21.49.34-3.01 2.02-5.36 3.79-7.85 1.7-2.39 3.46-4.86 3.97-7.96 1.08-6.62 4.22-19.53 13.03-31.6 4.51-6.19 10.74-13.34 16.33-19.6 4.48 7.07 10.76 13.17 19.55 16.82a84.48 84.48 0 0 0 32.52 6.48c2.25 0 4.41-.09 6.47-.25-.06 3.13.52 7.24 3.33 10.44-.04 2.06.31 3.8 1.02 5.21-1.77 1.53-13.19 11.98-16.05 28.26-2.3 13.05-3.28 22.99-3.06 32.09l-.02.03c-.03.14-3.04 13.57-4.85 22.93a406.2 406.2 0 0 0-2.69 15.59c-.21 1.36.55 2.65 1.78 3.16l-.04.98c-1.59.21-3.17.5-4.73.9-.33.08-.54.4-.48.74.03.18.06.39.09.61-1.29.14-4.85.56-6.33.94-.39.1-.77.15-1.12.2-1.19.17-2.51.39-2.96 2.2-12.47-7.92-20.77-15.96-24.35-19.43-.62-.6-1.11-1.08-1.47-1.4zm49.51 40.753a.646.646 0 0 1-.798.387c-1.34-.426-3.61-1.267-6.82-2.855-3.233-1.6-5.1-2.57-6.1-3.1a.64.64 0 0 1-.325-.68l.49-2.73c1.654.43 3.28.88 4.716 1.33l-.07 1.9a3.015 3.015 0 0 0 2.786 3.12c.075 0 .15.01.225.01.75 0 1.482-.29 2.04-.8.54-.5.866-1.18.945-1.9 1.34.61 2.747 1.28 4.16 1.99l-1.25 3.3zm66.787 84.118c4.435-4.435 4.918-8.823 1.475-13.415-1.01-1.35-2.816-3.01-5.098-5.112-4.24-3.9-10.046-9.247-14.84-16.386-7.424-11.058-8.677-22.414-8.53-25.856.15-3.678-.82-7.473-3.056-11.942-1.88-3.76-1.24-10.44 1.37-14.292 2.59-3.815 11.1-10.616 11.19-10.686a.636.636 0 0 0 .1-.906.635.635 0 0 0-.9-.102c-.36.284-8.75 6.99-11.44 10.97-2.89 4.26-3.55 11.4-1.46 15.594.05.1.09.195.14.294-1.39-1.097-3.25-2.097-6.1-3.632l-.63-.342c-5.35-2.886-15.92-9.058-16.64-9.48a59.48 59.48 0 0 0-10.66-5.953c.05-.4.12-1.03.21-1.85 2.66.35 4.55 1.14 6.38 1.91 2.27.95 4.62 1.94 8.26 1.94 7.33 0 8.47-4.77 8.98-9.24.26-2.35.14-4.91.02-7.39-.04-.89-.08-1.74-.1-2.59 3.7 1.57 17.87 7.11 33.8 7.11 8.93 0 18.42-1.75 26.92-6.91 23.23-14.12 25.55-34.72 25.78-39.18 3.25 1.1 15.73 6.07 20.72 18.95 3.39 8.75 3.46 15.83 2.95 20.2-.35-3.63-1.04-5.78-1.06-5.85a.653.653 0 0 0-.82-.41c-.34.11-.52.48-.41.81.08.22 7.32 22.69-14.64 46.34-12.08 13.34-25.42 19.5-32.59 22.8-1.68.78-3.02 1.39-3.87 1.9-2.11 1.25-3.21 2.63-3.79 3.76-.16-.68-.3-1.39-.42-2.2a.658.658 0 0 0-.73-.55c-.35.05-.6.38-.54.73.69 4.76 2.16 7.14 3.72 9.67.61.98 1.23 1.99 1.84 3.18 2.18 4.28 11.33 19.63 14.29 22.27.89.79 1.3 1.58 1.23 2.36-.09.89-.8 1.59-1.13 1.79-.11.06-.23.14-.38.24-1.03.66-3.74 2.44-17.83 9.95-15.92 8.5-36.16 20.79-41.57 24.88-5.79 4.39-9.09 5.73-9.82 5.54-.29-.08-.62-.53-.95-.97-.62-.85-1.47-2.02-3.03-1.88-1.87.14-3.35 2.91-3.99 4.34-1-.77-2.98-2.32-4.63-3.86-1.87-1.75-4.65-6.74-5.55-8.4.92-.51 2.85-1.49 4.33-1.49 2.31 0 6.6 0 8.62-1.01l.48-.24c2.15-1.08 6.13-3.08 12.2-5.39 6.43-2.45 27.46-15.28 32.28-20.1zm-59.18 28.545c.68 1.28 3.783 6.99 5.964 9.025 1.904 1.777 4.21 3.55 5.05 4.186-.207.54-.79.7-3.02.38-.735-.1-2.218-.24-4.095-.42-3.86-.37-9.14-.87-10.88-1.34-.93-.25-1.54-.79-1.71-1.51-.19-.75.14-1.62.86-2.27 1.25-1.14 3-3.2 4.54-5.02.64-.75 1.22-1.44 1.7-1.97.68-.76 1.2-1.1 1.57-1.04zm69.853 11.133c-.537.478-2.105.383-4.086.262l-.296-.018c-.88-.053-1.97-.103-3.12-.158-3.06-.15-6.87-.32-8.18-.64-.29-.07-.47-.23-.6-.5-.36-.81-.01-2.3.38-3.01.23-.43.68-1.41 1.2-2.54.84-1.82 1.88-4.09 2.41-4.93.42-.66.83-.95 1.17-1.11.43 1.09 1.71 3.14 5.56 6.04 4.17 3.14 5.54 5.43 5.83 5.99-.04.35-.16.5-.25.59zm14.295-24.788a1082.62 1082.62 0 0 0-20.033-1.184c2.497-1.39 4.962-2.74 7.332-4 14.133-7.54 16.884-9.34 17.92-10.01.14-.09.242-.15.338-.21.546-.33 1.615-1.33 1.75-2.77.076-.83-.147-2.1-1.655-3.44-2.676-2.38-11.603-17.19-13.997-21.88-.63-1.24-1.27-2.28-1.89-3.28-.935-1.51-1.79-2.91-2.47-4.77.017-.35.195-1.79 1.832-3.37 1.137 1.51 4.442 5.59 8.96 8.7.93.64 1.844 1.29 2.755 1.94 4.405 3.15 8.96 6.41 14.817 7.41 6.853 1.18 9.25 1.79 9.25 3.99 0 2.73-.685 7.11-6.61 13.66-4.288 4.75-12.647 13.6-18.3 19.26zm34.37-80.91c-2.387 3.706-4.397 6.35-6.01 8.475-2.646 3.485-4.244 5.59-4.733 8.66-.86 5.406 4.375 10.368 9.945 12.888 4.268 1.932 8.422 5.327 12.44 8.612 1.356 1.11 2.69 2.198 3.994 3.205 1.28.986 1.9 2.083 1.896 3.356-.01 2.58-2.706 5.54-5.224 7.45-2.86 2.17-10.458 7.93-20.857 19.99-7.73 8.96-18.09 18.98-23.66 24.37-1.68 1.63-2.9 2.8-3.43 3.36-1.12 1.17-2.25 1.4-3.04 1.37-.91-.02-1.64-.39-1.93-.73-.47-.54-1.2-.82-1.99-.77-1.14.05-2.29.71-3.01 1.71-.62.86-1.43 1.62-1.97 2.08-.67-1.06-2.3-3.21-5.91-5.93-4.26-3.21-5.07-5.19-5.22-5.73.34-.47 1.05-1.34 1.78-1.73 1.02-.56 3.91-1.21 7.24-1.32l.91-.02c3.27-.08 6.98-.18 9.88-2.36 3.03-2.27 17.41-17.39 23.75-24.39 6.22-6.88 6.94-11.58 6.94-14.52 0-3.48-3.89-4.15-10.33-5.26-5.57-.96-9.8-3.98-14.29-7.19-.92-.65-1.84-1.31-2.78-1.95-4.37-3-7.64-7.07-8.7-8.46.29-.21.61-.43.97-.65.79-.47 2.1-1.07 3.75-1.83 7.25-3.35 20.75-9.58 33-23.11 5.23-5.63 8.82-11.2 11.27-16.45.69 2.06 1.43 3.91 2.2 5.56-.39.75-1.89 3.5-6.95 11.36zM146.645 36.44c-1.53 1.212-3.532 1.934-4.873 2.31-.21.06-.396.107-.57.15-.347.086-.612.142-.758.17-.06.853-.05 2.15.304 3.752.487 2.21 1.58 4.833 2.045 5.895l.234-.06a22.126 22.126 0 0 0 1.015-.306c1.475-.48 3.79-1.41 6-3 .157-.11.314-.22.47-.34l.3-.24c.13-.1.263-.21.392-.32-.156-.85-.48-2.3-1.155-4.3-.76-2.26-1.82-3.79-2.46-4.58-.17.2-.35.38-.55.56-.13.12-.27.23-.4.34zm3.99 10.075c-2.44 1.722-4.944 2.682-6.458 3.153-.175.054-.333.1-.48.143-.382.11-.66.18-.81.21.015.85.136 2.18.555 4.17.62 2.95 1.504 4.66 1.93 5.36l.135-.03c.16-.04.34-.09.55-.16.18-.06.372-.12.585-.2 1.608-.6 4.1-1.86 6.75-4.35.136-.12.27-.24.404-.37.13-.13.26-.27.39-.4l.352-.36c-.116-.73-.353-1.88-.848-3.45-.614-1.95-1.494-3.58-2.02-4.47-.21.17-.42.34-.632.5l-.403.3zm-11.59-28.665a12.178 12.178 0 0 1-2.512 1.45c-.185.077-.356.15-.516.21-.304.113-.55.195-.73.248.074.59.208 1.433.457 2.647.447 2.177 1.344 4.024 1.838 4.933.063-.017.193-.052.37-.107.09-.02.195-.06.31-.1.17-.05.356-.12.566-.2.883-.34 2.073-.92 3.102-1.8.177-.15.347-.31.512-.48a5.75 5.75 0 0 0 .602-.69c-.12-.69-.368-1.75-.902-3.17-.637-1.69-1.53-3-2.12-3.75-.187.19-.37.37-.565.53-.135.12-.273.22-.41.32zm3.555 8.39c-1.206.985-2.547 1.607-3.502 1.964a11.625 11.625 0 0 1-1.268.402c-.008.002-.016 0-.024.003.016.93.126 2.4.566 4.18.527 2.13 1.424 4.02 1.925 4.99.114-.03.277-.06.475-.11l.07-.02c.213-.06.465-.12.743-.2 1.26-.37 3.05-1.03 4.348-2.1.19-.16.373-.32.538-.49.04-.04.08-.08.11-.12.11-.12.21-.24.31-.37a.55.55 0 0 1 .24-.19c-.12-.95-.37-2.34-.9-3.79-.64-1.77-1.94-3.93-2.66-5.07-.17.18-.34.36-.53.53-.14.13-.28.25-.42.37zm-6.682-15.662c-.564.386-1.095.686-1.543.897a9.516 9.516 0 0 1-1.234.483c.11.705.32 1.79.71 3.326.34 1.322.9 2.557 1.22 3.19l.19-.064c.15-.05.31-.11.5-.183a10.618 10.618 0 0 0 2.57-1.443c.18-.132.35-.262.52-.41.09-.078.17-.168.26-.25.13-.124.26-.24.38-.375-.15-.87-.44-2.18-.92-3.23-.6-1.32-1.18-2.2-1.59-2.74-.21.18-.42.36-.63.51-.13.1-.26.19-.39.28z"/></svg>