<?xml version="1.0" standalone="no"?>
<!DOCTYPE svg PUBLIC "-//W3C//DTD SVG 20010904//EN"
 "http://www.w3.org/TR/2001/REC-SVG-20010904/DTD/svg10.dtd">
<svg version="1.0" xmlns="http://www.w3.org/2000/svg"
 width="1280.000000pt" height="1104.000000pt" viewBox="0 0 1280.000000 1104.000000"
 preserveAspectRatio="xMidYMid meet">
<metadata>
Created by potrace 1.16, written by Peter Selinger 2001-2019
</metadata>
<g transform="translate(0.000000,1104.000000) scale(0.100000,-0.100000)"
fill="#000000" stroke="none">
<path d="M5342 10119 c2 -7 -4 -13 -12 -14 -9 0 -16 -11 -17 -30 l-2 -30 7 30
c4 16 5 -83 4 -219 -4 -269 7 -417 54 -705 48 -290 97 -449 192 -614 144 -249
287 -390 496 -487 185 -87 320 -114 526 -107 220 7 391 59 547 165 169 115
380 344 474 515 l26 48 6 -88 c15 -226 121 -481 298 -716 190 -252 340 -355
609 -413 120 -26 410 -26 530 0 293 64 470 176 736 464 181 196 352 455 609
919 1 2 111 -15 246 -37 134 -22 330 -54 434 -71 105 -17 335 -55 513 -84 178
-30 330 -51 339 -48 12 5 14 3 8 -8 -8 -12 -6 -12 8 0 19 15 23 26 5 15 -8 -5
-9 -2 -5 9 12 33 47 266 41 281 -7 17 -1 16 -449 96 -317 57 -5090 925 -5857
1065 -192 35 -352 67 -358 70 -6 4 -9 1 -8 -6z"/>
<path d="M7119 7664 c-17 -21 3 -288 30 -391 54 -208 284 -448 561 -588 216
-109 594 -229 880 -281 142 -26 446 -23 604 5 280 50 474 148 648 329 102 106
182 225 208 311 29 93 43 239 36 374 -7 132 -16 162 -49 154 -12 -3 -94 -37
-182 -75 -373 -162 -570 -205 -930 -205 -376 0 -666 42 -1150 168 -190 49
-347 102 -508 169 -121 51 -129 53 -148 30z m241 -132 c221 -86 562 -177 882
-236 435 -80 919 -82 1211 -4 43 11 80 19 82 17 2 -2 -8 -42 -22 -89 -13 -47
-30 -131 -36 -187 l-11 -103 -166 0 c-341 0 -739 25 -977 61 -291 44 -773 150
-1019 224 -78 24 -81 26 -92 62 -15 51 -30 152 -36 247 -5 71 -4 78 12 73 9
-3 87 -32 172 -65z m280 -462 c608 -144 895 -180 1552 -196 l286 -7 7 -46 c4
-25 20 -88 37 -139 16 -52 28 -95 26 -97 -7 -7 -128 -54 -188 -73 -222 -71
-569 -87 -816 -37 -278 57 -602 164 -807 266 -163 81 -329 217 -426 348 -28
38 -51 71 -51 74 0 3 39 -6 88 -19 48 -14 179 -47 292 -74z"/>
<path d="M1439 7499 c-33 -16 -59 -30 -59 -33 0 -3 28 8 63 24 34 17 69 30 77
30 8 0 -12 -11 -44 -25 -78 -32 -161 -90 -194 -134 -38 -53 -47 -60 -26 -22
10 18 42 54 69 79 28 24 37 36 20 24 -28 -19 -65 -56 -94 -94 -7 -10 -14 -30
-16 -45 -2 -15 -14 -59 -28 -98 -31 -85 -42 -164 -59 -403 -7 -117 -16 -182
-23 -182 -36 0 -187 -23 -226 -34 -56 -17 -123 -50 -166 -82 -35 -27 -48 -30
-37 -11 11 20 -86 -75 -108 -106 -11 -15 -21 -38 -23 -50 -1 -12 -12 -46 -24
-75 -41 -102 -54 -186 -48 -316 3 -87 10 -136 25 -176 35 -96 35 -97 22 -80
-10 13 -11 13 -7 0 2 -8 9 -15 14 -15 6 0 29 -27 51 -60 22 -33 54 -73 71 -89
31 -30 44 -59 16 -36 -8 7 -15 10 -15 7 0 -7 211 -201 270 -247 24 -19 41 -29
37 -22 -13 20 -2 14 80 -42 43 -30 127 -80 186 -111 64 -34 104 -61 100 -67
-3 -6 -1 -8 5 -4 14 9 65 -12 57 -24 -3 -5 0 -7 8 -4 8 3 52 -13 97 -36 359
-181 779 -316 1166 -375 l42 -6 17 -72 c37 -157 137 -368 225 -479 32 -39 38
-54 18 -41 -27 16 86 -108 140 -154 31 -26 53 -42 49 -35 -14 21 0 14 68 -38
36 -27 123 -84 193 -126 70 -41 126 -80 124 -85 -1 -6 2 -8 7 -4 14 8 193 -83
186 -95 -3 -5 0 -7 8 -4 8 3 52 -13 96 -36 212 -106 590 -261 846 -345 265
-88 574 -164 1060 -259 862 -169 1299 -230 1855 -255 492 -23 516 -23 534 -6
12 12 13 21 6 36 -9 16 -22 19 -73 19 -218 0 -748 30 -997 56 -542 56 -1675
272 -2180 415 -550 155 -1348 526 -1665 773 -193 152 -328 347 -408 591 -37
113 -48 191 -36 272 22 158 82 273 172 330 47 30 268 104 385 128 52 11 86 24
91 34 5 9 5 81 0 161 -13 216 13 407 72 522 28 55 95 126 144 150 48 26 162
35 222 19 151 -41 237 -203 192 -364 -5 -20 -53 -95 -106 -165 -100 -133 -134
-195 -160 -296 -12 -48 -13 -67 -3 -98 24 -83 79 -94 645 -133 1414 -96 2595
-130 3700 -106 895 19 1168 30 1185 47 11 11 12 18 4 32 -13 19 18 19 -574 1
-592 -17 -1743 -23 -2185 -10 -620 18 -1596 63 -1875 86 -36 3 -193 14 -350
25 -289 20 -423 34 -466 50 -29 11 -31 42 -8 121 24 80 49 123 134 234 97 126
115 157 130 224 38 161 -45 327 -199 400 -48 22 -69 26 -151 26 -84 0 -102 -3
-152 -28 -116 -57 -196 -168 -240 -337 -20 -76 -23 -109 -23 -302 l0 -217 -85
-21 c-130 -32 -269 -79 -333 -113 -68 -36 -136 -107 -171 -180 -30 -60 -66
-195 -66 -244 0 -18 -5 -33 -11 -33 -6 0 -63 9 -127 20 -357 63 -694 180
-1111 385 -337 166 -454 244 -654 435 -111 105 -168 178 -212 272 -74 157 -65
365 22 544 78 161 277 264 510 264 66 0 73 12 73 117 0 118 28 400 45 468 38
144 97 225 202 278 175 89 351 27 437 -153 27 -57 31 -75 31 -151 0 -78 -2
-89 -28 -122 -15 -20 -74 -73 -130 -117 -122 -94 -146 -130 -154 -228 -7 -83
17 -140 69 -165 36 -17 138 -33 268 -42 47 -3 159 -12 250 -20 91 -8 226 -19
300 -25 884 -65 1003 -71 1553 -77 526 -6 527 -5 527 15 0 11 3 27 6 36 6 14
-37 16 -432 16 -384 0 -699 11 -1024 35 -41 3 -205 14 -365 26 -159 11 -342
24 -405 29 -63 6 -198 17 -300 25 -375 30 -380 32 -380 130 0 65 20 105 78
153 48 41 70 53 57 32 -10 -16 1 -11 16 7 12 15 12 16 -1 8 -13 -8 -13 -7 -1
8 16 20 36 23 25 5 -5 -7 15 7 44 31 52 43 74 71 78 101 1 8 7 31 13 50 16 49
13 126 -5 190 -9 30 -17 65 -18 77 0 11 -4 19 -8 17 -3 -2 -18 15 -31 39 -44
75 -126 137 -217 165 -19 6 -75 12 -124 15 -80 3 -93 1 -147 -24z"/>
<path d="M1343 6363 c-7 -2 -13 -14 -13 -26 0 -17 17 -31 78 -62 135 -70 209
-168 267 -358 27 -84 27 -95 21 -220 -4 -73 -8 -150 -9 -172 -2 -31 2 -40 16
-43 33 -7 45 17 57 120 23 186 1 313 -83 488 -52 109 -131 190 -238 243 -42
20 -78 37 -80 36 -2 0 -10 -3 -16 -6z"/>
</g>
</svg>
